<svg width="186" height="61" viewBox="0 0 186 61" fill="none" xmlns="http://www.w3.org/2000/svg">
<path d="M88.8 17.2H93.4L86.7 37.4H81.4L76.4 22.2L71.4 37.5H66.2L59.5 17.2H64.2L69 32.5999L73.9 17.2H78.9L84 32.6999L88.8 17.2Z" fill="white"/>
<path d="M113.1 29H98.2002C98.3002 30 98.7002 31 99.3002 31.9C99.9002 32.6 100.6 33.2 101.4 33.6C102.3 34 103.2 34.2 104.1 34.2C105.2 34.2 106.2 34 107.2 33.6C108.2 33.2 109.1 32.7 110 32L112.2 35.1C111.1 36.1 109.8 36.8 108.4 37.3C106.9 37.7 105.4 38 103.9 38C102 38 100.2 37.6 98.5002 36.7C96.9002 35.8 95.7002 34.5 94.9002 32.9C94.0002 31.2 93.6002 29.2 93.6002 27.3C93.6002 25.4 94.0002 23.5 94.9002 21.7C95.7002 20.1 97.0002 18.8 98.5002 17.9C100.1 17 101.9 16.5 103.7 16.6C107.2 16.5 110.5 18.5 112 21.7C112.8 23.4 113.3 25.3 113.2 27.3C113.1 27.9 113.1 28.4 113.1 29ZM108.7 25.6C108.6 24.2 107.9 22.9 107 21.9C106.1 21 104.9 20.6 103.6 20.6C102.3 20.5 100.9 21 100 22C99.0002 23 98.4002 24.3 98.3002 25.6H108.7Z" fill="white"/>
<path d="M131.9 18.0999C133.4 18.9999 134.7 20.3 135.5 21.9C137.3 25.3 137.3 29.5 135.5 32.9C134.7 34.5 133.4 35.7999 131.9 36.6999C130.4 37.5999 128.6 38.1 126.8 38C125.5 38 124.3 37.8 123.2 37.3C122.1 36.8 121.2 36.0999 120.5 35.0999V37.5H116V8.69995H120.4V19.7C121.9 17.8 124.3 16.6999 126.8 16.7999C128.6 16.6999 130.3 17.0999 131.9 18.0999ZM129.5 33C130.4 32.4 131.2 31.5999 131.6 30.6999C132.1 29.6999 132.3 28.6 132.3 27.4C132.3 26.3 132.1 25.0999 131.6 24.0999C131.1 23.0999 130.4 22.2999 129.5 21.7999C127.5 20.6999 125.1 20.6999 123.1 21.7999C122.2 22.3999 121.5 23.1999 121 24.0999C120.5 25.0999 120.2 26.3 120.3 27.4C120.3 28.6 120.5 29.6999 121 30.6999C121.5 31.6999 122.2 32.5 123.1 33C124.1 33.6 125.2 33.9 126.3 33.9C127.5 33.9 128.6 33.5 129.5 33Z" fill="white"/>
<path d="M158.8 29H143.9C144 30 144.4 31 145 31.9C145.5 32.6 146.3 33.2 147.1 33.6C148 34 148.9 34.2 149.8 34.2C150.9 34.2 151.9 34 152.9 33.6C153.9 33.2 154.8 32.7 155.7 32L157.9 35.1C156.8 36.1 155.5 36.8 154 37.3C152.5 37.7 151 38 149.5 38C147.6 38 145.8 37.6 144.1 36.7C142.5 35.8 141.3 34.5 140.5 32.9C139.6 31.2 139.2 29.2 139.2 27.3C139.2 25.4 139.6 23.5 140.5 21.7C141.3 20.1 142.6 18.8 144.1 17.9C145.7 17 147.5 16.5 149.3 16.6C152.9 16.5 156.1 18.5 157.7 21.7C158.6 23.4 159 25.3 159 27.3C158.9 27.8 158.9 28.3 158.8 29ZM154.3 25.6C154.2 24.2 153.5 22.9 152.6 21.9C151.7 21 150.4 20.5 149.2 20.6C147.9 20.5 146.5 21 145.6 22C144.6 23 144 24.3 143.9 25.6H154.3Z" fill="white"/>
<path d="M179.9 37.5H174.5L169.4 30.5L164.4 37.5H159.2L166.8 27.2L159.2 17.3H164.6L169.5 24.1L174.4 17.3H179.6L172.1 27.2L179.9 37.5Z" fill="white"/>
<path d="M126.7 54.2H125.8V46.1H126.9V49.2C127.1 48.9 127.4 48.6 127.8 48.5C128.1 48.3 128.5 48.3 128.9 48.3C129.3 48.3 129.7 48.4 130 48.5C130.3 48.7 130.6 48.9 130.9 49.2C131.3 49.8 131.6 50.6 131.5 51.4C131.5 52.3 131.2 53.2 130.6 53.9C130.4 54.1 130.1 54.3 129.7 54.5C129.4 54.6 129 54.7 128.7 54.7C128.3 54.7 127.9 54.6 127.6 54.5C127.3 54.3 127 54.1 126.7 53.8V54.2ZM130.3 51.2C130.3 50.6 130.1 50 129.7 49.5C129.5 49.3 129.4 49.2 129.1 49.1C128.9 49 128.7 49 128.5 49C128.2 49 128 49.1 127.8 49.1C127.6 49.2 127.4 49.3 127.2 49.5C126.9 49.9 126.7 50.5 126.8 51C126.8 51.6 127 52.2 127.4 52.7C127.5 52.9 127.7 53 128 53.1C128.2 53.2 128.4 53.2 128.7 53.2C128.9 53.2 129.2 53.1 129.4 53.1C129.6 53 129.8 52.8 130 52.6C130.3 52.3 130.4 51.7 130.3 51.2Z" fill="white"/>
<path d="M137.3 48.3L135.3 54.3C135.1 54.9 134.9 55.4 134.5 55.9C134.4 56.1 134.2 56.2 134 56.3C133.8 56.4 133.6 56.4 133.4 56.4C133.2 56.4 132.9 56.4 132.7 56.3V55.4C132.9 55.5 133.1 55.5 133.3 55.5C133.4 55.5 133.5 55.5 133.6 55.4C133.7 55.4 133.8 55.3 133.8 55.2C134 54.9 134.2 54.5 134.3 54.2H133.9L131.8 48.3H133L134.7 53.3L136.4 48.3H137.3Z" fill="white"/>
<path d="M152.2 46.1H150.2V54.3H152.2V46.1Z" fill="white"/>
<path d="M168.8 48.4C168.3 48.1 167.7 48 167.1 48C165.9 47.9 164.9 48.8 164.8 50V50.1C164.8 51.3 165.7 52.2 166.8 52.3C166.9 52.3 167 52.3 167 52.3C167.6 52.3 168.2 52.2 168.7 51.9V54.1C168.1 54.3 167.5 54.4 166.8 54.4C164.5 54.4 162.6 52.5 162.6 50.2C162.6 47.9 164.5 46 166.8 46C167.4 46 168.1 46.1 168.7 46.3V48.4H168.8Z" fill="white"/>
<path d="M147.3 48.4C146.8 48.1 146.2 48 145.6 48C144.4 47.9 143.4 48.8 143.3 50C143.3 50.1 143.3 50.1 143.3 50.2C143.3 51.4 144.2 52.3 145.3 52.4C145.4 52.4 145.5 52.4 145.5 52.4C146.1 52.4 146.7 52.3 147.2 52V54.2C146.6 54.4 145.9 54.5 145.3 54.5C143 54.5 141.1 52.6 141.1 50.3C141.1 48 143 46.1 145.3 46.1C145.9 46.1 146.6 46.2 147.2 46.4V48.4H147.3Z" fill="white"/>
<path d="M175.3 48C174.7 48 174.2 48.3 173.8 48.7C173.6 48.9 173.5 49.1 173.4 49.4C173.3 49.6 173.2 49.9 173.3 50.2C173.3 50.5 173.3 50.7 173.4 51C173.5 51.2 173.6 51.5 173.8 51.7C174 51.9 174.2 52.1 174.5 52.2C174.8 52.3 175 52.4 175.3 52.4C175.6 52.4 175.9 52.3 176.1 52.2C176.4 52.1 176.6 51.9 176.8 51.7C177 51.5 177.1 51.3 177.2 51C177.3 50.8 177.4 50.5 177.3 50.2C177.3 49.9 177.3 49.7 177.2 49.4C177.1 49.2 177 48.9 176.8 48.7C176.6 48.5 176.4 48.3 176.1 48.2C175.9 48.1 175.6 48 175.3 48ZM179.6 50.1C179.6 52.5 177.7 54.5 175.4 54.5C173.1 54.5 171 52.6 171 50.3C171 47.9 172.9 45.9 175.2 45.9C175.2 45.9 175.2 45.9 175.3 45.9C177.6 45.8 179.6 47.7 179.6 50.1Z" fill="white"/>
<path d="M160 47.9C159.5 47.8 158.9 47.7 158.4 47.7C157.6 47.7 157.1 47.9 157.1 48.4C157.1 48.9 157.7 49.1 158 49.2L158.6 49.4C159.7 49.6 160.6 50.6 160.6 51.7C160.6 53.7 158.8 54.4 157.2 54.4C156.5 54.4 155.7 54.3 155 54.2V52.3C155.6 52.5 156.3 52.6 157 52.6C158.1 52.6 158.5 52.3 158.5 51.9C158.5 51.5 158.1 51.2 157.6 51.1L157.2 51C156 50.8 155.2 49.8 155.1 48.6C155.1 47.1 156.2 46.1 158.1 46.1C158.8 46.1 159.4 46.2 160.1 46.3V47.9H160Z" fill="white"/>
<path d="M16.1002 24.3C16.6002 26 17.3002 27.6 18.1002 29.2C18.4002 29.9 18.9002 30.5 19.5002 31L19.9002 31.2C20.9002 31.4 21.4002 30.6 21.8002 29.9C22.3002 28.7 22.7002 27.5 23.0002 26.3C23.1002 26.1 23.1002 25.9 23.2002 25.6C23.3002 25.2 23.4002 24.7 23.5002 24.3L27.9002 12.6C28.8002 11.4 30.0002 10.4 31.4002 9.69998C32.7002 8.99998 34.2002 8.59998 35.7002 8.59998C37.9002 8.59998 40.0002 9.39998 41.7002 10.7C44.6002 12.9 46.3002 17.2 46.3002 17.2C46.5002 17.8 46.7002 18.4 46.7002 19C46.7002 19.6 46.6002 20.1 46.4002 20.7C46.1002 21.2 45.8002 21.7 45.5002 22.1C45.1002 22.5 44.6002 22.8 44.1002 23C43.6002 23.2 43.0002 23.3 42.4002 23.3C41.8002 23.3 41.2002 23.2 40.6002 22.9C40.0002 22.6 39.5002 22.2 39.1002 21.8C39.1002 21.8 39.1002 21.7 39.0002 21.7C38.7002 21.3 38.5002 20.9 38.3002 20.5C38.1002 20 37.8002 19.5 37.5002 19C37.3002 18.8 37.2002 18.5 37.0002 18.3C36.9002 18.1 36.7002 17.8 36.4002 17.7C36.0002 17.4 35.5002 17.3 35.1002 17.5L35.0002 17.4C34.5002 17.8 34.2002 18.3 34.0002 18.9C33.4002 20.4 32.9002 21.9 32.5002 23.5L32.3002 24.4L30.5002 30.3L28.0002 35.9C27.1002 37.1 25.9002 38 24.5002 38.7C23.2002 39.3 21.7002 39.7 20.2002 39.7C14.0002 39.8 11.1002 34.2 11.1002 34.2C7.60019 28.4 6.60019 20.8 6.30019 18.3C6.20019 18 6.2002 17.7 6.2002 17.4C6.2002 16.6 6.40019 15.9 6.80019 15.2C7.20019 14.5 7.70019 14 8.40019 13.6C9.10019 13.3 9.9002 13.1 10.7002 13.1C12.0002 13.2 13.2002 13.8 14.0002 14.9C14.5002 15.8 14.8002 16.7 14.8002 17.7C15.0002 20 15.5002 22.2 16.1002 24.3Z" fill="url(#paint0_linear_4_169)"/>
<path d="M16.1002 24.3C16.6002 26 17.3002 27.6 18.1002 29.2C18.4002 29.9 18.9002 30.5 19.5002 31L19.9002 31.2C20.9002 31.4 21.4002 30.6 21.8002 29.9C22.3002 28.7 22.7002 27.5 23.0002 26.3C23.1002 26.1 23.1002 25.9 23.2002 25.6C23.3002 25.2 23.4002 24.7 23.5002 24.3L27.9002 12.6C28.8002 11.4 30.0002 10.4 31.4002 9.69998C32.7002 8.99998 34.2002 8.59998 35.7002 8.59998C37.9002 8.59998 40.0002 9.39998 41.7002 10.7C44.6002 12.9 46.3002 17.2 46.3002 17.2C46.5002 17.8 46.7002 18.4 46.7002 19C46.7002 19.6 46.6002 20.1 46.4002 20.7C46.1002 21.2 45.8002 21.7 45.5002 22.1C45.1002 22.5 44.6002 22.8 44.1002 23C43.6002 23.2 43.0002 23.3 42.4002 23.3C41.8002 23.3 41.2002 23.2 40.6002 22.9C40.0002 22.6 39.5002 22.2 39.1002 21.8C39.1002 21.8 39.1002 21.7 39.0002 21.7C38.7002 21.3 38.5002 20.9 38.3002 20.5C38.1002 20 37.8002 19.5 37.5002 19C37.3002 18.8 37.2002 18.5 37.0002 18.3C36.9002 18.1 36.7002 17.8 36.4002 17.7C36.0002 17.4 35.5002 17.3 35.1002 17.5L35.0002 17.4C34.5002 17.8 34.2002 18.3 34.0002 18.9C33.4002 20.4 32.9002 21.9 32.5002 23.5L32.3002 24.4L30.5002 30.3L28.0002 35.9C27.1002 37.1 25.9002 38 24.5002 38.7C23.2002 39.3 21.7002 39.7 20.2002 39.7C14.0002 39.8 11.1002 34.2 11.1002 34.2C7.60019 28.4 6.60019 20.8 6.30019 18.3C6.20019 18 6.2002 17.7 6.2002 17.4C6.2002 16.6 6.40019 15.9 6.80019 15.2C7.20019 14.5 7.70019 14 8.40019 13.6C9.10019 13.3 9.9002 13.1 10.7002 13.1C12.0002 13.2 13.2002 13.8 14.0002 14.9C14.5002 15.8 14.8002 16.7 14.8002 17.7C15.0002 20 15.5002 22.2 16.1002 24.3Z" fill="url(#paint1_radial_4_169)"/>
<path d="M16.1002 24.3C16.6002 26 17.3002 27.6 18.1002 29.2C18.4002 29.9 18.9002 30.5 19.5002 31L19.9002 31.2C20.9002 31.4 21.4002 30.6 21.8002 29.9C22.3002 28.7 22.7002 27.5 23.0002 26.3C23.1002 26.1 23.1002 25.9 23.2002 25.6C23.3002 25.2 23.4002 24.7 23.5002 24.3L27.9002 12.6C28.8002 11.4 30.0002 10.4 31.4002 9.69998C32.7002 8.99998 34.2002 8.59998 35.7002 8.59998C37.9002 8.59998 40.0002 9.39998 41.7002 10.7C44.6002 12.9 46.3002 17.2 46.3002 17.2C46.5002 17.8 46.7002 18.4 46.7002 19C46.7002 19.6 46.6002 20.1 46.4002 20.7C46.1002 21.2 45.8002 21.7 45.5002 22.1C45.1002 22.5 44.6002 22.8 44.1002 23C43.6002 23.2 43.0002 23.3 42.4002 23.3C41.8002 23.3 41.2002 23.2 40.6002 22.9C40.0002 22.6 39.5002 22.2 39.1002 21.8C39.1002 21.8 39.1002 21.7 39.0002 21.7C38.7002 21.3 38.5002 20.9 38.3002 20.5C38.1002 20 37.8002 19.5 37.5002 19C37.3002 18.8 37.2002 18.5 37.0002 18.3C36.9002 18.1 36.7002 17.8 36.4002 17.7C36.0002 17.4 35.5002 17.3 35.1002 17.5L35.0002 17.4C34.5002 17.8 34.2002 18.3 34.0002 18.9C33.4002 20.4 32.9002 21.9 32.5002 23.5L32.3002 24.4L30.5002 30.3L28.0002 35.9C27.1002 37.1 25.9002 38 24.5002 38.7C23.2002 39.3 21.7002 39.7 20.2002 39.7C14.0002 39.8 11.1002 34.2 11.1002 34.2C7.60019 28.4 6.60019 20.8 6.30019 18.3C6.20019 18 6.2002 17.7 6.2002 17.4C6.2002 16.6 6.40019 15.9 6.80019 15.2C7.20019 14.5 7.70019 14 8.40019 13.6C9.10019 13.3 9.9002 13.1 10.7002 13.1C12.0002 13.2 13.2002 13.8 14.0002 14.9C14.5002 15.8 14.8002 16.7 14.8002 17.7C15.0002 20 15.5002 22.2 16.1002 24.3Z" fill="url(#paint2_radial_4_169)"/>
<path d="M16.1002 24.3C16.6002 26 17.3002 27.6 18.1002 29.2C18.4002 29.9 18.9002 30.5 19.5002 31L19.9002 31.2C20.9002 31.4 21.4002 30.6 21.8002 29.9C22.3002 28.7 22.7002 27.5 23.0002 26.3C23.1002 26.1 23.1002 25.9 23.2002 25.6C23.3002 25.2 23.4002 24.7 23.5002 24.3L27.9002 12.6C28.8002 11.4 30.0002 10.4 31.4002 9.69998C32.7002 8.99998 34.2002 8.59998 35.7002 8.59998C37.9002 8.59998 40.0002 9.39998 41.7002 10.7C44.6002 12.9 46.3002 17.2 46.3002 17.2C46.5002 17.8 46.7002 18.4 46.7002 19C46.7002 19.6 46.6002 20.1 46.4002 20.7C46.1002 21.2 45.8002 21.7 45.5002 22.1C45.1002 22.5 44.6002 22.8 44.1002 23C43.6002 23.2 43.0002 23.3 42.4002 23.3C41.8002 23.3 41.2002 23.2 40.6002 22.9C40.0002 22.6 39.5002 22.2 39.1002 21.8C39.1002 21.8 39.1002 21.7 39.0002 21.7C38.7002 21.3 38.5002 20.9 38.3002 20.5C38.1002 20 37.8002 19.5 37.5002 19C37.3002 18.8 37.2002 18.5 37.0002 18.3C36.9002 18.1 36.7002 17.8 36.4002 17.7C36.0002 17.4 35.5002 17.3 35.1002 17.5L35.0002 17.4C34.5002 17.8 34.2002 18.3 34.0002 18.9C33.4002 20.4 32.9002 21.9 32.5002 23.5L32.3002 24.4L30.5002 30.3L28.0002 35.9C27.1002 37.1 25.9002 38 24.5002 38.7C23.2002 39.3 21.7002 39.7 20.2002 39.7C14.0002 39.8 11.1002 34.2 11.1002 34.2C7.60019 28.4 6.60019 20.8 6.30019 18.3C6.20019 18 6.2002 17.7 6.2002 17.4C6.2002 16.6 6.40019 15.9 6.80019 15.2C7.20019 14.5 7.70019 14 8.40019 13.6C9.10019 13.3 9.9002 13.1 10.7002 13.1C12.0002 13.2 13.2002 13.8 14.0002 14.9C14.5002 15.8 14.8002 16.7 14.8002 17.7C15.0002 20 15.5002 22.2 16.1002 24.3Z" fill="url(#paint3_radial_4_169)"/>
<path d="M16.1002 24.3C16.6002 26 17.3002 27.6 18.1002 29.2C18.4002 29.9 18.9002 30.5 19.5002 31L19.9002 31.2C20.9002 31.4 21.4002 30.6 21.8002 29.9C22.3002 28.7 22.7002 27.5 23.0002 26.3C23.1002 26.1 23.1002 25.9 23.2002 25.6C23.3002 25.2 23.4002 24.7 23.5002 24.3L27.9002 12.6C28.8002 11.4 30.0002 10.4 31.4002 9.69998C32.7002 8.99998 34.2002 8.59998 35.7002 8.59998C37.9002 8.59998 40.0002 9.39998 41.7002 10.7C44.6002 12.9 46.3002 17.2 46.3002 17.2C46.5002 17.8 46.7002 18.4 46.7002 19C46.7002 19.6 46.6002 20.1 46.4002 20.7C46.1002 21.2 45.8002 21.7 45.5002 22.1C45.1002 22.5 44.6002 22.8 44.1002 23C43.6002 23.2 43.0002 23.3 42.4002 23.3C41.8002 23.3 41.2002 23.2 40.6002 22.9C40.0002 22.6 39.5002 22.2 39.1002 21.8C39.1002 21.8 39.1002 21.7 39.0002 21.7C38.7002 21.3 38.5002 20.9 38.3002 20.5C38.1002 20 37.8002 19.5 37.5002 19C37.3002 18.8 37.2002 18.5 37.0002 18.3C36.9002 18.1 36.7002 17.8 36.4002 17.7C36.0002 17.4 35.5002 17.3 35.1002 17.5L35.0002 17.4C34.5002 17.8 34.2002 18.3 34.0002 18.9C33.4002 20.4 32.9002 21.9 32.5002 23.5L32.3002 24.4L30.5002 30.3L28.0002 35.9C27.1002 37.1 25.9002 38 24.5002 38.7C23.2002 39.3 21.7002 39.7 20.2002 39.7C14.0002 39.8 11.1002 34.2 11.1002 34.2C7.60019 28.4 6.60019 20.8 6.30019 18.3C6.20019 18 6.2002 17.7 6.2002 17.4C6.2002 16.6 6.40019 15.9 6.80019 15.2C7.20019 14.5 7.70019 14 8.40019 13.6C9.10019 13.3 9.9002 13.1 10.7002 13.1C12.0002 13.2 13.2002 13.8 14.0002 14.9C14.5002 15.8 14.8002 16.7 14.8002 17.7C15.0002 20 15.5002 22.2 16.1002 24.3Z" fill="url(#paint4_radial_4_169)"/>
<path d="M16.1002 24.3C16.6002 26 17.3002 27.6 18.1002 29.2C18.4002 29.9 18.9002 30.5 19.5002 31L19.9002 31.2C20.9002 31.4 21.4002 30.6 21.8002 29.9C22.3002 28.7 22.7002 27.5 23.0002 26.3C23.1002 26.1 23.1002 25.9 23.2002 25.6C23.3002 25.2 23.4002 24.7 23.5002 24.3L27.9002 12.6C28.8002 11.4 30.0002 10.4 31.4002 9.69998C32.7002 8.99998 34.2002 8.59998 35.7002 8.59998C37.9002 8.59998 40.0002 9.39998 41.7002 10.7C44.6002 12.9 46.3002 17.2 46.3002 17.2C46.5002 17.8 46.7002 18.4 46.7002 19C46.7002 19.6 46.6002 20.1 46.4002 20.7C46.1002 21.2 45.8002 21.7 45.5002 22.1C45.1002 22.5 44.6002 22.8 44.1002 23C43.6002 23.2 43.0002 23.3 42.4002 23.3C41.8002 23.3 41.2002 23.2 40.6002 22.9C40.0002 22.6 39.5002 22.2 39.1002 21.8C39.1002 21.8 39.1002 21.7 39.0002 21.7C38.7002 21.3 38.5002 20.9 38.3002 20.5C38.1002 20 37.8002 19.5 37.5002 19C37.3002 18.8 37.2002 18.5 37.0002 18.3C36.9002 18.1 36.7002 17.8 36.4002 17.7C36.0002 17.4 35.5002 17.3 35.1002 17.5L35.0002 17.4C34.5002 17.8 34.2002 18.3 34.0002 18.9C33.4002 20.4 32.9002 21.9 32.5002 23.5L32.3002 24.4L30.5002 30.3L28.0002 35.9C27.1002 37.1 25.9002 38 24.5002 38.7C23.2002 39.3 21.7002 39.7 20.2002 39.7C14.0002 39.8 11.1002 34.2 11.1002 34.2C7.60019 28.4 6.60019 20.8 6.30019 18.3C6.20019 18 6.2002 17.7 6.2002 17.4C6.2002 16.6 6.40019 15.9 6.80019 15.2C7.20019 14.5 7.70019 14 8.40019 13.6C9.10019 13.3 9.9002 13.1 10.7002 13.1C12.0002 13.2 13.2002 13.8 14.0002 14.9C14.5002 15.8 14.8002 16.7 14.8002 17.7C15.0002 20 15.5002 22.2 16.1002 24.3Z" fill="url(#paint5_radial_4_169)"/>
<path d="M16.1002 24.3C16.6002 26 17.3002 27.6 18.1002 29.2C18.4002 29.9 18.9002 30.5 19.5002 31L19.9002 31.2C20.9002 31.4 21.4002 30.6 21.8002 29.9C22.3002 28.7 22.7002 27.5 23.0002 26.3C23.1002 26.1 23.1002 25.9 23.2002 25.6C23.3002 25.2 23.4002 24.7 23.5002 24.3L27.9002 12.6C28.8002 11.4 30.0002 10.4 31.4002 9.69998C32.7002 8.99998 34.2002 8.59998 35.7002 8.59998C37.9002 8.59998 40.0002 9.39998 41.7002 10.7C44.6002 12.9 46.3002 17.2 46.3002 17.2C46.5002 17.8 46.7002 18.4 46.7002 19C46.7002 19.6 46.6002 20.1 46.4002 20.7C46.1002 21.2 45.8002 21.7 45.5002 22.1C45.1002 22.5 44.6002 22.8 44.1002 23C43.6002 23.2 43.0002 23.3 42.4002 23.3C41.8002 23.3 41.2002 23.2 40.6002 22.9C40.0002 22.6 39.5002 22.2 39.1002 21.8C39.1002 21.8 39.1002 21.7 39.0002 21.7C38.7002 21.3 38.5002 20.9 38.3002 20.5C38.1002 20 37.8002 19.5 37.5002 19C37.3002 18.8 37.2002 18.5 37.0002 18.3C36.9002 18.1 36.7002 17.8 36.4002 17.7C36.0002 17.4 35.5002 17.3 35.1002 17.5L35.0002 17.4C34.5002 17.8 34.2002 18.3 34.0002 18.9C33.4002 20.4 32.9002 21.9 32.5002 23.5L32.3002 24.4L30.5002 30.3L28.0002 35.9C27.1002 37.1 25.9002 38 24.5002 38.7C23.2002 39.3 21.7002 39.7 20.2002 39.7C14.0002 39.8 11.1002 34.2 11.1002 34.2C7.60019 28.4 6.60019 20.8 6.30019 18.3C6.20019 18 6.2002 17.7 6.2002 17.4C6.2002 16.6 6.40019 15.9 6.80019 15.2C7.20019 14.5 7.70019 14 8.40019 13.6C9.10019 13.3 9.9002 13.1 10.7002 13.1C12.0002 13.2 13.2002 13.8 14.0002 14.9C14.5002 15.8 14.8002 16.7 14.8002 17.7C15.0002 20 15.5002 22.2 16.1002 24.3Z" fill="url(#paint6_radial_4_169)"/>
<path d="M16.1002 24.3C16.6002 26 17.3002 27.6 18.1002 29.2C18.4002 29.9 18.9002 30.5 19.5002 31L19.9002 31.2C20.9002 31.4 21.4002 30.6 21.8002 29.9C22.3002 28.7 22.7002 27.5 23.0002 26.3C23.1002 26.1 23.1002 25.9 23.2002 25.6C23.3002 25.2 23.4002 24.7 23.5002 24.3L27.9002 12.6C28.8002 11.4 30.0002 10.4 31.4002 9.69998C32.7002 8.99998 34.2002 8.59998 35.7002 8.59998C37.9002 8.59998 40.0002 9.39998 41.7002 10.7C44.6002 12.9 46.3002 17.2 46.3002 17.2C46.5002 17.8 46.7002 18.4 46.7002 19C46.7002 19.6 46.6002 20.1 46.4002 20.7C46.1002 21.2 45.8002 21.7 45.5002 22.1C45.1002 22.5 44.6002 22.8 44.1002 23C43.6002 23.2 43.0002 23.3 42.4002 23.3C41.8002 23.3 41.2002 23.2 40.6002 22.9C40.0002 22.6 39.5002 22.2 39.1002 21.8C39.1002 21.8 39.1002 21.7 39.0002 21.7C38.7002 21.3 38.5002 20.9 38.3002 20.5C38.1002 20 37.8002 19.5 37.5002 19C37.3002 18.8 37.2002 18.5 37.0002 18.3C36.9002 18.1 36.7002 17.8 36.4002 17.7C36.0002 17.4 35.5002 17.3 35.1002 17.5L35.0002 17.4C34.5002 17.8 34.2002 18.3 34.0002 18.9C33.4002 20.4 32.9002 21.9 32.5002 23.5L32.3002 24.4L30.5002 30.3L28.0002 35.9C27.1002 37.1 25.9002 38 24.5002 38.7C23.2002 39.3 21.7002 39.7 20.2002 39.7C14.0002 39.8 11.1002 34.2 11.1002 34.2C7.60019 28.4 6.60019 20.8 6.30019 18.3C6.20019 18 6.2002 17.7 6.2002 17.4C6.2002 16.6 6.40019 15.9 6.80019 15.2C7.20019 14.5 7.70019 14 8.40019 13.6C9.10019 13.3 9.9002 13.1 10.7002 13.1C12.0002 13.2 13.2002 13.8 14.0002 14.9C14.5002 15.8 14.8002 16.7 14.8002 17.7C15.0002 20 15.5002 22.2 16.1002 24.3Z" fill="url(#paint7_radial_4_169)"/>
<path d="M16.1002 24.3C16.6002 26 17.3002 27.6 18.1002 29.2C18.4002 29.9 18.9002 30.5 19.5002 31L19.9002 31.2C20.9002 31.4 21.4002 30.6 21.8002 29.9C22.3002 28.7 22.7002 27.5 23.0002 26.3C23.1002 26.1 23.1002 25.9 23.2002 25.6C23.3002 25.2 23.4002 24.7 23.5002 24.3L27.9002 12.6C28.8002 11.4 30.0002 10.4 31.4002 9.69998C32.7002 8.99998 34.2002 8.59998 35.7002 8.59998C37.9002 8.59998 40.0002 9.39998 41.7002 10.7C44.6002 12.9 46.3002 17.2 46.3002 17.2C46.5002 17.8 46.7002 18.4 46.7002 19C46.7002 19.6 46.6002 20.1 46.4002 20.7C46.1002 21.2 45.8002 21.7 45.5002 22.1C45.1002 22.5 44.6002 22.8 44.1002 23C43.6002 23.2 43.0002 23.3 42.4002 23.3C41.8002 23.3 41.2002 23.2 40.6002 22.9C40.0002 22.6 39.5002 22.2 39.1002 21.8C39.1002 21.8 39.1002 21.7 39.0002 21.7C38.7002 21.3 38.5002 20.9 38.3002 20.5C38.1002 20 37.8002 19.5 37.5002 19C37.3002 18.8 37.2002 18.5 37.0002 18.3C36.9002 18.1 36.7002 17.8 36.4002 17.7C36.0002 17.4 35.5002 17.3 35.1002 17.5L35.0002 17.4C34.5002 17.8 34.2002 18.3 34.0002 18.9C33.4002 20.4 32.9002 21.9 32.5002 23.5L32.3002 24.4L30.5002 30.3L28.0002 35.9C27.1002 37.1 25.9002 38 24.5002 38.7C23.2002 39.3 21.7002 39.7 20.2002 39.7C14.0002 39.8 11.1002 34.2 11.1002 34.2C7.60019 28.4 6.60019 20.8 6.30019 18.3C6.20019 18 6.2002 17.7 6.2002 17.4C6.2002 16.6 6.40019 15.9 6.80019 15.2C7.20019 14.5 7.70019 14 8.40019 13.6C9.10019 13.3 9.9002 13.1 10.7002 13.1C12.0002 13.2 13.2002 13.8 14.0002 14.9C14.5002 15.8 14.8002 16.7 14.8002 17.7C15.0002 20 15.5002 22.2 16.1002 24.3Z" fill="url(#paint8_radial_4_169)"/>
<path d="M16.1002 24.3C16.6002 26 17.3002 27.6 18.1002 29.2C18.4002 29.9 18.9002 30.5 19.5002 31L19.9002 31.2C20.9002 31.4 21.4002 30.6 21.8002 29.9C22.3002 28.7 22.7002 27.5 23.0002 26.3C23.1002 26.1 23.1002 25.9 23.2002 25.6C23.3002 25.2 23.4002 24.7 23.5002 24.3L27.9002 12.6C28.8002 11.4 30.0002 10.4 31.4002 9.69998C32.7002 8.99998 34.2002 8.59998 35.7002 8.59998C37.9002 8.59998 40.0002 9.39998 41.7002 10.7C44.6002 12.9 46.3002 17.2 46.3002 17.2C46.5002 17.8 46.7002 18.4 46.7002 19C46.7002 19.6 46.6002 20.1 46.4002 20.7C46.1002 21.2 45.8002 21.7 45.5002 22.1C45.1002 22.5 44.6002 22.8 44.1002 23C43.6002 23.2 43.0002 23.3 42.4002 23.3C41.8002 23.3 41.2002 23.2 40.6002 22.9C40.0002 22.6 39.5002 22.2 39.1002 21.8C39.1002 21.8 39.1002 21.7 39.0002 21.7C38.7002 21.3 38.5002 20.9 38.3002 20.5C38.1002 20 37.8002 19.5 37.5002 19C37.3002 18.8 37.2002 18.5 37.0002 18.3C36.9002 18.1 36.7002 17.8 36.4002 17.7C36.0002 17.4 35.5002 17.3 35.1002 17.5L35.0002 17.4C34.5002 17.8 34.2002 18.3 34.0002 18.9C33.4002 20.4 32.9002 21.9 32.5002 23.5L32.3002 24.4L30.5002 30.3L28.0002 35.9C27.1002 37.1 25.9002 38 24.5002 38.7C23.2002 39.3 21.7002 39.7 20.2002 39.7C14.0002 39.8 11.1002 34.2 11.1002 34.2C7.60019 28.4 6.60019 20.8 6.30019 18.3C6.20019 18 6.2002 17.7 6.2002 17.4C6.2002 16.6 6.40019 15.9 6.80019 15.2C7.20019 14.5 7.70019 14 8.40019 13.6C9.10019 13.3 9.9002 13.1 10.7002 13.1C12.0002 13.2 13.2002 13.8 14.0002 14.9C14.5002 15.8 14.8002 16.7 14.8002 17.7C15.0002 20 15.5002 22.2 16.1002 24.3Z" fill="url(#paint9_radial_4_169)"/>
<path d="M16.1002 24.3C16.6002 26 17.3002 27.6 18.1002 29.2C18.4002 29.9 18.9002 30.5 19.5002 31L19.9002 31.2C20.9002 31.4 21.4002 30.6 21.8002 29.9C22.3002 28.7 22.7002 27.5 23.0002 26.3C23.1002 26.1 23.1002 25.9 23.2002 25.6C23.3002 25.2 23.4002 24.7 23.5002 24.3L27.9002 12.6C28.8002 11.4 30.0002 10.4 31.4002 9.69998C32.7002 8.99998 34.2002 8.59998 35.7002 8.59998C37.9002 8.59998 40.0002 9.39998 41.7002 10.7C44.6002 12.9 46.3002 17.2 46.3002 17.2C46.5002 17.8 46.7002 18.4 46.7002 19C46.7002 19.6 46.6002 20.1 46.4002 20.7C46.1002 21.2 45.8002 21.7 45.5002 22.1C45.1002 22.5 44.6002 22.8 44.1002 23C43.6002 23.2 43.0002 23.3 42.4002 23.3C41.8002 23.3 41.2002 23.2 40.6002 22.9C40.0002 22.6 39.5002 22.2 39.1002 21.8C39.1002 21.8 39.1002 21.7 39.0002 21.7C38.7002 21.3 38.5002 20.9 38.3002 20.5C38.1002 20 37.8002 19.5 37.5002 19C37.3002 18.8 37.2002 18.5 37.0002 18.3C36.9002 18.1 36.7002 17.8 36.4002 17.7C36.0002 17.4 35.5002 17.3 35.1002 17.5L35.0002 17.4C34.5002 17.8 34.2002 18.3 34.0002 18.9C33.4002 20.4 32.9002 21.9 32.5002 23.5L32.3002 24.4L30.5002 30.3L28.0002 35.9C27.1002 37.1 25.9002 38 24.5002 38.7C23.2002 39.3 21.7002 39.7 20.2002 39.7C14.0002 39.8 11.1002 34.2 11.1002 34.2C7.60019 28.4 6.60019 20.8 6.30019 18.3C6.20019 18 6.2002 17.7 6.2002 17.4C6.2002 16.6 6.40019 15.9 6.80019 15.2C7.20019 14.5 7.70019 14 8.40019 13.6C9.10019 13.3 9.9002 13.1 10.7002 13.1C12.0002 13.2 13.2002 13.8 14.0002 14.9C14.5002 15.8 14.8002 16.7 14.8002 17.7C15.0002 20 15.5002 22.2 16.1002 24.3Z" fill="url(#paint10_radial_4_169)"/>
<path d="M16.1002 24.3C16.6002 26 17.3002 27.6 18.1002 29.2C18.4002 29.9 18.9002 30.5 19.5002 31L19.9002 31.2C20.9002 31.4 21.4002 30.6 21.8002 29.9C22.3002 28.7 22.7002 27.5 23.0002 26.3C23.1002 26.1 23.1002 25.9 23.2002 25.6C23.3002 25.2 23.4002 24.7 23.5002 24.3L27.9002 12.6C28.8002 11.4 30.0002 10.4 31.4002 9.69998C32.7002 8.99998 34.2002 8.59998 35.7002 8.59998C37.9002 8.59998 40.0002 9.39998 41.7002 10.7C44.6002 12.9 46.3002 17.2 46.3002 17.2C46.5002 17.8 46.7002 18.4 46.7002 19C46.7002 19.6 46.6002 20.1 46.4002 20.7C46.1002 21.2 45.8002 21.7 45.5002 22.1C45.1002 22.5 44.6002 22.8 44.1002 23C43.6002 23.2 43.0002 23.3 42.4002 23.3C41.8002 23.3 41.2002 23.2 40.6002 22.9C40.0002 22.6 39.5002 22.2 39.1002 21.8C39.1002 21.8 39.1002 21.7 39.0002 21.7C38.7002 21.3 38.5002 20.9 38.3002 20.5C38.1002 20 37.8002 19.5 37.5002 19C37.3002 18.8 37.2002 18.5 37.0002 18.3C36.9002 18.1 36.7002 17.8 36.4002 17.7C36.0002 17.4 35.5002 17.3 35.1002 17.5L35.0002 17.4C34.5002 17.8 34.2002 18.3 34.0002 18.9C33.4002 20.4 32.9002 21.9 32.5002 23.5L32.3002 24.4L30.5002 30.3L28.0002 35.9C27.1002 37.1 25.9002 38 24.5002 38.7C23.2002 39.3 21.7002 39.7 20.2002 39.7C14.0002 39.8 11.1002 34.2 11.1002 34.2C7.60019 28.4 6.60019 20.8 6.30019 18.3C6.20019 18 6.2002 17.7 6.2002 17.4C6.2002 16.6 6.40019 15.9 6.80019 15.2C7.20019 14.5 7.70019 14 8.40019 13.6C9.10019 13.3 9.9002 13.1 10.7002 13.1C12.0002 13.2 13.2002 13.8 14.0002 14.9C14.5002 15.8 14.8002 16.7 14.8002 17.7C15.0002 20 15.5002 22.2 16.1002 24.3Z" fill="url(#paint11_radial_4_169)"/>
<path d="M16.1002 24.3C16.6002 26 17.3002 27.6 18.1002 29.2C18.4002 29.9 18.9002 30.5 19.5002 31L19.9002 31.2C20.9002 31.4 21.4002 30.6 21.8002 29.9C22.3002 28.7 22.7002 27.5 23.0002 26.3C23.1002 26.1 23.1002 25.9 23.2002 25.6C23.3002 25.2 23.4002 24.7 23.5002 24.3L27.9002 12.6C28.8002 11.4 30.0002 10.4 31.4002 9.69998C32.7002 8.99998 34.2002 8.59998 35.7002 8.59998C37.9002 8.59998 40.0002 9.39998 41.7002 10.7C44.6002 12.9 46.3002 17.2 46.3002 17.2C46.5002 17.8 46.7002 18.4 46.7002 19C46.7002 19.6 46.6002 20.1 46.4002 20.7C46.1002 21.2 45.8002 21.7 45.5002 22.1C45.1002 22.5 44.6002 22.8 44.1002 23C43.6002 23.2 43.0002 23.3 42.4002 23.3C41.8002 23.3 41.2002 23.2 40.6002 22.9C40.0002 22.6 39.5002 22.2 39.1002 21.8C39.1002 21.8 39.1002 21.7 39.0002 21.7C38.7002 21.3 38.5002 20.9 38.3002 20.5C38.1002 20 37.8002 19.5 37.5002 19C37.3002 18.8 37.2002 18.5 37.0002 18.3C36.9002 18.1 36.7002 17.8 36.4002 17.7C36.0002 17.4 35.5002 17.3 35.1002 17.5L35.0002 17.4C34.5002 17.8 34.2002 18.3 34.0002 18.9C33.4002 20.4 32.9002 21.9 32.5002 23.5L32.3002 24.4L30.5002 30.3L28.0002 35.9C27.1002 37.1 25.9002 38 24.5002 38.7C23.2002 39.3 21.7002 39.7 20.2002 39.7C14.0002 39.8 11.1002 34.2 11.1002 34.2C7.60019 28.4 6.60019 20.8 6.30019 18.3C6.20019 18 6.2002 17.7 6.2002 17.4C6.2002 16.6 6.40019 15.9 6.80019 15.2C7.20019 14.5 7.70019 14 8.40019 13.6C9.10019 13.3 9.9002 13.1 10.7002 13.1C12.0002 13.2 13.2002 13.8 14.0002 14.9C14.5002 15.8 14.8002 16.7 14.8002 17.7C15.0002 20 15.5002 22.2 16.1002 24.3Z" fill="url(#paint12_radial_4_169)"/>
<path d="M16.1002 24.3C16.6002 26 17.3002 27.6 18.1002 29.2C18.4002 29.9 18.9002 30.5 19.5002 31L19.9002 31.2C20.9002 31.4 21.4002 30.6 21.8002 29.9C22.3002 28.7 22.7002 27.5 23.0002 26.3C23.1002 26.1 23.1002 25.9 23.2002 25.6C23.3002 25.2 23.4002 24.7 23.5002 24.3L27.9002 12.6C28.8002 11.4 30.0002 10.4 31.4002 9.69998C32.7002 8.99998 34.2002 8.59998 35.7002 8.59998C37.9002 8.59998 40.0002 9.39998 41.7002 10.7C44.6002 12.9 46.3002 17.2 46.3002 17.2C46.5002 17.8 46.7002 18.4 46.7002 19C46.7002 19.6 46.6002 20.1 46.4002 20.7C46.1002 21.2 45.8002 21.7 45.5002 22.1C45.1002 22.5 44.6002 22.8 44.1002 23C43.6002 23.2 43.0002 23.3 42.4002 23.3C41.8002 23.3 41.2002 23.2 40.6002 22.9C40.0002 22.6 39.5002 22.2 39.1002 21.8C39.1002 21.8 39.1002 21.7 39.0002 21.7C38.7002 21.3 38.5002 20.9 38.3002 20.5C38.1002 20 37.8002 19.5 37.5002 19C37.3002 18.8 37.2002 18.5 37.0002 18.3C36.9002 18.1 36.7002 17.8 36.4002 17.7C36.0002 17.4 35.5002 17.3 35.1002 17.5L35.0002 17.4C34.5002 17.8 34.2002 18.3 34.0002 18.9C33.4002 20.4 32.9002 21.9 32.5002 23.5L32.3002 24.4L30.5002 30.3L28.0002 35.9C27.1002 37.1 25.9002 38 24.5002 38.7C23.2002 39.3 21.7002 39.7 20.2002 39.7C14.0002 39.8 11.1002 34.2 11.1002 34.2C7.60019 28.4 6.60019 20.8 6.30019 18.3C6.20019 18 6.2002 17.7 6.2002 17.4C6.2002 16.6 6.40019 15.9 6.80019 15.2C7.20019 14.5 7.70019 14 8.40019 13.6C9.10019 13.3 9.9002 13.1 10.7002 13.1C12.0002 13.2 13.2002 13.8 14.0002 14.9C14.5002 15.8 14.8002 16.7 14.8002 17.7C15.0002 20 15.5002 22.2 16.1002 24.3Z" fill="url(#paint13_radial_4_169)"/>
<path d="M16.1002 24.3C16.6002 26 17.3002 27.6 18.1002 29.2C18.4002 29.9 18.9002 30.5 19.5002 31L19.9002 31.2C20.9002 31.4 21.4002 30.6 21.8002 29.9C22.3002 28.7 22.7002 27.5 23.0002 26.3C23.1002 26.1 23.1002 25.9 23.2002 25.6C23.3002 25.2 23.4002 24.7 23.5002 24.3L27.9002 12.6C28.8002 11.4 30.0002 10.4 31.4002 9.69998C32.7002 8.99998 34.2002 8.59998 35.7002 8.59998C37.9002 8.59998 40.0002 9.39998 41.7002 10.7C44.6002 12.9 46.3002 17.2 46.3002 17.2C46.5002 17.8 46.7002 18.4 46.7002 19C46.7002 19.6 46.6002 20.1 46.4002 20.7C46.1002 21.2 45.8002 21.7 45.5002 22.1C45.1002 22.5 44.6002 22.8 44.1002 23C43.6002 23.2 43.0002 23.3 42.4002 23.3C41.8002 23.3 41.2002 23.2 40.6002 22.9C40.0002 22.6 39.5002 22.2 39.1002 21.8C39.1002 21.8 39.1002 21.7 39.0002 21.7C38.7002 21.3 38.5002 20.9 38.3002 20.5C38.1002 20 37.8002 19.5 37.5002 19C37.3002 18.8 37.2002 18.5 37.0002 18.3C36.9002 18.1 36.7002 17.8 36.4002 17.7C36.0002 17.4 35.5002 17.3 35.1002 17.5L35.0002 17.4C34.5002 17.8 34.2002 18.3 34.0002 18.9C33.4002 20.4 32.9002 21.9 32.5002 23.5L32.3002 24.4L30.5002 30.3L28.0002 35.9C27.1002 37.1 25.9002 38 24.5002 38.7C23.2002 39.3 21.7002 39.7 20.2002 39.7C14.0002 39.8 11.1002 34.2 11.1002 34.2C7.60019 28.4 6.60019 20.8 6.30019 18.3C6.20019 18 6.2002 17.7 6.2002 17.4C6.2002 16.6 6.40019 15.9 6.80019 15.2C7.20019 14.5 7.70019 14 8.40019 13.6C9.10019 13.3 9.9002 13.1 10.7002 13.1C12.0002 13.2 13.2002 13.8 14.0002 14.9C14.5002 15.8 14.8002 16.7 14.8002 17.7C15.0002 20 15.5002 22.2 16.1002 24.3Z" fill="url(#paint14_radial_4_169)"/>
<path d="M16.1002 24.3C16.6002 26 17.3002 27.6 18.1002 29.2C18.4002 29.9 18.9002 30.5 19.5002 31L19.9002 31.2C20.9002 31.4 21.4002 30.6 21.8002 29.9C22.3002 28.7 22.7002 27.5 23.0002 26.3C23.1002 26.1 23.1002 25.9 23.2002 25.6C23.3002 25.2 23.4002 24.7 23.5002 24.3L27.9002 12.6C28.8002 11.4 30.0002 10.4 31.4002 9.69998C32.7002 8.99998 34.2002 8.59998 35.7002 8.59998C37.9002 8.59998 40.0002 9.39998 41.7002 10.7C44.6002 12.9 46.3002 17.2 46.3002 17.2C46.5002 17.8 46.7002 18.4 46.7002 19C46.7002 19.6 46.6002 20.1 46.4002 20.7C46.1002 21.2 45.8002 21.7 45.5002 22.1C45.1002 22.5 44.6002 22.8 44.1002 23C43.6002 23.2 43.0002 23.3 42.4002 23.3C41.8002 23.3 41.2002 23.2 40.6002 22.9C40.0002 22.6 39.5002 22.2 39.1002 21.8C39.1002 21.8 39.1002 21.7 39.0002 21.7C38.7002 21.3 38.5002 20.9 38.3002 20.5C38.1002 20 37.8002 19.5 37.5002 19C37.3002 18.8 37.2002 18.5 37.0002 18.3C36.9002 18.1 36.7002 17.8 36.4002 17.7C36.0002 17.4 35.5002 17.3 35.1002 17.5L35.0002 17.4C34.5002 17.8 34.2002 18.3 34.0002 18.9C33.4002 20.4 32.9002 21.9 32.5002 23.5L32.3002 24.4L30.5002 30.3L28.0002 35.9C27.1002 37.1 25.9002 38 24.5002 38.7C23.2002 39.3 21.7002 39.7 20.2002 39.7C14.0002 39.8 11.1002 34.2 11.1002 34.2C7.60019 28.4 6.60019 20.8 6.30019 18.3C6.20019 18 6.2002 17.7 6.2002 17.4C6.2002 16.6 6.40019 15.9 6.80019 15.2C7.20019 14.5 7.70019 14 8.40019 13.6C9.10019 13.3 9.9002 13.1 10.7002 13.1C12.0002 13.2 13.2002 13.8 14.0002 14.9C14.5002 15.8 14.8002 16.7 14.8002 17.7C15.0002 20 15.5002 22.2 16.1002 24.3Z" fill="url(#paint15_radial_4_169)"/>
<path d="M16.1002 24.3C16.6002 26 17.3002 27.6 18.1002 29.2C18.4002 29.9 18.9002 30.5 19.5002 31L19.9002 31.2C20.9002 31.4 21.4002 30.6 21.8002 29.9C22.3002 28.7 22.7002 27.5 23.0002 26.3C23.1002 26.1 23.1002 25.9 23.2002 25.6C23.3002 25.2 23.4002 24.7 23.5002 24.3L27.9002 12.6C28.8002 11.4 30.0002 10.4 31.4002 9.69998C32.7002 8.99998 34.2002 8.59998 35.7002 8.59998C37.9002 8.59998 40.0002 9.39998 41.7002 10.7C44.6002 12.9 46.3002 17.2 46.3002 17.2C46.5002 17.8 46.7002 18.4 46.7002 19C46.7002 19.6 46.6002 20.1 46.4002 20.7C46.1002 21.2 45.8002 21.7 45.5002 22.1C45.1002 22.5 44.6002 22.8 44.1002 23C43.6002 23.2 43.0002 23.3 42.4002 23.3C41.8002 23.3 41.2002 23.2 40.6002 22.9C40.0002 22.6 39.5002 22.2 39.1002 21.8C39.1002 21.8 39.1002 21.7 39.0002 21.7C38.7002 21.3 38.5002 20.9 38.3002 20.5C38.1002 20 37.8002 19.5 37.5002 19C37.3002 18.8 37.2002 18.5 37.0002 18.3C36.9002 18.1 36.7002 17.8 36.4002 17.7C36.0002 17.4 35.5002 17.3 35.1002 17.5L35.0002 17.4C34.5002 17.8 34.2002 18.3 34.0002 18.9C33.4002 20.4 32.9002 21.9 32.5002 23.5L32.3002 24.4L30.5002 30.3L28.0002 35.9C27.1002 37.1 25.9002 38 24.5002 38.7C23.2002 39.3 21.7002 39.7 20.2002 39.7C14.0002 39.8 11.1002 34.2 11.1002 34.2C7.60019 28.4 6.60019 20.8 6.30019 18.3C6.20019 18 6.2002 17.7 6.2002 17.4C6.2002 16.6 6.40019 15.9 6.80019 15.2C7.20019 14.5 7.70019 14 8.40019 13.6C9.10019 13.3 9.9002 13.1 10.7002 13.1C12.0002 13.2 13.2002 13.8 14.0002 14.9C14.5002 15.8 14.8002 16.7 14.8002 17.7C15.0002 20 15.5002 22.2 16.1002 24.3Z" fill="url(#paint16_linear_4_169)"/>
<path d="M16.1002 24.3C16.6002 26 17.3002 27.6 18.1002 29.2C18.4002 29.9 18.9002 30.5 19.5002 31L19.9002 31.2C20.9002 31.4 21.4002 30.6 21.8002 29.9C22.3002 28.7 22.7002 27.5 23.0002 26.3C23.1002 26.1 23.1002 25.9 23.2002 25.6C23.3002 25.2 23.4002 24.7 23.5002 24.3L27.9002 12.6C28.8002 11.4 30.0002 10.4 31.4002 9.69998C32.7002 8.99998 34.2002 8.59998 35.7002 8.59998C37.9002 8.59998 40.0002 9.39998 41.7002 10.7C44.6002 12.9 46.3002 17.2 46.3002 17.2C46.5002 17.8 46.7002 18.4 46.7002 19C46.7002 19.6 46.6002 20.1 46.4002 20.7C46.1002 21.2 45.8002 21.7 45.5002 22.1C45.1002 22.5 44.6002 22.8 44.1002 23C43.6002 23.2 43.0002 23.3 42.4002 23.3C41.8002 23.3 41.2002 23.2 40.6002 22.9C40.0002 22.6 39.5002 22.2 39.1002 21.8C39.1002 21.8 39.1002 21.7 39.0002 21.7C38.7002 21.3 38.5002 20.9 38.3002 20.5C38.1002 20 37.8002 19.5 37.5002 19C37.3002 18.8 37.2002 18.5 37.0002 18.3C36.9002 18.1 36.7002 17.8 36.4002 17.7C36.0002 17.4 35.5002 17.3 35.1002 17.5L35.0002 17.4C34.5002 17.8 34.2002 18.3 34.0002 18.9C33.4002 20.4 32.9002 21.9 32.5002 23.5L32.3002 24.4L30.5002 30.3L28.0002 35.9C27.1002 37.1 25.9002 38 24.5002 38.7C23.2002 39.3 21.7002 39.7 20.2002 39.7C14.0002 39.8 11.1002 34.2 11.1002 34.2C7.60019 28.4 6.60019 20.8 6.30019 18.3C6.20019 18 6.2002 17.7 6.2002 17.4C6.2002 16.6 6.40019 15.9 6.80019 15.2C7.20019 14.5 7.70019 14 8.40019 13.6C9.10019 13.3 9.9002 13.1 10.7002 13.1C12.0002 13.2 13.2002 13.8 14.0002 14.9C14.5002 15.8 14.8002 16.7 14.8002 17.7C15.0002 20 15.5002 22.2 16.1002 24.3Z" fill="url(#paint17_linear_4_169)"/>
<path d="M16.1002 24.3C16.6002 26 17.3002 27.6 18.1002 29.2C18.4002 29.9 18.9002 30.5 19.5002 31L19.9002 31.2C20.9002 31.4 21.4002 30.6 21.8002 29.9C22.3002 28.7 22.7002 27.5 23.0002 26.3C23.1002 26.1 23.1002 25.9 23.2002 25.6C23.3002 25.2 23.4002 24.7 23.5002 24.3L27.9002 12.6C28.8002 11.4 30.0002 10.4 31.4002 9.69998C32.7002 8.99998 34.2002 8.59998 35.7002 8.59998C37.9002 8.59998 40.0002 9.39998 41.7002 10.7C44.6002 12.9 46.3002 17.2 46.3002 17.2C46.5002 17.8 46.7002 18.4 46.7002 19C46.7002 19.6 46.6002 20.1 46.4002 20.7C46.1002 21.2 45.8002 21.7 45.5002 22.1C45.1002 22.5 44.6002 22.8 44.1002 23C43.6002 23.2 43.0002 23.3 42.4002 23.3C41.8002 23.3 41.2002 23.2 40.6002 22.9C40.0002 22.6 39.5002 22.2 39.1002 21.8C39.1002 21.8 39.1002 21.7 39.0002 21.7C38.7002 21.3 38.5002 20.9 38.3002 20.5C38.1002 20 37.8002 19.5 37.5002 19C37.3002 18.8 37.2002 18.5 37.0002 18.3C36.9002 18.1 36.7002 17.8 36.4002 17.7C36.0002 17.4 35.5002 17.3 35.1002 17.5L35.0002 17.4C34.5002 17.8 34.2002 18.3 34.0002 18.9C33.4002 20.4 32.9002 21.9 32.5002 23.5L32.3002 24.4L30.5002 30.3L28.0002 35.9C27.1002 37.1 25.9002 38 24.5002 38.7C23.2002 39.3 21.7002 39.7 20.2002 39.7C14.0002 39.8 11.1002 34.2 11.1002 34.2C7.60019 28.4 6.60019 20.8 6.30019 18.3C6.20019 18 6.2002 17.7 6.2002 17.4C6.2002 16.6 6.40019 15.9 6.80019 15.2C7.20019 14.5 7.70019 14 8.40019 13.6C9.10019 13.3 9.9002 13.1 10.7002 13.1C12.0002 13.2 13.2002 13.8 14.0002 14.9C14.5002 15.8 14.8002 16.7 14.8002 17.7C15.0002 20 15.5002 22.2 16.1002 24.3Z" fill="url(#paint18_linear_4_169)"/>
<path d="M16.1002 24.3C16.6002 26 17.3002 27.6 18.1002 29.2C18.4002 29.9 18.9002 30.5 19.5002 31L19.9002 31.2C20.9002 31.4 21.4002 30.6 21.8002 29.9C22.3002 28.7 22.7002 27.5 23.0002 26.3C23.1002 26.1 23.1002 25.9 23.2002 25.6C23.3002 25.2 23.4002 24.7 23.5002 24.3L27.9002 12.6C28.8002 11.4 30.0002 10.4 31.4002 9.69998C32.7002 8.99998 34.2002 8.59998 35.7002 8.59998C37.9002 8.59998 40.0002 9.39998 41.7002 10.7C44.6002 12.9 46.3002 17.2 46.3002 17.2C46.5002 17.8 46.7002 18.4 46.7002 19C46.7002 19.6 46.6002 20.1 46.4002 20.7C46.1002 21.2 45.8002 21.7 45.5002 22.1C45.1002 22.5 44.6002 22.8 44.1002 23C43.6002 23.2 43.0002 23.3 42.4002 23.3C41.8002 23.3 41.2002 23.2 40.6002 22.9C40.0002 22.6 39.5002 22.2 39.1002 21.8C39.1002 21.8 39.1002 21.7 39.0002 21.7C38.7002 21.3 38.5002 20.9 38.3002 20.5C38.1002 20 37.8002 19.5 37.5002 19C37.3002 18.8 37.2002 18.5 37.0002 18.3C36.9002 18.1 36.7002 17.8 36.4002 17.7C36.0002 17.4 35.5002 17.3 35.1002 17.5L35.0002 17.4C34.5002 17.8 34.2002 18.3 34.0002 18.9C33.4002 20.4 32.9002 21.9 32.5002 23.5L32.3002 24.4L30.5002 30.3L28.0002 35.9C27.1002 37.1 25.9002 38 24.5002 38.7C23.2002 39.3 21.7002 39.7 20.2002 39.7C14.0002 39.8 11.1002 34.2 11.1002 34.2C7.60019 28.4 6.60019 20.8 6.30019 18.3C6.20019 18 6.2002 17.7 6.2002 17.4C6.2002 16.6 6.40019 15.9 6.80019 15.2C7.20019 14.5 7.70019 14 8.40019 13.6C9.10019 13.3 9.9002 13.1 10.7002 13.1C12.0002 13.2 13.2002 13.8 14.0002 14.9C14.5002 15.8 14.8002 16.7 14.8002 17.7C15.0002 20 15.5002 22.2 16.1002 24.3Z" fill="white"/>
<path d="M25.1002 19.9L27.9002 12.5C28.8002 11.3 30.0002 10.3 31.4002 9.59998C32.8002 8.99998 34.3002 8.59998 35.8002 8.59998C38.0002 8.59998 40.1002 9.39998 41.8002 10.7C44.7002 12.9 46.4002 17.2 46.4002 17.2C46.6002 17.8 46.8002 18.4 46.8002 19C46.8002 19.6 46.7002 20.1 46.5002 20.7C46.2002 21.2 45.9002 21.7 45.6002 22.1C45.2002 22.5 44.7002 22.8 44.2002 23C43.7002 23.2 43.1002 23.3 42.5002 23.3C41.9002 23.3 41.3002 23.2 40.7002 22.9C40.1002 22.6 39.6002 22.2 39.2002 21.8C39.2002 21.8 39.2002 21.7 39.1002 21.7C38.8002 21.3 38.6002 20.9 38.4002 20.5C38.2002 20 37.9002 19.5 37.6002 19C37.4002 18.8 37.3002 18.5 37.1002 18.3C37.0002 18.1 36.8002 17.8 36.5002 17.7C36.1002 17.4 35.6002 17.3 35.2002 17.5L35.0002 17.4C34.5002 17.8 34.2002 18.3 34.0002 18.9C33.4002 20.4 32.9002 21.9 32.5002 23.5L32.3002 24.4L30.5002 30.3L25.1002 19.9Z" fill="white"/>
<path d="M45.3002 13.3C45.0002 13.3 44.6002 13.4 44.3002 13.4C45.1002 14.6 45.8002 15.8 46.3002 17.1C46.5002 17.7 46.7002 18.3 46.7002 18.9C46.7002 19.5 46.6002 20 46.4002 20.6C46.1002 21.1 45.8002 21.6 45.5002 22C45.1002 22.4 44.6002 22.8 44.1002 22.9C43.6002 23.1 43.0002 23.2 42.4002 23.2C41.6002 23.2 40.9002 23 40.2002 22.6L39.8002 24.3C39.5002 25.6 39.0002 26.8 38.4002 28C38.1002 28.7 37.7002 29.4 37.3002 30.1C37.0002 30.5 36.6002 30.9 36.1002 31.1C35.9002 31.1 35.7002 31.2 35.6002 31.2C35.4002 31.2 35.2002 31.1 35.0002 31C34.7002 30.7 34.4002 30.4 34.2002 30C34.0002 29.6 33.8002 29.2 33.6002 28.7C33.2002 27.8 32.6002 25.5 32.6002 25.5L32.0002 23.1L31.4002 20.7L31.0002 19.1C30.5002 16.9 29.6002 14.8 28.3002 12.9C27.1002 11.1 25.3002 9.79997 23.3002 9.09997C21.8002 8.59997 20.1002 8.49997 18.5002 8.69997C15.7002 9.29997 13.3002 11 11.7002 13.4C12.1002 13.5 12.5002 13.7 12.9002 13.9C13.4002 14.2 13.8002 14.6 14.1002 15C14.6002 15.9 14.9002 16.8 14.9002 17.8C15.1002 19.9 15.5002 22.1 16.1002 24.1C16.7002 21.8 17.7002 19.7 19.0002 17.7C19.2002 17.5 19.4002 17.3 19.6002 17.1C19.7002 17 19.9002 17 20.0002 17C20.3002 17 20.5002 17.1 20.7002 17.2C20.8002 17.2 20.8002 17.3 20.8002 17.3C21.0002 17.5 21.2002 17.7 21.4002 17.9C21.7002 18.5 22.0002 19.1 22.3002 19.7C22.8002 21.1 23.2002 22.8 23.2002 22.8L24.4002 27.7C24.8002 29.4 25.4002 31.1 26.1002 32.7C28.0002 37.1 30.9002 38.3 30.9002 38.3C32.3002 39 33.9002 39.5 35.5002 39.5C37.0002 39.6 38.6002 39.2 39.9002 38.6C41.4002 37.8 42.7002 36.8 43.8002 35.5C44.4002 34.6 45.0002 33.7 45.5002 32.7C46.7002 30.4 47.5002 28 48.2002 25.5C48.6002 24 49.0002 22.4 49.2002 20.8C49.3002 20 49.4002 19.3 49.5002 18.5C49.6002 17.8 49.6002 17 49.4002 16.3C49.3002 16.2 49.3002 16.1 49.3002 15.9C48.9002 15 48.3002 14.2 47.4002 13.7C46.8002 13.5 46.0002 13.3 45.3002 13.3Z" fill="url(#paint19_linear_4_169)"/>
<path d="M45.3002 13.3C45.0002 13.3 44.6002 13.4 44.3002 13.4C45.1002 14.6 45.8002 15.8 46.3002 17.1C46.5002 17.7 46.7002 18.3 46.7002 18.9C46.7002 19.5 46.6002 20 46.4002 20.6C46.1002 21.1 45.8002 21.6 45.5002 22C45.1002 22.4 44.6002 22.8 44.1002 22.9C43.6002 23.1 43.0002 23.2 42.4002 23.2C41.6002 23.2 40.9002 23 40.2002 22.6L39.8002 24.3C39.5002 25.6 39.0002 26.8 38.4002 28C38.1002 28.7 37.7002 29.4 37.3002 30.1C37.0002 30.5 36.6002 30.9 36.1002 31.1C35.9002 31.1 35.7002 31.2 35.6002 31.2C35.4002 31.2 35.2002 31.1 35.0002 31C34.7002 30.7 34.4002 30.4 34.2002 30C34.0002 29.6 33.8002 29.2 33.6002 28.7C33.2002 27.8 32.6002 25.5 32.6002 25.5L32.0002 23.1L31.4002 20.7L31.0002 19.1C30.5002 16.9 29.6002 14.8 28.3002 12.9C27.1002 11.1 25.3002 9.79997 23.3002 9.09997C21.8002 8.59997 20.1002 8.49997 18.5002 8.69997C15.7002 9.29997 13.3002 11 11.7002 13.4C12.1002 13.5 12.5002 13.7 12.9002 13.9C13.4002 14.2 13.8002 14.6 14.1002 15C14.6002 15.9 14.9002 16.8 14.9002 17.8C15.1002 19.9 15.5002 22.1 16.1002 24.1C16.7002 21.8 17.7002 19.7 19.0002 17.7C19.2002 17.5 19.4002 17.3 19.6002 17.1C19.7002 17 19.9002 17 20.0002 17C20.3002 17 20.5002 17.1 20.7002 17.2C20.8002 17.2 20.8002 17.3 20.8002 17.3C21.0002 17.5 21.2002 17.7 21.4002 17.9C21.7002 18.5 22.0002 19.1 22.3002 19.7C22.8002 21.1 23.2002 22.8 23.2002 22.8L24.4002 27.7C24.8002 29.4 25.4002 31.1 26.1002 32.7C28.0002 37.1 30.9002 38.3 30.9002 38.3C32.3002 39 33.9002 39.5 35.5002 39.5C37.0002 39.6 38.6002 39.2 39.9002 38.6C41.4002 37.8 42.7002 36.8 43.8002 35.5C44.4002 34.6 45.0002 33.7 45.5002 32.7C46.7002 30.4 47.5002 28 48.2002 25.5C48.6002 24 49.0002 22.4 49.2002 20.8C49.3002 20 49.4002 19.3 49.5002 18.5C49.6002 17.8 49.6002 17 49.4002 16.3C49.3002 16.2 49.3002 16.1 49.3002 15.9C48.9002 15 48.3002 14.2 47.4002 13.7C46.8002 13.5 46.0002 13.3 45.3002 13.3Z" fill="url(#paint20_radial_4_169)"/>
<path d="M45.3002 13.3C45.0002 13.3 44.6002 13.4 44.3002 13.4C45.1002 14.6 45.8002 15.8 46.3002 17.1C46.5002 17.7 46.7002 18.3 46.7002 18.9C46.7002 19.5 46.6002 20 46.4002 20.6C46.1002 21.1 45.8002 21.6 45.5002 22C45.1002 22.4 44.6002 22.8 44.1002 22.9C43.6002 23.1 43.0002 23.2 42.4002 23.2C41.6002 23.2 40.9002 23 40.2002 22.6L39.8002 24.3C39.5002 25.6 39.0002 26.8 38.4002 28C38.1002 28.7 37.7002 29.4 37.3002 30.1C37.0002 30.5 36.6002 30.9 36.1002 31.1C35.9002 31.1 35.7002 31.2 35.6002 31.2C35.4002 31.2 35.2002 31.1 35.0002 31C34.7002 30.7 34.4002 30.4 34.2002 30C34.0002 29.6 33.8002 29.2 33.6002 28.7C33.2002 27.8 32.6002 25.5 32.6002 25.5L32.0002 23.1L31.4002 20.7L31.0002 19.1C30.5002 16.9 29.6002 14.8 28.3002 12.9C27.1002 11.1 25.3002 9.79997 23.3002 9.09997C21.8002 8.59997 20.1002 8.49997 18.5002 8.69997C15.7002 9.29997 13.3002 11 11.7002 13.4C12.1002 13.5 12.5002 13.7 12.9002 13.9C13.4002 14.2 13.8002 14.6 14.1002 15C14.6002 15.9 14.9002 16.8 14.9002 17.8C15.1002 19.9 15.5002 22.1 16.1002 24.1C16.7002 21.8 17.7002 19.7 19.0002 17.7C19.2002 17.5 19.4002 17.3 19.6002 17.1C19.7002 17 19.9002 17 20.0002 17C20.3002 17 20.5002 17.1 20.7002 17.2C20.8002 17.2 20.8002 17.3 20.8002 17.3C21.0002 17.5 21.2002 17.7 21.4002 17.9C21.7002 18.5 22.0002 19.1 22.3002 19.7C22.8002 21.1 23.2002 22.8 23.2002 22.8L24.4002 27.7C24.8002 29.4 25.4002 31.1 26.1002 32.7C28.0002 37.1 30.9002 38.3 30.9002 38.3C32.3002 39 33.9002 39.5 35.5002 39.5C37.0002 39.6 38.6002 39.2 39.9002 38.6C41.4002 37.8 42.7002 36.8 43.8002 35.5C44.4002 34.6 45.0002 33.7 45.5002 32.7C46.7002 30.4 47.5002 28 48.2002 25.5C48.6002 24 49.0002 22.4 49.2002 20.8C49.3002 20 49.4002 19.3 49.5002 18.5C49.6002 17.8 49.6002 17 49.4002 16.3C49.3002 16.2 49.3002 16.1 49.3002 15.9C48.9002 15 48.3002 14.2 47.4002 13.7C46.8002 13.5 46.0002 13.3 45.3002 13.3Z" fill="url(#paint21_radial_4_169)"/>
<path d="M45.3002 13.3C45.0002 13.3 44.6002 13.4 44.3002 13.4C45.1002 14.6 45.8002 15.8 46.3002 17.1C46.5002 17.7 46.7002 18.3 46.7002 18.9C46.7002 19.5 46.6002 20 46.4002 20.6C46.1002 21.1 45.8002 21.6 45.5002 22C45.1002 22.4 44.6002 22.8 44.1002 22.9C43.6002 23.1 43.0002 23.2 42.4002 23.2C41.6002 23.2 40.9002 23 40.2002 22.6L39.8002 24.3C39.5002 25.6 39.0002 26.8 38.4002 28C38.1002 28.7 37.7002 29.4 37.3002 30.1C37.0002 30.5 36.6002 30.9 36.1002 31.1C35.9002 31.1 35.7002 31.2 35.6002 31.2C35.4002 31.2 35.2002 31.1 35.0002 31C34.7002 30.7 34.4002 30.4 34.2002 30C34.0002 29.6 33.8002 29.2 33.6002 28.7C33.2002 27.8 32.6002 25.5 32.6002 25.5L32.0002 23.1L31.4002 20.7L31.0002 19.1C30.5002 16.9 29.6002 14.8 28.3002 12.9C27.1002 11.1 25.3002 9.79997 23.3002 9.09997C21.8002 8.59997 20.1002 8.49997 18.5002 8.69997C15.7002 9.29997 13.3002 11 11.7002 13.4C12.1002 13.5 12.5002 13.7 12.9002 13.9C13.4002 14.2 13.8002 14.6 14.1002 15C14.6002 15.9 14.9002 16.8 14.9002 17.8C15.1002 19.9 15.5002 22.1 16.1002 24.1C16.7002 21.8 17.7002 19.7 19.0002 17.7C19.2002 17.5 19.4002 17.3 19.6002 17.1C19.7002 17 19.9002 17 20.0002 17C20.3002 17 20.5002 17.1 20.7002 17.2C20.8002 17.2 20.8002 17.3 20.8002 17.3C21.0002 17.5 21.2002 17.7 21.4002 17.9C21.7002 18.5 22.0002 19.1 22.3002 19.7C22.8002 21.1 23.2002 22.8 23.2002 22.8L24.4002 27.7C24.8002 29.4 25.4002 31.1 26.1002 32.7C28.0002 37.1 30.9002 38.3 30.9002 38.3C32.3002 39 33.9002 39.5 35.5002 39.5C37.0002 39.6 38.6002 39.2 39.9002 38.6C41.4002 37.8 42.7002 36.8 43.8002 35.5C44.4002 34.6 45.0002 33.7 45.5002 32.7C46.7002 30.4 47.5002 28 48.2002 25.5C48.6002 24 49.0002 22.4 49.2002 20.8C49.3002 20 49.4002 19.3 49.5002 18.5C49.6002 17.8 49.6002 17 49.4002 16.3C49.3002 16.2 49.3002 16.1 49.3002 15.9C48.9002 15 48.3002 14.2 47.4002 13.7C46.8002 13.5 46.0002 13.3 45.3002 13.3Z" fill="url(#paint22_radial_4_169)"/>
<path d="M45.3002 13.3C45.0002 13.3 44.6002 13.4 44.3002 13.4C45.1002 14.6 45.8002 15.8 46.3002 17.1C46.5002 17.7 46.7002 18.3 46.7002 18.9C46.7002 19.5 46.6002 20 46.4002 20.6C46.1002 21.1 45.8002 21.6 45.5002 22C45.1002 22.4 44.6002 22.8 44.1002 22.9C43.6002 23.1 43.0002 23.2 42.4002 23.2C41.6002 23.2 40.9002 23 40.2002 22.6L39.8002 24.3C39.5002 25.6 39.0002 26.8 38.4002 28C38.1002 28.7 37.7002 29.4 37.3002 30.1C37.0002 30.5 36.6002 30.9 36.1002 31.1C35.9002 31.1 35.7002 31.2 35.6002 31.2C35.4002 31.2 35.2002 31.1 35.0002 31C34.7002 30.7 34.4002 30.4 34.2002 30C34.0002 29.6 33.8002 29.2 33.6002 28.7C33.2002 27.8 32.6002 25.5 32.6002 25.5L32.0002 23.1L31.4002 20.7L31.0002 19.1C30.5002 16.9 29.6002 14.8 28.3002 12.9C27.1002 11.1 25.3002 9.79997 23.3002 9.09997C21.8002 8.59997 20.1002 8.49997 18.5002 8.69997C15.7002 9.29997 13.3002 11 11.7002 13.4C12.1002 13.5 12.5002 13.7 12.9002 13.9C13.4002 14.2 13.8002 14.6 14.1002 15C14.6002 15.9 14.9002 16.8 14.9002 17.8C15.1002 19.9 15.5002 22.1 16.1002 24.1C16.7002 21.8 17.7002 19.7 19.0002 17.7C19.2002 17.5 19.4002 17.3 19.6002 17.1C19.7002 17 19.9002 17 20.0002 17C20.3002 17 20.5002 17.1 20.7002 17.2C20.8002 17.2 20.8002 17.3 20.8002 17.3C21.0002 17.5 21.2002 17.7 21.4002 17.9C21.7002 18.5 22.0002 19.1 22.3002 19.7C22.8002 21.1 23.2002 22.8 23.2002 22.8L24.4002 27.7C24.8002 29.4 25.4002 31.1 26.1002 32.7C28.0002 37.1 30.9002 38.3 30.9002 38.3C32.3002 39 33.9002 39.5 35.5002 39.5C37.0002 39.6 38.6002 39.2 39.9002 38.6C41.4002 37.8 42.7002 36.8 43.8002 35.5C44.4002 34.6 45.0002 33.7 45.5002 32.7C46.7002 30.4 47.5002 28 48.2002 25.5C48.6002 24 49.0002 22.4 49.2002 20.8C49.3002 20 49.4002 19.3 49.5002 18.5C49.6002 17.8 49.6002 17 49.4002 16.3C49.3002 16.2 49.3002 16.1 49.3002 15.9C48.9002 15 48.3002 14.2 47.4002 13.7C46.8002 13.5 46.0002 13.3 45.3002 13.3Z" fill="url(#paint23_radial_4_169)"/>
<path d="M45.3002 13.3C45.0002 13.3 44.6002 13.4 44.3002 13.4C45.1002 14.6 45.8002 15.8 46.3002 17.1C46.5002 17.7 46.7002 18.3 46.7002 18.9C46.7002 19.5 46.6002 20 46.4002 20.6C46.1002 21.1 45.8002 21.6 45.5002 22C45.1002 22.4 44.6002 22.8 44.1002 22.9C43.6002 23.1 43.0002 23.2 42.4002 23.2C41.6002 23.2 40.9002 23 40.2002 22.6L39.8002 24.3C39.5002 25.6 39.0002 26.8 38.4002 28C38.1002 28.7 37.7002 29.4 37.3002 30.1C37.0002 30.5 36.6002 30.9 36.1002 31.1C35.9002 31.1 35.7002 31.2 35.6002 31.2C35.4002 31.2 35.2002 31.1 35.0002 31C34.7002 30.7 34.4002 30.4 34.2002 30C34.0002 29.6 33.8002 29.2 33.6002 28.7C33.2002 27.8 32.6002 25.5 32.6002 25.5L32.0002 23.1L31.4002 20.7L31.0002 19.1C30.5002 16.9 29.6002 14.8 28.3002 12.9C27.1002 11.1 25.3002 9.79997 23.3002 9.09997C21.8002 8.59997 20.1002 8.49997 18.5002 8.69997C15.7002 9.29997 13.3002 11 11.7002 13.4C12.1002 13.5 12.5002 13.7 12.9002 13.9C13.4002 14.2 13.8002 14.6 14.1002 15C14.6002 15.9 14.9002 16.8 14.9002 17.8C15.1002 19.9 15.5002 22.1 16.1002 24.1C16.7002 21.8 17.7002 19.7 19.0002 17.7C19.2002 17.5 19.4002 17.3 19.6002 17.1C19.7002 17 19.9002 17 20.0002 17C20.3002 17 20.5002 17.1 20.7002 17.2C20.8002 17.2 20.8002 17.3 20.8002 17.3C21.0002 17.5 21.2002 17.7 21.4002 17.9C21.7002 18.5 22.0002 19.1 22.3002 19.7C22.8002 21.1 23.2002 22.8 23.2002 22.8L24.4002 27.7C24.8002 29.4 25.4002 31.1 26.1002 32.7C28.0002 37.1 30.9002 38.3 30.9002 38.3C32.3002 39 33.9002 39.5 35.5002 39.5C37.0002 39.6 38.6002 39.2 39.9002 38.6C41.4002 37.8 42.7002 36.8 43.8002 35.5C44.4002 34.6 45.0002 33.7 45.5002 32.7C46.7002 30.4 47.5002 28 48.2002 25.5C48.6002 24 49.0002 22.4 49.2002 20.8C49.3002 20 49.4002 19.3 49.5002 18.5C49.6002 17.8 49.6002 17 49.4002 16.3C49.3002 16.2 49.3002 16.1 49.3002 15.9C48.9002 15 48.3002 14.2 47.4002 13.7C46.8002 13.5 46.0002 13.3 45.3002 13.3Z" fill="url(#paint24_radial_4_169)"/>
<path d="M45.3002 13.3C45.0002 13.3 44.6002 13.4 44.3002 13.4C45.1002 14.6 45.8002 15.8 46.3002 17.1C46.5002 17.7 46.7002 18.3 46.7002 18.9C46.7002 19.5 46.6002 20 46.4002 20.6C46.1002 21.1 45.8002 21.6 45.5002 22C45.1002 22.4 44.6002 22.8 44.1002 22.9C43.6002 23.1 43.0002 23.2 42.4002 23.2C41.6002 23.2 40.9002 23 40.2002 22.6L39.8002 24.3C39.5002 25.6 39.0002 26.8 38.4002 28C38.1002 28.7 37.7002 29.4 37.3002 30.1C37.0002 30.5 36.6002 30.9 36.1002 31.1C35.9002 31.1 35.7002 31.2 35.6002 31.2C35.4002 31.2 35.2002 31.1 35.0002 31C34.7002 30.7 34.4002 30.4 34.2002 30C34.0002 29.6 33.8002 29.2 33.6002 28.7C33.2002 27.8 32.6002 25.5 32.6002 25.5L32.0002 23.1L31.4002 20.7L31.0002 19.1C30.5002 16.9 29.6002 14.8 28.3002 12.9C27.1002 11.1 25.3002 9.79997 23.3002 9.09997C21.8002 8.59997 20.1002 8.49997 18.5002 8.69997C15.7002 9.29997 13.3002 11 11.7002 13.4C12.1002 13.5 12.5002 13.7 12.9002 13.9C13.4002 14.2 13.8002 14.6 14.1002 15C14.6002 15.9 14.9002 16.8 14.9002 17.8C15.1002 19.9 15.5002 22.1 16.1002 24.1C16.7002 21.8 17.7002 19.7 19.0002 17.7C19.2002 17.5 19.4002 17.3 19.6002 17.1C19.7002 17 19.9002 17 20.0002 17C20.3002 17 20.5002 17.1 20.7002 17.2C20.8002 17.2 20.8002 17.3 20.8002 17.3C21.0002 17.5 21.2002 17.7 21.4002 17.9C21.7002 18.5 22.0002 19.1 22.3002 19.7C22.8002 21.1 23.2002 22.8 23.2002 22.8L24.4002 27.7C24.8002 29.4 25.4002 31.1 26.1002 32.7C28.0002 37.1 30.9002 38.3 30.9002 38.3C32.3002 39 33.9002 39.5 35.5002 39.5C37.0002 39.6 38.6002 39.2 39.9002 38.6C41.4002 37.8 42.7002 36.8 43.8002 35.5C44.4002 34.6 45.0002 33.7 45.5002 32.7C46.7002 30.4 47.5002 28 48.2002 25.5C48.6002 24 49.0002 22.4 49.2002 20.8C49.3002 20 49.4002 19.3 49.5002 18.5C49.6002 17.8 49.6002 17 49.4002 16.3C49.3002 16.2 49.3002 16.1 49.3002 15.9C48.9002 15 48.3002 14.2 47.4002 13.7C46.8002 13.5 46.0002 13.3 45.3002 13.3Z" fill="url(#paint25_radial_4_169)"/>
<path d="M45.3002 13.3C45.0002 13.3 44.6002 13.4 44.3002 13.4C45.1002 14.6 45.8002 15.8 46.3002 17.1C46.5002 17.7 46.7002 18.3 46.7002 18.9C46.7002 19.5 46.6002 20 46.4002 20.6C46.1002 21.1 45.8002 21.6 45.5002 22C45.1002 22.4 44.6002 22.8 44.1002 22.9C43.6002 23.1 43.0002 23.2 42.4002 23.2C41.6002 23.2 40.9002 23 40.2002 22.6L39.8002 24.3C39.5002 25.6 39.0002 26.8 38.4002 28C38.1002 28.7 37.7002 29.4 37.3002 30.1C37.0002 30.5 36.6002 30.9 36.1002 31.1C35.9002 31.1 35.7002 31.2 35.6002 31.2C35.4002 31.2 35.2002 31.1 35.0002 31C34.7002 30.7 34.4002 30.4 34.2002 30C34.0002 29.6 33.8002 29.2 33.6002 28.7C33.2002 27.8 32.6002 25.5 32.6002 25.5L32.0002 23.1L31.4002 20.7L31.0002 19.1C30.5002 16.9 29.6002 14.8 28.3002 12.9C27.1002 11.1 25.3002 9.79997 23.3002 9.09997C21.8002 8.59997 20.1002 8.49997 18.5002 8.69997C15.7002 9.29997 13.3002 11 11.7002 13.4C12.1002 13.5 12.5002 13.7 12.9002 13.9C13.4002 14.2 13.8002 14.6 14.1002 15C14.6002 15.9 14.9002 16.8 14.9002 17.8C15.1002 19.9 15.5002 22.1 16.1002 24.1C16.7002 21.8 17.7002 19.7 19.0002 17.7C19.2002 17.5 19.4002 17.3 19.6002 17.1C19.7002 17 19.9002 17 20.0002 17C20.3002 17 20.5002 17.1 20.7002 17.2C20.8002 17.2 20.8002 17.3 20.8002 17.3C21.0002 17.5 21.2002 17.7 21.4002 17.9C21.7002 18.5 22.0002 19.1 22.3002 19.7C22.8002 21.1 23.2002 22.8 23.2002 22.8L24.4002 27.7C24.8002 29.4 25.4002 31.1 26.1002 32.7C28.0002 37.1 30.9002 38.3 30.9002 38.3C32.3002 39 33.9002 39.5 35.5002 39.5C37.0002 39.6 38.6002 39.2 39.9002 38.6C41.4002 37.8 42.7002 36.8 43.8002 35.5C44.4002 34.6 45.0002 33.7 45.5002 32.7C46.7002 30.4 47.5002 28 48.2002 25.5C48.6002 24 49.0002 22.4 49.2002 20.8C49.3002 20 49.4002 19.3 49.5002 18.5C49.6002 17.8 49.6002 17 49.4002 16.3C49.3002 16.2 49.3002 16.1 49.3002 15.9C48.9002 15 48.3002 14.2 47.4002 13.7C46.8002 13.5 46.0002 13.3 45.3002 13.3Z" fill="url(#paint26_radial_4_169)"/>
<path d="M45.3002 13.3C45.0002 13.3 44.6002 13.4 44.3002 13.4C45.1002 14.6 45.8002 15.8 46.3002 17.1C46.5002 17.7 46.7002 18.3 46.7002 18.9C46.7002 19.5 46.6002 20 46.4002 20.6C46.1002 21.1 45.8002 21.6 45.5002 22C45.1002 22.4 44.6002 22.8 44.1002 22.9C43.6002 23.1 43.0002 23.2 42.4002 23.2C41.6002 23.2 40.9002 23 40.2002 22.6L39.8002 24.3C39.5002 25.6 39.0002 26.8 38.4002 28C38.1002 28.7 37.7002 29.4 37.3002 30.1C37.0002 30.5 36.6002 30.9 36.1002 31.1C35.9002 31.1 35.7002 31.2 35.6002 31.2C35.4002 31.2 35.2002 31.1 35.0002 31C34.7002 30.7 34.4002 30.4 34.2002 30C34.0002 29.6 33.8002 29.2 33.6002 28.7C33.2002 27.8 32.6002 25.5 32.6002 25.5L32.0002 23.1L31.4002 20.7L31.0002 19.1C30.5002 16.9 29.6002 14.8 28.3002 12.9C27.1002 11.1 25.3002 9.79997 23.3002 9.09997C21.8002 8.59997 20.1002 8.49997 18.5002 8.69997C15.7002 9.29997 13.3002 11 11.7002 13.4C12.1002 13.5 12.5002 13.7 12.9002 13.9C13.4002 14.2 13.8002 14.6 14.1002 15C14.6002 15.9 14.9002 16.8 14.9002 17.8C15.1002 19.9 15.5002 22.1 16.1002 24.1C16.7002 21.8 17.7002 19.7 19.0002 17.7C19.2002 17.5 19.4002 17.3 19.6002 17.1C19.7002 17 19.9002 17 20.0002 17C20.3002 17 20.5002 17.1 20.7002 17.2C20.8002 17.2 20.8002 17.3 20.8002 17.3C21.0002 17.5 21.2002 17.7 21.4002 17.9C21.7002 18.5 22.0002 19.1 22.3002 19.7C22.8002 21.1 23.2002 22.8 23.2002 22.8L24.4002 27.7C24.8002 29.4 25.4002 31.1 26.1002 32.7C28.0002 37.1 30.9002 38.3 30.9002 38.3C32.3002 39 33.9002 39.5 35.5002 39.5C37.0002 39.6 38.6002 39.2 39.9002 38.6C41.4002 37.8 42.7002 36.8 43.8002 35.5C44.4002 34.6 45.0002 33.7 45.5002 32.7C46.7002 30.4 47.5002 28 48.2002 25.5C48.6002 24 49.0002 22.4 49.2002 20.8C49.3002 20 49.4002 19.3 49.5002 18.5C49.6002 17.8 49.6002 17 49.4002 16.3C49.3002 16.2 49.3002 16.1 49.3002 15.9C48.9002 15 48.3002 14.2 47.4002 13.7C46.8002 13.5 46.0002 13.3 45.3002 13.3Z" fill="url(#paint27_radial_4_169)"/>
<path d="M45.3002 13.3C45.0002 13.3 44.6002 13.4 44.3002 13.4C45.1002 14.6 45.8002 15.8 46.3002 17.1C46.5002 17.7 46.7002 18.3 46.7002 18.9C46.7002 19.5 46.6002 20 46.4002 20.6C46.1002 21.1 45.8002 21.6 45.5002 22C45.1002 22.4 44.6002 22.8 44.1002 22.9C43.6002 23.1 43.0002 23.2 42.4002 23.2C41.6002 23.2 40.9002 23 40.2002 22.6L39.8002 24.3C39.5002 25.6 39.0002 26.8 38.4002 28C38.1002 28.7 37.7002 29.4 37.3002 30.1C37.0002 30.5 36.6002 30.9 36.1002 31.1C35.9002 31.1 35.7002 31.2 35.6002 31.2C35.4002 31.2 35.2002 31.1 35.0002 31C34.7002 30.7 34.4002 30.4 34.2002 30C34.0002 29.6 33.8002 29.2 33.6002 28.7C33.2002 27.8 32.6002 25.5 32.6002 25.5L32.0002 23.1L31.4002 20.7L31.0002 19.1C30.5002 16.9 29.6002 14.8 28.3002 12.9C27.1002 11.1 25.3002 9.79997 23.3002 9.09997C21.8002 8.59997 20.1002 8.49997 18.5002 8.69997C15.7002 9.29997 13.3002 11 11.7002 13.4C12.1002 13.5 12.5002 13.7 12.9002 13.9C13.4002 14.2 13.8002 14.6 14.1002 15C14.6002 15.9 14.9002 16.8 14.9002 17.8C15.1002 19.9 15.5002 22.1 16.1002 24.1C16.7002 21.8 17.7002 19.7 19.0002 17.7C19.2002 17.5 19.4002 17.3 19.6002 17.1C19.7002 17 19.9002 17 20.0002 17C20.3002 17 20.5002 17.1 20.7002 17.2C20.8002 17.2 20.8002 17.3 20.8002 17.3C21.0002 17.5 21.2002 17.7 21.4002 17.9C21.7002 18.5 22.0002 19.1 22.3002 19.7C22.8002 21.1 23.2002 22.8 23.2002 22.8L24.4002 27.7C24.8002 29.4 25.4002 31.1 26.1002 32.7C28.0002 37.1 30.9002 38.3 30.9002 38.3C32.3002 39 33.9002 39.5 35.5002 39.5C37.0002 39.6 38.6002 39.2 39.9002 38.6C41.4002 37.8 42.7002 36.8 43.8002 35.5C44.4002 34.6 45.0002 33.7 45.5002 32.7C46.7002 30.4 47.5002 28 48.2002 25.5C48.6002 24 49.0002 22.4 49.2002 20.8C49.3002 20 49.4002 19.3 49.5002 18.5C49.6002 17.8 49.6002 17 49.4002 16.3C49.3002 16.2 49.3002 16.1 49.3002 15.9C48.9002 15 48.3002 14.2 47.4002 13.7C46.8002 13.5 46.0002 13.3 45.3002 13.3Z" fill="url(#paint28_radial_4_169)"/>
<path d="M45.3002 13.3C45.0002 13.3 44.6002 13.4 44.3002 13.4C45.1002 14.6 45.8002 15.8 46.3002 17.1C46.5002 17.7 46.7002 18.3 46.7002 18.9C46.7002 19.5 46.6002 20 46.4002 20.6C46.1002 21.1 45.8002 21.6 45.5002 22C45.1002 22.4 44.6002 22.8 44.1002 22.9C43.6002 23.1 43.0002 23.2 42.4002 23.2C41.6002 23.2 40.9002 23 40.2002 22.6L39.8002 24.3C39.5002 25.6 39.0002 26.8 38.4002 28C38.1002 28.7 37.7002 29.4 37.3002 30.1C37.0002 30.5 36.6002 30.9 36.1002 31.1C35.9002 31.1 35.7002 31.2 35.6002 31.2C35.4002 31.2 35.2002 31.1 35.0002 31C34.7002 30.7 34.4002 30.4 34.2002 30C34.0002 29.6 33.8002 29.2 33.6002 28.7C33.2002 27.8 32.6002 25.5 32.6002 25.5L32.0002 23.1L31.4002 20.7L31.0002 19.1C30.5002 16.9 29.6002 14.8 28.3002 12.9C27.1002 11.1 25.3002 9.79997 23.3002 9.09997C21.8002 8.59997 20.1002 8.49997 18.5002 8.69997C15.7002 9.29997 13.3002 11 11.7002 13.4C12.1002 13.5 12.5002 13.7 12.9002 13.9C13.4002 14.2 13.8002 14.6 14.1002 15C14.6002 15.9 14.9002 16.8 14.9002 17.8C15.1002 19.9 15.5002 22.1 16.1002 24.1C16.7002 21.8 17.7002 19.7 19.0002 17.7C19.2002 17.5 19.4002 17.3 19.6002 17.1C19.7002 17 19.9002 17 20.0002 17C20.3002 17 20.5002 17.1 20.7002 17.2C20.8002 17.2 20.8002 17.3 20.8002 17.3C21.0002 17.5 21.2002 17.7 21.4002 17.9C21.7002 18.5 22.0002 19.1 22.3002 19.7C22.8002 21.1 23.2002 22.8 23.2002 22.8L24.4002 27.7C24.8002 29.4 25.4002 31.1 26.1002 32.7C28.0002 37.1 30.9002 38.3 30.9002 38.3C32.3002 39 33.9002 39.5 35.5002 39.5C37.0002 39.6 38.6002 39.2 39.9002 38.6C41.4002 37.8 42.7002 36.8 43.8002 35.5C44.4002 34.6 45.0002 33.7 45.5002 32.7C46.7002 30.4 47.5002 28 48.2002 25.5C48.6002 24 49.0002 22.4 49.2002 20.8C49.3002 20 49.4002 19.3 49.5002 18.5C49.6002 17.8 49.6002 17 49.4002 16.3C49.3002 16.2 49.3002 16.1 49.3002 15.9C48.9002 15 48.3002 14.2 47.4002 13.7C46.8002 13.5 46.0002 13.3 45.3002 13.3Z" fill="url(#paint29_radial_4_169)"/>
<path d="M45.3002 13.3C45.0002 13.3 44.6002 13.4 44.3002 13.4C45.1002 14.6 45.8002 15.8 46.3002 17.1C46.5002 17.7 46.7002 18.3 46.7002 18.9C46.7002 19.5 46.6002 20 46.4002 20.6C46.1002 21.1 45.8002 21.6 45.5002 22C45.1002 22.4 44.6002 22.8 44.1002 22.9C43.6002 23.1 43.0002 23.2 42.4002 23.2C41.6002 23.2 40.9002 23 40.2002 22.6L39.8002 24.3C39.5002 25.6 39.0002 26.8 38.4002 28C38.1002 28.7 37.7002 29.4 37.3002 30.1C37.0002 30.5 36.6002 30.9 36.1002 31.1C35.9002 31.1 35.7002 31.2 35.6002 31.2C35.4002 31.2 35.2002 31.1 35.0002 31C34.7002 30.7 34.4002 30.4 34.2002 30C34.0002 29.6 33.8002 29.2 33.6002 28.7C33.2002 27.8 32.6002 25.5 32.6002 25.5L32.0002 23.1L31.4002 20.7L31.0002 19.1C30.5002 16.9 29.6002 14.8 28.3002 12.9C27.1002 11.1 25.3002 9.79997 23.3002 9.09997C21.8002 8.59997 20.1002 8.49997 18.5002 8.69997C15.7002 9.29997 13.3002 11 11.7002 13.4C12.1002 13.5 12.5002 13.7 12.9002 13.9C13.4002 14.2 13.8002 14.6 14.1002 15C14.6002 15.9 14.9002 16.8 14.9002 17.8C15.1002 19.9 15.5002 22.1 16.1002 24.1C16.7002 21.8 17.7002 19.7 19.0002 17.7C19.2002 17.5 19.4002 17.3 19.6002 17.1C19.7002 17 19.9002 17 20.0002 17C20.3002 17 20.5002 17.1 20.7002 17.2C20.8002 17.2 20.8002 17.3 20.8002 17.3C21.0002 17.5 21.2002 17.7 21.4002 17.9C21.7002 18.5 22.0002 19.1 22.3002 19.7C22.8002 21.1 23.2002 22.8 23.2002 22.8L24.4002 27.7C24.8002 29.4 25.4002 31.1 26.1002 32.7C28.0002 37.1 30.9002 38.3 30.9002 38.3C32.3002 39 33.9002 39.5 35.5002 39.5C37.0002 39.6 38.6002 39.2 39.9002 38.6C41.4002 37.8 42.7002 36.8 43.8002 35.5C44.4002 34.6 45.0002 33.7 45.5002 32.7C46.7002 30.4 47.5002 28 48.2002 25.5C48.6002 24 49.0002 22.4 49.2002 20.8C49.3002 20 49.4002 19.3 49.5002 18.5C49.6002 17.8 49.6002 17 49.4002 16.3C49.3002 16.2 49.3002 16.1 49.3002 15.9C48.9002 15 48.3002 14.2 47.4002 13.7C46.8002 13.5 46.0002 13.3 45.3002 13.3Z" fill="url(#paint30_radial_4_169)"/>
<path d="M45.3002 13.3C45.0002 13.3 44.6002 13.4 44.3002 13.4C45.1002 14.6 45.8002 15.8 46.3002 17.1C46.5002 17.7 46.7002 18.3 46.7002 18.9C46.7002 19.5 46.6002 20 46.4002 20.6C46.1002 21.1 45.8002 21.6 45.5002 22C45.1002 22.4 44.6002 22.8 44.1002 22.9C43.6002 23.1 43.0002 23.2 42.4002 23.2C41.6002 23.2 40.9002 23 40.2002 22.6L39.8002 24.3C39.5002 25.6 39.0002 26.8 38.4002 28C38.1002 28.7 37.7002 29.4 37.3002 30.1C37.0002 30.5 36.6002 30.9 36.1002 31.1C35.9002 31.1 35.7002 31.2 35.6002 31.2C35.4002 31.2 35.2002 31.1 35.0002 31C34.7002 30.7 34.4002 30.4 34.2002 30C34.0002 29.6 33.8002 29.2 33.6002 28.7C33.2002 27.8 32.6002 25.5 32.6002 25.5L32.0002 23.1L31.4002 20.7L31.0002 19.1C30.5002 16.9 29.6002 14.8 28.3002 12.9C27.1002 11.1 25.3002 9.79997 23.3002 9.09997C21.8002 8.59997 20.1002 8.49997 18.5002 8.69997C15.7002 9.29997 13.3002 11 11.7002 13.4C12.1002 13.5 12.5002 13.7 12.9002 13.9C13.4002 14.2 13.8002 14.6 14.1002 15C14.6002 15.9 14.9002 16.8 14.9002 17.8C15.1002 19.9 15.5002 22.1 16.1002 24.1C16.7002 21.8 17.7002 19.7 19.0002 17.7C19.2002 17.5 19.4002 17.3 19.6002 17.1C19.7002 17 19.9002 17 20.0002 17C20.3002 17 20.5002 17.1 20.7002 17.2C20.8002 17.2 20.8002 17.3 20.8002 17.3C21.0002 17.5 21.2002 17.7 21.4002 17.9C21.7002 18.5 22.0002 19.1 22.3002 19.7C22.8002 21.1 23.2002 22.8 23.2002 22.8L24.4002 27.7C24.8002 29.4 25.4002 31.1 26.1002 32.7C28.0002 37.1 30.9002 38.3 30.9002 38.3C32.3002 39 33.9002 39.5 35.5002 39.5C37.0002 39.6 38.6002 39.2 39.9002 38.6C41.4002 37.8 42.7002 36.8 43.8002 35.5C44.4002 34.6 45.0002 33.7 45.5002 32.7C46.7002 30.4 47.5002 28 48.2002 25.5C48.6002 24 49.0002 22.4 49.2002 20.8C49.3002 20 49.4002 19.3 49.5002 18.5C49.6002 17.8 49.6002 17 49.4002 16.3C49.3002 16.2 49.3002 16.1 49.3002 15.9C48.9002 15 48.3002 14.2 47.4002 13.7C46.8002 13.5 46.0002 13.3 45.3002 13.3Z" fill="url(#paint31_radial_4_169)"/>
<path d="M45.3002 13.3C45.0002 13.3 44.6002 13.4 44.3002 13.4C45.1002 14.6 45.8002 15.8 46.3002 17.1C46.5002 17.7 46.7002 18.3 46.7002 18.9C46.7002 19.5 46.6002 20 46.4002 20.6C46.1002 21.1 45.8002 21.6 45.5002 22C45.1002 22.4 44.6002 22.8 44.1002 22.9C43.6002 23.1 43.0002 23.2 42.4002 23.2C41.6002 23.2 40.9002 23 40.2002 22.6L39.8002 24.3C39.5002 25.6 39.0002 26.8 38.4002 28C38.1002 28.7 37.7002 29.4 37.3002 30.1C37.0002 30.5 36.6002 30.9 36.1002 31.1C35.9002 31.1 35.7002 31.2 35.6002 31.2C35.4002 31.2 35.2002 31.1 35.0002 31C34.7002 30.7 34.4002 30.4 34.2002 30C34.0002 29.6 33.8002 29.2 33.6002 28.7C33.2002 27.8 32.6002 25.5 32.6002 25.5L32.0002 23.1L31.4002 20.7L31.0002 19.1C30.5002 16.9 29.6002 14.8 28.3002 12.9C27.1002 11.1 25.3002 9.79997 23.3002 9.09997C21.8002 8.59997 20.1002 8.49997 18.5002 8.69997C15.7002 9.29997 13.3002 11 11.7002 13.4C12.1002 13.5 12.5002 13.7 12.9002 13.9C13.4002 14.2 13.8002 14.6 14.1002 15C14.6002 15.9 14.9002 16.8 14.9002 17.8C15.1002 19.9 15.5002 22.1 16.1002 24.1C16.7002 21.8 17.7002 19.7 19.0002 17.7C19.2002 17.5 19.4002 17.3 19.6002 17.1C19.7002 17 19.9002 17 20.0002 17C20.3002 17 20.5002 17.1 20.7002 17.2C20.8002 17.2 20.8002 17.3 20.8002 17.3C21.0002 17.5 21.2002 17.7 21.4002 17.9C21.7002 18.5 22.0002 19.1 22.3002 19.7C22.8002 21.1 23.2002 22.8 23.2002 22.8L24.4002 27.7C24.8002 29.4 25.4002 31.1 26.1002 32.7C28.0002 37.1 30.9002 38.3 30.9002 38.3C32.3002 39 33.9002 39.5 35.5002 39.5C37.0002 39.6 38.6002 39.2 39.9002 38.6C41.4002 37.8 42.7002 36.8 43.8002 35.5C44.4002 34.6 45.0002 33.7 45.5002 32.7C46.7002 30.4 47.5002 28 48.2002 25.5C48.6002 24 49.0002 22.4 49.2002 20.8C49.3002 20 49.4002 19.3 49.5002 18.5C49.6002 17.8 49.6002 17 49.4002 16.3C49.3002 16.2 49.3002 16.1 49.3002 15.9C48.9002 15 48.3002 14.2 47.4002 13.7C46.8002 13.5 46.0002 13.3 45.3002 13.3Z" fill="#AEAEAE"/>
<defs>
<linearGradient id="paint0_linear_4_169" x1="8.10539" y1="29.6082" x2="41.8754" y2="15.9582" gradientUnits="userSpaceOnUse">
<stop offset="0.13" stop-color="#1CBBF3"/>
<stop offset="0.34" stop-color="#1F99A5"/>
<stop offset="0.45" stop-color="#209CA6"/>
<stop offset="0.51" stop-color="#24A4AA"/>
<stop offset="0.57" stop-color="#2BB3B0"/>
<stop offset="0.6" stop-color="#30BDB4"/>
<stop offset="0.79" stop-color="#38BA90"/>
<stop offset="1" stop-color="#60F05A"/>
</linearGradient>
<radialGradient id="paint1_radial_4_169" cx="0" cy="0" r="1" gradientUnits="userSpaceOnUse" gradientTransform="translate(30.4976 21.3193) rotate(74.3249) scale(16.2468 12.3446)">
<stop stop-color="#227B60"/>
<stop offset="0.14" stop-color="#227B60" stop-opacity="0.81"/>
<stop offset="0.58" stop-color="#227B60" stop-opacity="0.23"/>
<stop offset="0.78" stop-color="#227B60" stop-opacity="0"/>
</radialGradient>
<radialGradient id="paint2_radial_4_169" cx="0" cy="0" r="1" gradientUnits="userSpaceOnUse" gradientTransform="translate(32.5991 20.7604) rotate(91.1322) scale(10.9823 8.34688)">
<stop stop-color="#227B60"/>
<stop offset="0.25" stop-color="#227B60" stop-opacity="0.7"/>
<stop offset="0.71" stop-color="#227B60" stop-opacity="0.2"/>
<stop offset="0.92" stop-color="#227B60" stop-opacity="0"/>
</radialGradient>
<radialGradient id="paint3_radial_4_169" cx="0" cy="0" r="1" gradientUnits="userSpaceOnUse" gradientTransform="translate(32.3709 20.3349) rotate(88.6121) scale(10.2392 7.26862)">
<stop stop-color="#227B60"/>
<stop offset="0.07" stop-color="#227B60" stop-opacity="0.9"/>
<stop offset="0.34" stop-color="#227B60" stop-opacity="0.51"/>
<stop offset="0.59" stop-color="#227B60" stop-opacity="0.23"/>
<stop offset="0.79" stop-color="#227B60" stop-opacity="0.06"/>
<stop offset="0.92" stop-color="#227B60" stop-opacity="0"/>
</radialGradient>
<radialGradient id="paint4_radial_4_169" cx="0" cy="0" r="1" gradientUnits="userSpaceOnUse" gradientTransform="translate(33.0897 20.7015) rotate(88.5819) scale(8.26713 5.87313)">
<stop stop-color="#227B60"/>
<stop offset="0.36" stop-color="#227B60" stop-opacity="0.63"/>
<stop offset="0.92" stop-color="#227B60" stop-opacity="0"/>
</radialGradient>
<radialGradient id="paint5_radial_4_169" cx="0" cy="0" r="1" gradientUnits="userSpaceOnUse" gradientTransform="translate(32.2684 20.416) rotate(88.5989) scale(6.59257 4.21732)">
<stop stop-color="#20735A"/>
<stop offset="0.15" stop-color="#20745A" stop-opacity="0.93"/>
<stop offset="0.38" stop-color="#21755C" stop-opacity="0.74"/>
<stop offset="0.67" stop-color="#21785D" stop-opacity="0.43"/>
<stop offset="1" stop-color="#227B60" stop-opacity="0"/>
</radialGradient>
<radialGradient id="paint6_radial_4_169" cx="0" cy="0" r="1" gradientUnits="userSpaceOnUse" gradientTransform="translate(33.8203 22.0464) rotate(23.8095) scale(10.6124 7.95583)">
<stop stop-color="#227A61"/>
<stop offset="0.36" stop-color="#227A61" stop-opacity="0.56"/>
<stop offset="0.72" stop-color="#227A61" stop-opacity="0.16"/>
<stop offset="0.9" stop-color="#227A61" stop-opacity="0"/>
</radialGradient>
<radialGradient id="paint7_radial_4_169" cx="0" cy="0" r="1" gradientUnits="userSpaceOnUse" gradientTransform="translate(30.5527 4.55527) rotate(35.2779) scale(14.1489 12.9395)">
<stop stop-color="#3CD9C3"/>
<stop offset="0.07" stop-color="#3BD7C1" stop-opacity="0.9"/>
<stop offset="0.41" stop-color="#38CEB9" stop-opacity="0.42"/>
<stop offset="0.65" stop-color="#36C8B4" stop-opacity="0.12"/>
<stop offset="0.76" stop-color="#35C6B2" stop-opacity="0"/>
</radialGradient>
<radialGradient id="paint8_radial_4_169" cx="0" cy="0" r="1" gradientUnits="userSpaceOnUse" gradientTransform="translate(-23028.6 -31320.4) rotate(35.2724) scale(2514.09 1764.26)">
<stop stop-color="#3CD9C3"/>
<stop offset="0.07" stop-color="#3BD7C1" stop-opacity="0.9"/>
<stop offset="0.41" stop-color="#38CEB9" stop-opacity="0.42"/>
<stop offset="0.65" stop-color="#36C8B4" stop-opacity="0.12"/>
<stop offset="0.76" stop-color="#35C6B2" stop-opacity="0"/>
</radialGradient>
<radialGradient id="paint9_radial_4_169" cx="0" cy="0" r="1" gradientUnits="userSpaceOnUse" gradientTransform="translate(35.6768 24.0428) rotate(100.969) scale(12.4792 15.4218)">
<stop stop-color="#237F66" stop-opacity="0.8"/>
<stop offset="0.06" stop-color="#2C8C70" stop-opacity="0.65"/>
<stop offset="0.21" stop-color="#3DA785" stop-opacity="0.37"/>
<stop offset="0.35" stop-color="#4ABA93" stop-opacity="0.17"/>
<stop offset="0.47" stop-color="#51C59C" stop-opacity="0.04"/>
<stop offset="0.56" stop-color="#54C99F" stop-opacity="0"/>
</radialGradient>
<radialGradient id="paint10_radial_4_169" cx="0" cy="0" r="1" gradientUnits="userSpaceOnUse" gradientTransform="translate(28.9366 24.9342) rotate(-50.8163) scale(16.3094 17.6137)">
<stop stop-color="#167C8A"/>
<stop offset="0.04" stop-color="#167C8A" stop-opacity="0.93"/>
<stop offset="0.33" stop-color="#177F8D" stop-opacity="0.43"/>
<stop offset="0.54" stop-color="#17818F" stop-opacity="0.12"/>
<stop offset="0.65" stop-color="#178290" stop-opacity="0"/>
</radialGradient>
<radialGradient id="paint11_radial_4_169" cx="0" cy="0" r="1" gradientUnits="userSpaceOnUse" gradientTransform="translate(28.3236 26.3619) rotate(-31.6646) scale(15.9091 12.5711)">
<stop offset="0.05" stop-color="#177D87"/>
<stop offset="0.11" stop-color="#177E89" stop-opacity="0.8"/>
<stop offset="0.21" stop-color="#177F8B" stop-opacity="0.52"/>
<stop offset="0.32" stop-color="#17818D" stop-opacity="0.29"/>
<stop offset="0.42" stop-color="#17818F" stop-opacity="0.13"/>
<stop offset="0.51" stop-color="#178290" stop-opacity="0.03"/>
<stop offset="0.6" stop-color="#178290" stop-opacity="0"/>
</radialGradient>
<radialGradient id="paint12_radial_4_169" cx="0" cy="0" r="1" gradientUnits="userSpaceOnUse" gradientTransform="translate(25.0048 26.1046) rotate(-130.544) scale(9.48069 7.46257)">
<stop offset="0.26" stop-color="#177F8A"/>
<stop offset="0.27" stop-color="#177F8A" stop-opacity="0.98"/>
<stop offset="0.38" stop-color="#17808C" stop-opacity="0.68"/>
<stop offset="0.5" stop-color="#17818D" stop-opacity="0.43"/>
<stop offset="0.62" stop-color="#17818F" stop-opacity="0.24"/>
<stop offset="0.74" stop-color="#17828F" stop-opacity="0.11"/>
<stop offset="0.86" stop-color="#178290" stop-opacity="0.03"/>
<stop offset="1" stop-color="#178290" stop-opacity="0"/>
</radialGradient>
<radialGradient id="paint13_radial_4_169" cx="0" cy="0" r="1" gradientUnits="userSpaceOnUse" gradientTransform="translate(22.3628 29.2688) rotate(-173.11) scale(8.89078)">
<stop stop-color="#13656E"/>
<stop offset="0.11" stop-color="#13646E" stop-opacity="0.73"/>
<stop offset="0.27" stop-color="#12646E" stop-opacity="0.41"/>
<stop offset="0.42" stop-color="#12636E" stop-opacity="0.18"/>
<stop offset="0.55" stop-color="#12636E" stop-opacity="0.05"/>
<stop offset="0.66" stop-color="#12636E" stop-opacity="0"/>
</radialGradient>
<radialGradient id="paint14_radial_4_169" cx="0" cy="0" r="1" gradientUnits="userSpaceOnUse" gradientTransform="translate(21.3935 30.7753) rotate(-119.327) scale(6.21535 5.22713)">
<stop offset="0.13" stop-color="#146A73"/>
<stop offset="0.24" stop-color="#156F79" stop-opacity="0.79"/>
<stop offset="0.45" stop-color="#167783" stop-opacity="0.45"/>
<stop offset="0.65" stop-color="#167D8A" stop-opacity="0.2"/>
<stop offset="0.82" stop-color="#17818E" stop-opacity="0.05"/>
<stop offset="0.95" stop-color="#178290" stop-opacity="0"/>
</radialGradient>
<radialGradient id="paint15_radial_4_169" cx="0" cy="0" r="1" gradientUnits="userSpaceOnUse" gradientTransform="translate(19.9921 27.8916) rotate(-55.9731) scale(5.85008 4.63602)">
<stop stop-color="#198E9C"/>
<stop offset="0.1" stop-color="#198E9C" stop-opacity="0.87"/>
<stop offset="0.41" stop-color="#198E9C" stop-opacity="0.5"/>
<stop offset="0.67" stop-color="#198E9C" stop-opacity="0.23"/>
<stop offset="0.88" stop-color="#198E9C" stop-opacity="0.06"/>
<stop offset="1" stop-color="#198E9C" stop-opacity="0"/>
</radialGradient>
<linearGradient id="paint16_linear_4_169" x1="10.2796" y1="7.88898" x2="25.1796" y2="21.679" gradientUnits="userSpaceOnUse">
<stop offset="0.13" stop-color="#2BF9FF"/>
<stop offset="0.27" stop-color="#29F9FF" stop-opacity="0.64"/>
<stop offset="0.4" stop-color="#27FAFF" stop-opacity="0.3"/>
<stop offset="0.49" stop-color="#26FAFF" stop-opacity="0.08"/>
<stop offset="0.54" stop-color="#26FAFF" stop-opacity="0"/>
</linearGradient>
<linearGradient id="paint17_linear_4_169" x1="1.84219" y1="30.4019" x2="19.2422" y2="25.4719" gradientUnits="userSpaceOnUse">
<stop stop-color="#26FAFF"/>
<stop offset="0.06" stop-color="#26FAFF" stop-opacity="0.88"/>
<stop offset="0.24" stop-color="#26FAFF" stop-opacity="0.51"/>
<stop offset="0.39" stop-color="#26FAFF" stop-opacity="0.23"/>
<stop offset="0.5" stop-color="#26FAFF" stop-opacity="0.06"/>
<stop offset="0.55" stop-color="#26FAFF" stop-opacity="0"/>
</linearGradient>
<linearGradient id="paint18_linear_4_169" x1="6.4532" y1="29.8105" x2="26.0632" y2="22.8105" gradientUnits="userSpaceOnUse">
<stop stop-color="#21DEFF"/>
<stop offset="0.04" stop-color="#21DEFF" stop-opacity="0.88"/>
<stop offset="0.17" stop-color="#21DEFF" stop-opacity="0.51"/>
<stop offset="0.27" stop-color="#21DEFF" stop-opacity="0.23"/>
<stop offset="0.34" stop-color="#21DEFF" stop-opacity="0.06"/>
<stop offset="0.38" stop-color="#21DEFF" stop-opacity="0"/>
</linearGradient>
<linearGradient id="paint19_linear_4_169" x1="13.2302" y1="17.6001" x2="49.5502" y2="29.6201" gradientUnits="userSpaceOnUse">
<stop stop-color="#3066FB"/>
<stop offset="0.38" stop-color="#2F64F7"/>
<stop offset="0.74" stop-color="#2857D9"/>
<stop offset="1" stop-color="#3C7EFF"/>
</linearGradient>
<radialGradient id="paint20_radial_4_169" cx="0" cy="0" r="1" gradientUnits="userSpaceOnUse" gradientTransform="translate(38.3672 22.1659) rotate(98.6826) scale(19.5494 12.9011)">
<stop stop-color="#1A3D9C"/>
<stop offset="0.4" stop-color="#1A3D9C" stop-opacity="0.42"/>
<stop offset="0.7" stop-color="#1A3D9C" stop-opacity="0"/>
</radialGradient>
<radialGradient id="paint21_radial_4_169" cx="0" cy="0" r="1" gradientUnits="userSpaceOnUse" gradientTransform="translate(11818.9 -30503.9) rotate(98.69) scale(2404.85 1296.67)">
<stop stop-color="#1A3D9C"/>
<stop offset="0.4" stop-color="#1A3D9C" stop-opacity="0.42"/>
<stop offset="0.7" stop-color="#1A3D9C" stop-opacity="0"/>
</radialGradient>
<radialGradient id="paint22_radial_4_169" cx="0" cy="0" r="1" gradientUnits="userSpaceOnUse" gradientTransform="translate(10376.8 -30965.4) rotate(98.6156) scale(2864.04 1183.21)">
<stop stop-color="#1A3D9C"/>
<stop offset="0.4" stop-color="#1A3D9C" stop-opacity="0.42"/>
<stop offset="0.7" stop-color="#1A3D9C" stop-opacity="0"/>
</radialGradient>
<radialGradient id="paint23_radial_4_169" cx="0" cy="0" r="1" gradientUnits="userSpaceOnUse" gradientTransform="translate(36.1522 22.8619) rotate(83.0813) scale(17.0876 11.9221)">
<stop stop-color="#1A3D9C"/>
<stop offset="0.16" stop-color="#1A3D9C" stop-opacity="0.69"/>
<stop offset="0.33" stop-color="#1A3D9C" stop-opacity="0.4"/>
<stop offset="0.49" stop-color="#1A3D9C" stop-opacity="0.18"/>
<stop offset="0.61" stop-color="#1A3D9C" stop-opacity="0.05"/>
<stop offset="0.7" stop-color="#1A3D9C" stop-opacity="0"/>
</radialGradient>
<radialGradient id="paint24_radial_4_169" cx="0" cy="0" r="1" gradientUnits="userSpaceOnUse" gradientTransform="translate(39.5384 25.0558) rotate(74.631) scale(16.4221 11.1681)">
<stop stop-color="#18388F"/>
<stop offset="0.37" stop-color="#193B96" stop-opacity="0.45"/>
<stop offset="0.7" stop-color="#1A3D9C" stop-opacity="0"/>
</radialGradient>
<radialGradient id="paint25_radial_4_169" cx="0" cy="0" r="1" gradientUnits="userSpaceOnUse" gradientTransform="translate(37.8733 29.547) rotate(74.6428) scale(7.63191 7.2529)">
<stop stop-color="#18388F"/>
<stop offset="0.09" stop-color="#183992" stop-opacity="0.78"/>
<stop offset="0.22" stop-color="#193B96" stop-opacity="0.5"/>
<stop offset="0.35" stop-color="#193C98" stop-opacity="0.28"/>
<stop offset="0.47" stop-color="#1A3C9A" stop-opacity="0.13"/>
<stop offset="0.59" stop-color="#1A3D9C" stop-opacity="0.03"/>
<stop offset="0.7" stop-color="#1A3D9C" stop-opacity="0"/>
</radialGradient>
<radialGradient id="paint26_radial_4_169" cx="0" cy="0" r="1" gradientUnits="userSpaceOnUse" gradientTransform="translate(38.0577 30.7852) rotate(74.6428) scale(7.63191 7.2529)">
<stop stop-color="#1A3D9C" stop-opacity="0.8"/>
<stop offset="0.01" stop-color="#1A3D9C" stop-opacity="0.78"/>
<stop offset="0.24" stop-color="#1A3D9C" stop-opacity="0.45"/>
<stop offset="0.44" stop-color="#1A3D9C" stop-opacity="0.2"/>
<stop offset="0.6" stop-color="#1A3D9C" stop-opacity="0.05"/>
<stop offset="0.7" stop-color="#1A3D9C" stop-opacity="0"/>
</radialGradient>
<radialGradient id="paint27_radial_4_169" cx="0" cy="0" r="1" gradientUnits="userSpaceOnUse" gradientTransform="translate(19.8795 26.0323) rotate(67.0292) scale(18.2221 12.0936)">
<stop stop-color="#1A3D9C"/>
<stop offset="0.4" stop-color="#1A3D9C" stop-opacity="0.56"/>
<stop offset="0.48" stop-color="#1A3D9C" stop-opacity="0.43"/>
<stop offset="0.69" stop-color="#1A3D9C" stop-opacity="0.12"/>
<stop offset="0.79" stop-color="#1A3D9C" stop-opacity="0"/>
</radialGradient>
<radialGradient id="paint28_radial_4_169" cx="0" cy="0" r="1" gradientUnits="userSpaceOnUse" gradientTransform="translate(17.731 21.4788) rotate(76.0913) scale(13.5155 8.9231)">
<stop stop-color="#1A3D9C"/>
<stop offset="0.06" stop-color="#1A3D9C" stop-opacity="0.88"/>
<stop offset="0.21" stop-color="#1A3D9C" stop-opacity="0.61"/>
<stop offset="0.36" stop-color="#1A3D9C" stop-opacity="0.39"/>
<stop offset="0.51" stop-color="#1A3D9C" stop-opacity="0.22"/>
<stop offset="0.67" stop-color="#1A3D9C" stop-opacity="0.1"/>
<stop offset="0.83" stop-color="#1A3D9C" stop-opacity="0.02"/>
<stop offset="1" stop-color="#1A3D9C" stop-opacity="0"/>
</radialGradient>
<radialGradient id="paint29_radial_4_169" cx="0" cy="0" r="1" gradientUnits="userSpaceOnUse" gradientTransform="translate(17.731 21.4788) rotate(76.0913) scale(13.5155 8.9231)">
<stop stop-color="#1B3E9E"/>
<stop offset="0.06" stop-color="#1B3E9E" stop-opacity="0.87"/>
<stop offset="0.21" stop-color="#1B3E9D" stop-opacity="0.61"/>
<stop offset="0.36" stop-color="#1A3D9D" stop-opacity="0.39"/>
<stop offset="0.52" stop-color="#1A3D9C" stop-opacity="0.22"/>
<stop offset="0.67" stop-color="#1A3D9C" stop-opacity="0.1"/>
<stop offset="0.83" stop-color="#1A3D9C" stop-opacity="0.02"/>
<stop offset="1" stop-color="#1A3D9C" stop-opacity="0"/>
</radialGradient>
<radialGradient id="paint30_radial_4_169" cx="0" cy="0" r="1" gradientUnits="userSpaceOnUse" gradientTransform="translate(18.5923 21.0553) rotate(76.0887) scale(10.3411 6.82692)">
<stop stop-color="#183991"/>
<stop offset="0.03" stop-color="#183992" stop-opacity="0.95"/>
<stop offset="0.18" stop-color="#193A95" stop-opacity="0.66"/>
<stop offset="0.34" stop-color="#193B97" stop-opacity="0.42"/>
<stop offset="0.5" stop-color="#1A3C99" stop-opacity="0.24"/>
<stop offset="0.66" stop-color="#1A3D9B" stop-opacity="0.1"/>
<stop offset="0.82" stop-color="#1A3D9C" stop-opacity="0.03"/>
<stop offset="1" stop-color="#1A3D9C" stop-opacity="0"/>
</radialGradient>
<radialGradient id="paint31_radial_4_169" cx="0" cy="0" r="1" gradientUnits="userSpaceOnUse" gradientTransform="translate(20.8907 21.7008) rotate(87.1289) scale(8.16945 7.19479)">
<stop offset="0.04" stop-color="#2453D6" stop-opacity="0.6"/>
<stop offset="0.2" stop-color="#2453D6" stop-opacity="0.49"/>
<stop offset="0.52" stop-color="#2453D6" stop-opacity="0.2"/>
<stop offset="0.73" stop-color="#2453D6" stop-opacity="0"/>
</radialGradient>
</defs>
</svg>
