<svg xmlns="http://www.w3.org/2000/svg" xmlns:xlink="http://www.w3.org/1999/xlink" viewBox="0 0 90.82 69.47"><defs><style>.cls-1{fill:none;clip-rule:evenodd;}.cls-2{isolation:isolate;}.cls-3{fill:#fff;fill-rule:evenodd;}.cls-4{clip-path:url(#clip-path);}.cls-10,.cls-11,.cls-12,.cls-13,.cls-14,.cls-15,.cls-16,.cls-17,.cls-18,.cls-19,.cls-20,.cls-21,.cls-5,.cls-6,.cls-7,.cls-8,.cls-9{mix-blend-mode:multiply;opacity:0.85;}.cls-5{fill:url(#linear-gradient);}.cls-6{fill:url(#linear-gradient-2);}.cls-7{fill:url(#linear-gradient-3);}.cls-8{fill:url(#linear-gradient-4);}.cls-9{fill:url(#linear-gradient-5);}.cls-10{fill:url(#linear-gradient-6);}.cls-11{fill:url(#linear-gradient-7);}.cls-12{fill:url(#linear-gradient-8);}.cls-13{fill:url(#linear-gradient-9);}.cls-14{fill:url(#linear-gradient-10);}.cls-15{fill:url(#linear-gradient-11);}.cls-16{fill:url(#linear-gradient-12);}.cls-17{fill:url(#linear-gradient-13);}.cls-18{fill:url(#linear-gradient-14);}.cls-19{fill:url(#linear-gradient-15);}.cls-20{fill:url(#linear-gradient-16);}.cls-21{fill:url(#linear-gradient-17);}</style><clipPath id="clip-path" transform="translate(17.25 10.86)"><path class="cls-1" d="M1,16.14V33.06L16.47,47.69V31a14.17,14.17,0,0,0,1.6.08,15.36,15.36,0,0,0,0-30.72C12.23.33,5.86.06,0,.05L16.47,16.14Z"/></clipPath><linearGradient id="linear-gradient" x1="93.97" y1="104.5" x2="140.98" y2="104.5" gradientTransform="translate(-11.73 -111.48) rotate(21.17)" gradientUnits="userSpaceOnUse"><stop offset="0" stop-color="#22b5b4"/><stop offset="1" stop-color="#fff"/></linearGradient><linearGradient id="linear-gradient-2" x1="38.93" y1="143.44" x2="89.32" y2="143.44" gradientTransform="translate(61.08 -93.64) rotate(42.35)" gradientUnits="userSpaceOnUse"><stop offset="0" stop-color="#42b9c0"/><stop offset="1" stop-color="#fff"/></linearGradient><linearGradient id="linear-gradient-3" x1="244.17" y1="169.26" x2="315.46" y2="169.26" gradientTransform="translate(70.7 -292.37) rotate(63.53)" gradientUnits="userSpaceOnUse"><stop offset="0" stop-color="#5dbecc"/><stop offset="1" stop-color="#fff"/></linearGradient><linearGradient id="linear-gradient-4" x1="180.38" y1="172.18" x2="204.11" y2="172.18" gradientTransform="translate(170.92 -157.28) rotate(84.7)" xlink:href="#linear-gradient-3"/><linearGradient id="linear-gradient-5" x1="381.11" y1="76.18" x2="461.81" y2="76.18" gradientTransform="matrix(-0.27, 0.96, -0.96, -0.27, 235.27, -355.41)" gradientUnits="userSpaceOnUse"><stop offset="0" stop-color="#7cc2d6"/><stop offset="1" stop-color="#fff"/></linearGradient><linearGradient id="linear-gradient-6" x1="305.91" y1="103.3" x2="366.23" y2="103.3" gradientTransform="translate(305.29 -156.74) rotate(127.06)" gradientUnits="userSpaceOnUse"><stop offset="0" stop-color="#99c7e1"/><stop offset="1" stop-color="#fff"/></linearGradient><linearGradient id="linear-gradient-7" x1="432.91" y1="-90.19" x2="512.59" y2="-90.19" gradientTransform="matrix(-0.85, 0.53, -0.53, -0.85, 382.34, -285.95)" xlink:href="#linear-gradient-6"/><linearGradient id="linear-gradient-8" x1="361.96" y1="-46.84" x2="451.16" y2="-46.84" gradientTransform="translate(416.03 -78.95) rotate(169.41)" gradientUnits="userSpaceOnUse"><stop offset="0" stop-color="#b6cbe9"/><stop offset="1" stop-color="#fff"/></linearGradient><linearGradient id="linear-gradient-9" x1="319.62" y1="-236.21" x2="408.83" y2="-236.21" gradientTransform="translate(435.14 -136.62) rotate(-169.41)" gradientUnits="userSpaceOnUse"><stop offset="0" stop-color="#d4cfe7"/><stop offset="1" stop-color="#fff"/></linearGradient><linearGradient id="linear-gradient-10" x1="278.77" y1="-200.43" x2="378.93" y2="-200.43" gradientTransform="matrix(-0.85, -0.53, 0.53, -0.85, 411.17, 42.9)" xlink:href="#linear-gradient-9"/><linearGradient id="linear-gradient-11" x1="151.66" y1="-306.63" x2="237.65" y2="-306.63" gradientTransform="translate(377.72 11.27) rotate(-127.06)" gradientUnits="userSpaceOnUse"><stop offset="0" stop-color="#dbcfe6"/><stop offset="1" stop-color="#fff"/></linearGradient><linearGradient id="linear-gradient-12" x1="140.36" y1="-254.56" x2="215.56" y2="-254.56" gradientTransform="matrix(-0.27, -0.96, 0.96, -0.27, 321.66, 133.94)" gradientUnits="userSpaceOnUse"><stop offset="0" stop-color="#e2d1e7"/><stop offset="1" stop-color="#fff"/></linearGradient><linearGradient id="linear-gradient-13" x1="8" y1="-229.43" x2="79.99" y2="-229.43" gradientTransform="translate(243.8 90.84) rotate(-84.7)" gradientUnits="userSpaceOnUse"><stop offset="0" stop-color="#e8d3e7"/><stop offset="1" stop-color="#fff"/></linearGradient><linearGradient id="linear-gradient-14" x1="1.11" y1="-191.4" x2="85.16" y2="-191.4" gradientTransform="translate(181.77 149) rotate(-63.53)" gradientUnits="userSpaceOnUse"><stop offset="0" stop-color="#eed4e7"/><stop offset="1" stop-color="#fff"/></linearGradient><linearGradient id="linear-gradient-15" x1="-72.44" y1="-95.38" x2="-10.64" y2="-95.38" gradientTransform="translate(99.16 78.78) rotate(-42.35)" gradientUnits="userSpaceOnUse"><stop offset="0" stop-color="#f4d7e7"/><stop offset="1" stop-color="#fff"/></linearGradient><linearGradient id="linear-gradient-16" x1="-35.83" y1="-50.5" x2="55.15" y2="-50.5" gradientTransform="translate(46.17 71.05) rotate(-21.17)" gradientUnits="userSpaceOnUse"><stop offset="0" stop-color="#f4d7e8"/><stop offset="1" stop-color="#fff"/></linearGradient><linearGradient id="linear-gradient-17" x1="-17.25" y1="23.87" x2="33.04" y2="23.87" gradientTransform="translate(0 0)" gradientUnits="userSpaceOnUse"><stop offset="0" stop-color="#f4d9e9"/><stop offset="1" stop-color="#fff"/></linearGradient></defs><g class="cls-2"><g id="Layer_2" data-name="Layer 2"><g id="Layer_1-2" data-name="Layer 1"><path class="cls-3" d="M1,16.09V33L16.51,47.63V30.92c.53,0,1.06.08,1.6.08a15.37,15.37,0,1,0,0-30.73C12.28.27,5.9,0,0,0L16.51,16.09Z" transform="translate(17.25 10.86)"/><g class="cls-4"><path class="cls-5" d="M63.27-10.86C53.51,6,32.82,41.87,23.16,58.61H73.58V-10.86Z" transform="translate(17.25 10.86)"/><path class="cls-6" d="M-17.25,58.61H43.16c-3-5.27-4.93-8.54-4.93-8.54H-17.25Z" transform="translate(17.25 10.86)"/><path class="cls-7" d="M53.15-10.86,13,58.61H73.58V6.18l-9.85-17Z" transform="translate(17.25 10.86)"/><path class="cls-8" d="M-17.25,58.61H53.27c-5.88-10.18-10-17.3-10-17.3H-17.25Z" transform="translate(17.25 10.86)"/><path class="cls-9" d="M43-10.86C33.28,6,12.59,41.87,2.93,58.61H73.58V23.7l-20-34.56Z" transform="translate(17.25 10.86)"/><path class="cls-10" d="M-17.25,58.61H63.39l-15-26.06H-17.25Z" transform="translate(17.25 10.86)"/><path class="cls-11" d="M32.92-10.86-7.19,58.61H73.58V41.22L43.51-10.86Z" transform="translate(17.25 10.86)"/><path class="cls-12" d="M-17.25,58.61H73.5L53.4,23.79H-17.25Z" transform="translate(17.25 10.86)"/><path class="cls-13" d="M-17.25,58.61H73.5L33.39-10.86H22.81L-17.25,58.51Z" transform="translate(17.25 10.86)"/><path class="cls-14" d="M-17.25,58.61H73.58V41.22L58.46,15H-17.25Z" transform="translate(17.25 10.86)"/><path class="cls-15" d="M-17.25,58.61H63.39L23.28-10.86H12.69L-17.25,41Z" transform="translate(17.25 10.86)"/><path class="cls-16" d="M-17.25,41.58l9.83,17h81V23.7L63.51,6.27H-17.25Z" transform="translate(17.25 10.86)"/><path class="cls-17" d="M-17.25,58.61H53.27L13.16-10.86H2.58L-17.25,23.47Z" transform="translate(17.25 10.86)"/><path class="cls-18" d="M-17.25,24.06l20,34.55H73.58V6.18l-5-8.67H-17.25Z" transform="translate(17.25 10.86)"/><path class="cls-19" d="M-17.25,58.61H43.16L3.05-10.86H-7.54c-2.59,4.5-6,10.34-9.71,16.81Z" transform="translate(17.25 10.86)"/><path class="cls-20" d="M-17.25,6.54c8.77,15.18,21.31,36.9,30.06,52.07H73.58V-10.86H-17.25Z" transform="translate(17.25 10.86)"/><path class="cls-21" d="M-17.25,58.61H33L-7.07-10.86H-17.25Z" transform="translate(17.25 10.86)"/></g></g></g></g></svg>