<svg width="61" height="87" viewBox="0 0 61 87" fill="none" xmlns="http://www.w3.org/2000/svg">
<path fill-rule="evenodd" clip-rule="evenodd" d="M1.83791 29.4921V59.9189L29.7456 86.2432V56.1763C30.6993 56.1763 31.6529 56.3202 32.6246 56.3202C36.3146 56.4144 39.9861 55.7689 43.4227 54.4218C46.8593 53.0748 49.9914 51.0534 52.6346 48.4769C55.2777 45.9003 57.3783 42.8207 58.8126 39.4196C60.2469 36.0184 60.9858 32.3646 60.9858 28.6734C60.9858 24.9822 60.2469 21.3284 58.8126 17.9273C57.3783 14.5261 55.2777 11.4465 52.6346 8.86998C49.9914 6.29343 46.8593 4.27205 43.4227 2.92499C39.9861 1.57793 36.3146 0.932449 32.6246 1.02659C22.1344 1.02659 10.6547 0.540771 0.0385742 0.540771L29.7456 29.4921H1.83791Z" fill="white"/>
</svg>
