<svg width="280" height="96" viewBox="0 0 280 96" fill="none" xmlns="http://www.w3.org/2000/svg">
<g filter="url(#filter0_b_4_278)">
<rect width="280" height="96" rx="16" fill="url(#paint0_linear_4_278)" fill-opacity="0.6"/>
<rect x="0.5" y="0.5" width="279" height="95" rx="15.5" stroke="url(#paint1_linear_4_278)"/>
</g>
<path d="M28.8 42H25.168V30.512H28.8C29.9733 30.512 30.976 30.7573 31.808 31.248C32.6507 31.728 33.296 32.3947 33.744 33.248C34.192 34.1013 34.416 35.088 34.416 36.208C34.416 37.3173 34.1867 38.3093 33.728 39.184C33.2693 40.048 32.6187 40.736 31.776 41.248C30.9333 41.7493 29.9413 42 28.8 42ZM26.928 32.032V40.48H28.72C29.552 40.48 30.256 40.3093 30.832 39.968C31.408 39.616 31.8453 39.12 32.144 38.48C32.4533 37.84 32.608 37.0827 32.608 36.208C32.608 35.344 32.4533 34.6027 32.144 33.984C31.8453 33.3547 31.408 32.8747 30.832 32.544C30.256 32.2027 29.552 32.032 28.72 32.032H26.928ZM43.5444 39.136C43.3204 40.0747 42.867 40.816 42.1844 41.36C41.5017 41.8933 40.659 42.16 39.6564 42.16C38.8457 42.16 38.131 41.9787 37.5124 41.616C36.9044 41.2427 36.4244 40.7253 36.0724 40.064C35.731 39.392 35.5604 38.608 35.5604 37.712C35.5604 36.8693 35.7364 36.1227 36.0884 35.472C36.4404 34.8213 36.9204 34.3093 37.5284 33.936C38.1364 33.552 38.8297 33.36 39.6084 33.36C40.2484 33.36 40.8244 33.4827 41.3364 33.728C41.8484 33.9627 42.2804 34.2987 42.6324 34.736C42.9844 35.1627 43.2404 35.6693 43.4004 36.256C43.5604 36.8427 43.6084 37.4773 43.5444 38.16H37.2404C37.251 38.7147 37.3577 39.2 37.5604 39.616C37.763 40.0213 38.0404 40.336 38.3924 40.56C38.7444 40.784 39.155 40.896 39.6244 40.896C40.2324 40.896 40.7337 40.7413 41.1284 40.432C41.5337 40.1227 41.8004 39.6907 41.9284 39.136H43.5444ZM39.5764 34.576C39.1497 34.576 38.7657 34.6827 38.4244 34.896C38.083 35.1093 37.8057 35.4027 37.5924 35.776C37.3897 36.1493 37.2724 36.5867 37.2404 37.088H41.8164C41.7844 36.3093 41.5657 35.696 41.1604 35.248C40.755 34.8 40.227 34.576 39.5764 34.576ZM52.3494 33.52L49.1654 42H47.4054L44.2214 33.52H45.9654L48.3334 40.144L50.7014 33.52H52.3494ZM60.9506 39.136C60.7266 40.0747 60.2733 40.816 59.5906 41.36C58.908 41.8933 58.0653 42.16 57.0626 42.16C56.252 42.16 55.5373 41.9787 54.9186 41.616C54.3106 41.2427 53.8306 40.7253 53.4786 40.064C53.1373 39.392 52.9666 38.608 52.9666 37.712C52.9666 36.8693 53.1426 36.1227 53.4946 35.472C53.8466 34.8213 54.3266 34.3093 54.9346 33.936C55.5426 33.552 56.236 33.36 57.0146 33.36C57.6546 33.36 58.2306 33.4827 58.7426 33.728C59.2546 33.9627 59.6866 34.2987 60.0386 34.736C60.3906 35.1627 60.6466 35.6693 60.8066 36.256C60.9666 36.8427 61.0146 37.4773 60.9506 38.16H54.6466C54.6573 38.7147 54.764 39.2 54.9666 39.616C55.1693 40.0213 55.4466 40.336 55.7986 40.56C56.1506 40.784 56.5613 40.896 57.0306 40.896C57.6386 40.896 58.14 40.7413 58.5346 40.432C58.94 40.1227 59.2066 39.6907 59.3346 39.136H60.9506ZM56.9826 34.576C56.556 34.576 56.172 34.6827 55.8306 34.896C55.4893 35.1093 55.212 35.4027 54.9986 35.776C54.796 36.1493 54.6786 36.5867 54.6466 37.088H59.2226C59.1906 36.3093 58.972 35.696 58.5666 35.248C58.1613 34.8 57.6333 34.576 56.9826 34.576ZM64.3618 42H62.7458V30.512H64.3618V42ZM74.4276 37.76C74.4276 38.3893 74.321 38.9707 74.1076 39.504C73.905 40.0373 73.617 40.5067 73.2436 40.912C72.8703 41.3067 72.4276 41.616 71.9156 41.84C71.4143 42.0533 70.8596 42.16 70.2516 42.16C69.6543 42.16 69.0996 42.0533 68.5876 41.84C68.0863 41.616 67.649 41.3067 67.2756 40.912C66.9023 40.5067 66.609 40.0373 66.3956 39.504C66.193 38.9707 66.0916 38.3893 66.0916 37.76C66.0916 37.1307 66.193 36.5493 66.3956 36.016C66.609 35.4827 66.9023 35.0187 67.2756 34.624C67.649 34.2187 68.0863 33.9093 68.5876 33.696C69.0996 33.472 69.6543 33.36 70.2516 33.36C70.8596 33.36 71.4143 33.472 71.9156 33.696C72.4276 33.9093 72.8703 34.2187 73.2436 34.624C73.617 35.0187 73.905 35.4827 74.1076 36.016C74.321 36.5493 74.4276 37.1307 74.4276 37.76ZM67.7556 37.76C67.7556 38.368 67.8676 38.896 68.0916 39.344C68.3156 39.792 68.6143 40.1387 68.9876 40.384C69.3716 40.6187 69.793 40.736 70.2516 40.736C70.721 40.736 71.1423 40.6187 71.5156 40.384C71.8996 40.1387 72.1983 39.792 72.4116 39.344C72.6356 38.896 72.7476 38.368 72.7476 37.76C72.7476 37.1413 72.6356 36.6133 72.4116 36.176C72.1983 35.728 71.8996 35.3867 71.5156 35.152C71.1423 34.9173 70.721 34.8 70.2516 34.8C69.793 34.8 69.3716 34.9173 68.9876 35.152C68.6143 35.3867 68.3156 35.728 68.0916 36.176C67.8676 36.6133 67.7556 37.1413 67.7556 37.76ZM80.408 42.16C79.832 42.16 79.3093 42.0213 78.84 41.744C78.3707 41.4667 77.9813 41.072 77.672 40.56V45.088H76.072V33.52H77.576V35.072C77.8853 34.528 78.2853 34.1067 78.776 33.808C79.2667 33.5093 79.8107 33.36 80.408 33.36C81.1653 33.36 81.8213 33.552 82.376 33.936C82.9307 34.3093 83.3627 34.8267 83.672 35.488C83.9813 36.1493 84.136 36.9067 84.136 37.76C84.136 38.6133 83.9813 39.3707 83.672 40.032C83.3627 40.6933 82.9307 41.216 82.376 41.6C81.8213 41.9733 81.1653 42.16 80.408 42.16ZM77.672 37.76C77.672 38.3787 77.7787 38.912 77.992 39.36C78.2053 39.7973 78.4933 40.1333 78.856 40.368C79.2187 40.6027 79.624 40.72 80.072 40.72C80.7653 40.72 81.336 40.464 81.784 39.952C82.2427 39.44 82.472 38.7093 82.472 37.76C82.472 36.8107 82.2427 36.08 81.784 35.568C81.336 35.0453 80.7653 34.784 80.072 34.784C79.4 34.784 78.8347 35.0453 78.376 35.568C77.9173 36.08 77.6827 36.8107 77.672 37.76ZM93.2944 39.136C93.0704 40.0747 92.617 40.816 91.9344 41.36C91.2517 41.8933 90.409 42.16 89.4064 42.16C88.5957 42.16 87.881 41.9787 87.2624 41.616C86.6544 41.2427 86.1744 40.7253 85.8224 40.064C85.481 39.392 85.3104 38.608 85.3104 37.712C85.3104 36.8693 85.4864 36.1227 85.8384 35.472C86.1904 34.8213 86.6704 34.3093 87.2784 33.936C87.8864 33.552 88.5797 33.36 89.3584 33.36C89.9984 33.36 90.5744 33.4827 91.0864 33.728C91.5984 33.9627 92.0304 34.2987 92.3824 34.736C92.7344 35.1627 92.9904 35.6693 93.1504 36.256C93.3104 36.8427 93.3584 37.4773 93.2944 38.16H86.9904C87.001 38.7147 87.1077 39.2 87.3104 39.616C87.513 40.0213 87.7904 40.336 88.1424 40.56C88.4944 40.784 88.905 40.896 89.3744 40.896C89.9824 40.896 90.4837 40.7413 90.8784 40.432C91.2837 40.1227 91.5504 39.6907 91.6784 39.136H93.2944ZM89.3264 34.576C88.8997 34.576 88.5157 34.6827 88.1744 34.896C87.833 35.1093 87.5557 35.4027 87.3424 35.776C87.1397 36.1493 87.0224 36.5867 86.9904 37.088H91.5664C91.5344 36.3093 91.3157 35.696 90.9104 35.248C90.505 34.8 89.977 34.576 89.3264 34.576ZM101.122 42V40.48C100.812 41.0133 100.407 41.4293 99.9055 41.728C99.4148 42.016 98.8708 42.16 98.2735 42.16C97.5162 42.16 96.8548 41.9733 96.2895 41.6C95.7242 41.216 95.2868 40.6933 94.9775 40.032C94.6682 39.36 94.5135 38.6027 94.5135 37.76C94.5135 36.9067 94.6682 36.1493 94.9775 35.488C95.2868 34.816 95.7242 34.2933 96.2895 33.92C96.8548 33.5467 97.5162 33.36 98.2735 33.36C98.8495 33.36 99.3722 33.504 99.8415 33.792C100.322 34.0693 100.711 34.464 101.01 34.976V30.512H102.61V42H101.122ZM96.1775 37.76C96.1775 38.7093 96.4015 39.44 96.8495 39.952C97.3082 40.464 97.8895 40.72 98.5935 40.72C99.0628 40.72 99.4788 40.6027 99.8415 40.368C100.215 40.1227 100.503 39.776 100.706 39.328C100.919 38.88 101.02 38.3467 101.01 37.728C100.999 36.7787 100.759 36.0533 100.29 35.552C99.8308 35.04 99.2655 34.784 98.5935 34.784C97.8895 34.784 97.3082 35.04 96.8495 35.552C96.4015 36.064 96.1775 36.8 96.1775 37.76ZM116.745 37.76C116.745 38.6027 116.591 39.36 116.281 40.032C115.972 40.6933 115.54 41.216 114.985 41.6C114.431 41.9733 113.775 42.16 113.017 42.16C112.42 42.16 111.876 42.016 111.385 41.728C110.895 41.4293 110.495 41.0133 110.185 40.48V42H108.681V30.512H110.281V34.992C110.58 34.4693 110.964 34.0693 111.433 33.792C111.913 33.504 112.441 33.36 113.017 33.36C113.775 33.36 114.431 33.5467 114.985 33.92C115.54 34.2933 115.972 34.816 116.281 35.488C116.591 36.1493 116.745 36.9067 116.745 37.76ZM110.281 37.728C110.271 38.3467 110.372 38.88 110.585 39.328C110.799 39.776 111.087 40.1227 111.449 40.368C111.823 40.6027 112.233 40.72 112.681 40.72C113.375 40.72 113.945 40.464 114.393 39.952C114.852 39.44 115.081 38.7093 115.081 37.76C115.081 36.8 114.852 36.064 114.393 35.552C113.945 35.04 113.375 34.784 112.681 34.784C112.009 34.784 111.444 35.04 110.985 35.552C110.537 36.0533 110.303 36.7787 110.281 37.728ZM125.474 33.52L121.234 45.088H119.474L120.69 41.888L117.346 33.52H119.09L121.554 39.984L123.842 33.52H125.474ZM140.028 37.632C140.028 38.5387 139.841 39.3387 139.468 40.032C139.105 40.7253 138.572 41.2693 137.868 41.664C137.164 42.048 136.31 42.24 135.308 42.24C134.294 42.24 133.436 42.048 132.732 41.664C132.028 41.2693 131.489 40.7253 131.116 40.032C130.753 39.3387 130.572 38.5387 130.572 37.632V30.512H133.004V37.68C133.004 38.1493 133.084 38.5653 133.244 38.928C133.414 39.2907 133.665 39.5733 133.996 39.776C134.337 39.968 134.774 40.064 135.308 40.064C135.852 40.064 136.289 39.968 136.62 39.776C136.961 39.5733 137.206 39.2907 137.356 38.928C137.516 38.5653 137.596 38.1493 137.596 37.68V30.512H140.028V37.632ZM150.518 37.728C150.518 38.56 150.358 39.312 150.038 39.984C149.729 40.656 149.291 41.1893 148.726 41.584C148.171 41.968 147.505 42.16 146.726 42.16C146.182 42.16 145.681 42.0373 145.222 41.792C144.763 41.5467 144.369 41.2053 144.038 40.768V42H142.006V30.512H144.214V34.576C144.534 34.16 144.907 33.8453 145.334 33.632C145.761 33.408 146.225 33.296 146.726 33.296C147.494 33.296 148.161 33.488 148.726 33.872C149.291 34.256 149.729 34.784 150.038 35.456C150.358 36.128 150.518 36.8853 150.518 37.728ZM144.23 37.696C144.219 38.2293 144.305 38.6827 144.486 39.056C144.667 39.4187 144.913 39.696 145.222 39.888C145.531 40.08 145.867 40.176 146.23 40.176C146.774 40.176 147.243 39.968 147.638 39.552C148.033 39.136 148.23 38.528 148.23 37.728C148.23 36.9067 148.033 36.2933 147.638 35.888C147.243 35.472 146.774 35.264 146.23 35.264C145.697 35.264 145.233 35.4667 144.838 35.872C144.443 36.2773 144.241 36.8853 144.23 37.696ZM159.658 39.104C159.423 40.064 158.948 40.8107 158.234 41.344C157.53 41.8773 156.66 42.144 155.626 42.144C154.772 42.144 154.026 41.9627 153.386 41.6C152.746 41.2267 152.244 40.7093 151.882 40.048C151.53 39.376 151.354 38.592 151.354 37.696C151.354 36.8427 151.535 36.0853 151.898 35.424C152.26 34.7627 152.762 34.2453 153.402 33.872C154.042 33.488 154.772 33.296 155.594 33.296C156.266 33.296 156.874 33.424 157.418 33.68C157.972 33.9253 158.436 34.2773 158.81 34.736C159.183 35.1947 159.45 35.728 159.61 36.336C159.77 36.9333 159.796 37.5787 159.69 38.272H153.658C153.668 38.7093 153.754 39.0933 153.914 39.424C154.074 39.744 154.292 39.9947 154.57 40.176C154.858 40.3467 155.188 40.432 155.562 40.432C156.052 40.432 156.458 40.3147 156.778 40.08C157.108 39.8453 157.338 39.52 157.466 39.104H159.658ZM155.546 34.928C155.194 34.928 154.879 35.008 154.602 35.168C154.335 35.328 154.116 35.5573 153.946 35.856C153.786 36.144 153.69 36.48 153.658 36.864H157.322C157.311 36.2773 157.14 35.808 156.81 35.456C156.49 35.104 156.068 34.928 155.546 34.928ZM163.308 37.856V42H161.1V33.456H163.132V35.104C163.452 34.56 163.911 34.128 164.508 33.808C165.105 33.4773 165.761 33.3493 166.476 33.424V35.664C165.847 35.6107 165.292 35.6373 164.812 35.744C164.343 35.8507 163.975 36.0747 163.708 36.416C163.441 36.7467 163.308 37.2267 163.308 37.856ZM179.067 42L178.123 41.008C177.824 41.3173 177.461 41.5733 177.035 41.776C176.608 41.9787 176.139 42.1013 175.627 42.144C175.552 42.144 175.477 42.144 175.403 42.144C175.328 42.144 175.248 42.144 175.163 42.144C174.352 42.1227 173.669 41.9627 173.115 41.664C172.56 41.3653 172.133 40.976 171.835 40.496C171.536 40.0053 171.36 39.4773 171.307 38.912C171.307 38.8373 171.307 38.768 171.307 38.704C171.307 38.64 171.307 38.576 171.307 38.512C171.328 38.064 171.429 37.664 171.611 37.312C171.803 36.96 172.048 36.6507 172.347 36.384C172.645 36.1067 172.96 35.8773 173.291 35.696C173.099 35.3973 172.949 35.1147 172.843 34.848C172.747 34.5813 172.693 34.32 172.683 34.064C172.672 33.8187 172.688 33.5733 172.731 33.328C172.869 32.6987 173.221 32.1653 173.787 31.728C174.363 31.2907 175.077 31.056 175.931 31.024C176.016 31.024 176.096 31.024 176.171 31.024C176.256 31.024 176.336 31.0293 176.411 31.04C176.997 31.0827 177.504 31.232 177.931 31.488C178.357 31.744 178.688 32.0853 178.923 32.512C179.168 32.928 179.291 33.408 179.291 33.952H177.227C177.195 33.6853 177.12 33.4667 177.003 33.296C176.896 33.1253 176.757 33.0027 176.587 32.928C176.427 32.8427 176.245 32.8 176.043 32.8C176.011 32.8 175.973 32.8053 175.931 32.816C175.899 32.816 175.872 32.8213 175.851 32.832C175.605 32.864 175.392 32.976 175.211 33.168C175.029 33.3493 174.939 33.6 174.939 33.92C174.939 34.1333 174.981 34.336 175.067 34.528C175.163 34.72 175.285 34.912 175.435 35.104C175.595 35.296 175.776 35.504 175.979 35.728C176.032 35.7813 176.08 35.8347 176.123 35.888C176.165 35.9307 176.213 35.9787 176.267 36.032L177.947 37.92C178.021 37.7173 178.08 37.4933 178.123 37.248C178.165 36.992 178.192 36.7253 178.203 36.448H180.235C180.224 36.864 180.155 37.3333 180.027 37.856C179.899 38.368 179.68 38.8853 179.371 39.408L181.803 42H179.067ZM173.419 38.496C173.419 38.816 173.483 39.1093 173.611 39.376C173.749 39.6427 173.952 39.8613 174.219 40.032C174.485 40.2027 174.805 40.2987 175.179 40.32C175.232 40.3307 175.291 40.336 175.355 40.336C175.419 40.3253 175.472 40.32 175.515 40.32C175.792 40.3093 176.043 40.256 176.267 40.16C176.501 40.064 176.709 39.9253 176.891 39.744L174.731 37.36C174.677 37.296 174.624 37.2373 174.571 37.184C174.517 37.1307 174.464 37.0773 174.411 37.024C174.123 37.152 173.883 37.344 173.691 37.6C173.509 37.8453 173.419 38.144 173.419 38.496ZM198.13 35.808C198.205 36.768 198.114 37.6427 197.858 38.432C197.613 39.2107 197.229 39.888 196.706 40.464C196.194 41.0293 195.565 41.4667 194.818 41.776C194.082 42.0853 193.256 42.24 192.338 42.24C191.506 42.24 190.728 42.096 190.002 41.808C189.288 41.5093 188.658 41.0933 188.114 40.56C187.581 40.0267 187.165 39.392 186.866 38.656C186.568 37.9093 186.418 37.0933 186.418 36.208C186.418 35.3547 186.562 34.5707 186.85 33.856C187.138 33.1413 187.544 32.512 188.066 31.968C188.589 31.424 189.202 31.008 189.906 30.72C190.621 30.4213 191.4 30.272 192.242 30.272C193.213 30.272 194.082 30.4533 194.85 30.816C195.629 31.168 196.28 31.6587 196.802 32.288C197.336 32.9173 197.73 33.6533 197.986 34.496H195.122C195.005 34.1013 194.813 33.7547 194.546 33.456C194.28 33.1467 193.949 32.9013 193.554 32.72C193.16 32.5387 192.701 32.448 192.178 32.448C191.56 32.448 191 32.5973 190.498 32.896C190.008 33.184 189.618 33.616 189.33 34.192C189.053 34.7573 188.914 35.4507 188.914 36.272C188.914 37.008 189.048 37.6693 189.314 38.256C189.581 38.8427 189.976 39.312 190.498 39.664C191.032 40.0053 191.682 40.176 192.45 40.176C193.016 40.176 193.506 40.0747 193.922 39.872C194.349 39.6587 194.696 39.3707 194.962 39.008C195.24 38.6347 195.432 38.2133 195.538 37.744H192.21V35.808H198.13ZM201.808 37.856V42H199.6V33.456H201.632V35.104C201.952 34.56 202.411 34.128 203.008 33.808C203.605 33.4773 204.261 33.3493 204.976 33.424V35.664C204.347 35.6107 203.792 35.6373 203.312 35.744C202.843 35.8507 202.475 36.0747 202.208 36.416C201.941 36.7467 201.808 37.2267 201.808 37.856ZM211.364 42V40.864C211.14 41.2373 210.815 41.5467 210.388 41.792C209.972 42.0373 209.498 42.16 208.964 42.16C208.399 42.16 207.887 42.0427 207.428 41.808C206.98 41.5733 206.628 41.216 206.372 40.736C206.127 40.2453 206.004 39.632 206.004 38.896V33.456H208.212V38.464C208.212 39.0613 208.346 39.4987 208.612 39.776C208.879 40.0533 209.231 40.192 209.668 40.192C209.935 40.192 210.186 40.1227 210.42 39.984C210.655 39.8453 210.842 39.6427 210.98 39.376C211.119 39.0987 211.188 38.7733 211.188 38.4V33.456H213.396V42H211.364ZM223.768 37.728C223.768 38.56 223.608 39.312 223.288 39.984C222.979 40.656 222.541 41.1893 221.976 41.584C221.421 41.968 220.755 42.16 219.976 42.16C219.432 42.16 218.931 42.0373 218.472 41.792C218.013 41.5467 217.619 41.2053 217.288 40.768V42H215.256V30.512H217.464V34.576C217.784 34.16 218.157 33.8453 218.584 33.632C219.011 33.408 219.475 33.296 219.976 33.296C220.744 33.296 221.411 33.488 221.976 33.872C222.541 34.256 222.979 34.784 223.288 35.456C223.608 36.128 223.768 36.8853 223.768 37.728ZM217.48 37.696C217.469 38.2293 217.555 38.6827 217.736 39.056C217.917 39.4187 218.163 39.696 218.472 39.888C218.781 40.08 219.117 40.176 219.48 40.176C220.024 40.176 220.493 39.968 220.888 39.552C221.283 39.136 221.48 38.528 221.48 37.728C221.48 36.9067 221.283 36.2933 220.888 35.888C220.493 35.472 220.024 35.264 219.48 35.264C218.947 35.264 218.483 35.4667 218.088 35.872C217.693 36.2773 217.491 36.8853 217.48 37.696ZM227.756 42H225.324V30.512H227.756V35.04H232.748V30.512H235.18V42H232.748V37.136H227.756V42ZM242.521 42V40.864C242.297 41.2373 241.971 41.5467 241.545 41.792C241.129 42.0373 240.654 42.16 240.121 42.16C239.555 42.16 239.043 42.0427 238.585 41.808C238.137 41.5733 237.785 41.216 237.529 40.736C237.283 40.2453 237.161 39.632 237.161 38.896V33.456H239.369V38.464C239.369 39.0613 239.502 39.4987 239.769 39.776C240.035 40.0533 240.387 40.192 240.825 40.192C241.091 40.192 241.342 40.1227 241.577 39.984C241.811 39.8453 241.998 39.6427 242.137 39.376C242.275 39.0987 242.345 38.7733 242.345 38.4V33.456H244.553V42H242.521ZM254.924 37.728C254.924 38.56 254.764 39.312 254.444 39.984C254.135 40.656 253.698 41.1893 253.132 41.584C252.578 41.968 251.911 42.16 251.132 42.16C250.588 42.16 250.087 42.0373 249.628 41.792C249.17 41.5467 248.775 41.2053 248.444 40.768V42H246.412V30.512H248.62V34.576C248.94 34.16 249.314 33.8453 249.74 33.632C250.167 33.408 250.631 33.296 251.132 33.296C251.9 33.296 252.567 33.488 253.132 33.872C253.698 34.256 254.135 34.784 254.444 35.456C254.764 36.128 254.924 36.8853 254.924 37.728ZM248.636 37.696C248.626 38.2293 248.711 38.6827 248.892 39.056C249.074 39.4187 249.319 39.696 249.628 39.888C249.938 40.08 250.274 40.176 250.636 40.176C251.18 40.176 251.65 39.968 252.044 39.552C252.439 39.136 252.636 38.528 252.636 37.728C252.636 36.9067 252.439 36.2933 252.044 35.888C251.65 35.472 251.18 35.264 250.636 35.264C250.103 35.264 249.639 35.4667 249.244 35.872C248.85 36.2773 248.647 36.8853 248.636 37.696ZM31.776 63.472C31.776 64.2613 31.472 64.9067 30.864 65.408C30.256 65.9093 29.3813 66.16 28.24 66.16C27.184 66.16 26.3147 65.904 25.632 65.392C24.96 64.88 24.5867 64.16 24.512 63.232H26.048C26.08 63.7867 26.2933 64.2133 26.688 64.512C27.0933 64.8 27.6 64.944 28.208 64.944C28.8587 64.944 29.344 64.832 29.664 64.608C29.984 64.3733 30.144 64.0693 30.144 63.696C30.144 63.3653 30.0267 63.1147 29.792 62.944C29.5573 62.7627 29.1787 62.624 28.656 62.528L27.296 62.272C26.5387 62.1227 25.9413 61.856 25.504 61.472C25.0667 61.0773 24.848 60.5493 24.848 59.888C24.848 59.3867 24.9867 58.9493 25.264 58.576C25.552 58.192 25.9413 57.8933 26.432 57.68C26.9227 57.456 27.4827 57.344 28.112 57.344C28.7947 57.344 29.392 57.4613 29.904 57.696C30.416 57.9307 30.8213 58.2613 31.12 58.688C31.4293 59.104 31.6053 59.6053 31.648 60.192H30.112C30.0693 59.6693 29.8667 59.2693 29.504 58.992C29.152 58.704 28.688 58.56 28.112 58.56C27.5893 58.56 27.1733 58.6773 26.864 58.912C26.5547 59.136 26.4 59.424 26.4 59.776C26.4 60.1067 26.5227 60.3627 26.768 60.544C27.0133 60.7147 27.3813 60.848 27.872 60.944L29.312 61.216C30.144 61.3653 30.7627 61.6267 31.168 62C31.5733 62.3733 31.776 62.864 31.776 63.472ZM41.287 61.76C41.287 62.3893 41.1803 62.9707 40.967 63.504C40.7643 64.0373 40.4763 64.5067 40.103 64.912C39.7297 65.3067 39.287 65.616 38.775 65.84C38.2737 66.0533 37.719 66.16 37.111 66.16C36.5137 66.16 35.959 66.0533 35.447 65.84C34.9457 65.616 34.5083 65.3067 34.135 64.912C33.7617 64.5067 33.4683 64.0373 33.255 63.504C33.0523 62.9707 32.951 62.3893 32.951 61.76C32.951 61.1307 33.0523 60.5493 33.255 60.016C33.4683 59.4827 33.7617 59.0187 34.135 58.624C34.5083 58.2187 34.9457 57.9093 35.447 57.696C35.959 57.472 36.5137 57.36 37.111 57.36C37.719 57.36 38.2737 57.472 38.775 57.696C39.287 57.9093 39.7297 58.2187 40.103 58.624C40.4763 59.0187 40.7643 59.4827 40.967 60.016C41.1803 60.5493 41.287 61.1307 41.287 61.76ZM34.615 61.76C34.615 62.368 34.727 62.896 34.951 63.344C35.175 63.792 35.4737 64.1387 35.847 64.384C36.231 64.6187 36.6523 64.736 37.111 64.736C37.5803 64.736 38.0017 64.6187 38.375 64.384C38.759 64.1387 39.0577 63.792 39.271 63.344C39.495 62.896 39.607 62.368 39.607 61.76C39.607 61.1413 39.495 60.6133 39.271 60.176C39.0577 59.728 38.759 59.3867 38.375 59.152C38.0017 58.9173 37.5803 58.8 37.111 58.8C36.6523 58.8 36.231 58.9173 35.847 59.152C35.4737 59.3867 35.175 59.728 34.951 60.176C34.727 60.6133 34.615 61.1413 34.615 61.76ZM45.3154 66H43.6994V58.896H41.8434V57.52H43.6994V56.896C43.6994 56.0747 43.9127 55.4507 44.3394 55.024C44.766 54.5867 45.3847 54.368 46.1954 54.368C46.43 54.368 46.6434 54.3893 46.8354 54.432C47.0274 54.464 47.2034 54.512 47.3634 54.576V55.888C47.246 55.8347 47.118 55.7973 46.9794 55.776C46.8407 55.7547 46.6967 55.744 46.5474 55.744C46.1634 55.744 45.8594 55.84 45.6354 56.032C45.422 56.2133 45.3154 56.5067 45.3154 56.912V57.52H47.6994V58.896H45.3154V66ZM53.5904 65.856C53.3557 65.9733 53.121 66.0533 52.8864 66.096C52.6624 66.1387 52.417 66.16 52.1504 66.16C51.6277 66.16 51.169 66.064 50.7744 65.872C50.3797 65.68 50.065 65.3813 49.8304 64.976C49.6064 64.5707 49.4944 64.0587 49.4944 63.44V58.896H47.6384V57.52H49.4944V55.008H51.1104V57.52H53.6704V58.896H51.1104V63.072C51.1104 63.6587 51.2384 64.0693 51.4944 64.304C51.761 64.5387 52.113 64.656 52.5504 64.656C52.7424 64.656 52.9237 64.64 53.0944 64.608C53.265 64.5653 53.4304 64.5067 53.5904 64.432V65.856ZM62.3955 66L60.4755 59.696L58.5395 66H56.9075L54.4595 57.52H56.0435L57.7715 63.696L59.6755 57.52H61.2755L63.1635 63.712L64.8755 57.52H66.4915L64.0275 66H62.3955ZM72.926 66V64.688C72.67 65.1573 72.3073 65.52 71.838 65.776C71.3793 66.032 70.8353 66.16 70.206 66.16C69.3313 66.16 68.6273 65.9307 68.094 65.472C67.5607 65.0027 67.294 64.3787 67.294 63.6C67.294 62.768 67.6193 62.1387 68.27 61.712C68.9313 61.2853 69.8913 61.072 71.15 61.072C71.406 61.072 71.6567 61.0827 71.902 61.104C72.1473 61.1147 72.4247 61.136 72.734 61.168V60.544C72.734 59.936 72.574 59.4667 72.254 59.136C71.9447 58.8053 71.5127 58.64 70.958 58.64C70.3713 58.64 69.902 58.8053 69.55 59.136C69.198 59.456 69.0167 59.92 69.006 60.528H67.534C67.566 59.9093 67.7313 59.3653 68.03 58.896C68.3287 58.416 68.7287 58.0427 69.23 57.776C69.742 57.4987 70.318 57.36 70.958 57.36C72.0033 57.36 72.814 57.6427 73.39 58.208C73.9767 58.7627 74.27 59.5467 74.27 60.56V66H72.926ZM68.846 63.552C68.846 63.9893 68.9953 64.3413 69.294 64.608C69.6033 64.8747 70.014 65.008 70.526 65.008C71.198 65.008 71.7313 64.816 72.126 64.432C72.5313 64.0373 72.734 63.5147 72.734 62.864V62.176C72.478 62.144 72.2273 62.1227 71.982 62.112C71.7367 62.0907 71.4913 62.08 71.246 62.08C70.446 62.08 69.8433 62.2027 69.438 62.448C69.0433 62.6827 68.846 63.0507 68.846 63.552ZM77.9536 61.664V66H76.3376V57.52H77.8416V59.312C78.1403 58.7253 78.583 58.256 79.1696 57.904C79.7563 57.552 80.4016 57.3973 81.1056 57.44V59.088C80.4976 59.056 79.9536 59.1253 79.4736 59.296C79.0043 59.4667 78.631 59.7493 78.3536 60.144C78.087 60.528 77.9536 61.0347 77.9536 61.664ZM89.8413 63.136C89.6173 64.0747 89.1639 64.816 88.4813 65.36C87.7986 65.8933 86.9559 66.16 85.9533 66.16C85.1426 66.16 84.4279 65.9787 83.8093 65.616C83.2013 65.2427 82.7213 64.7253 82.3693 64.064C82.0279 63.392 81.8573 62.608 81.8573 61.712C81.8573 60.8693 82.0333 60.1227 82.3853 59.472C82.7373 58.8213 83.2173 58.3093 83.8253 57.936C84.4333 57.552 85.1266 57.36 85.9053 57.36C86.5453 57.36 87.1213 57.4827 87.6333 57.728C88.1453 57.9627 88.5773 58.2987 88.9293 58.736C89.2813 59.1627 89.5373 59.6693 89.6973 60.256C89.8573 60.8427 89.9053 61.4773 89.8413 62.16H83.5373C83.5479 62.7147 83.6546 63.2 83.8573 63.616C84.0599 64.0213 84.3373 64.336 84.6893 64.56C85.0413 64.784 85.4519 64.896 85.9213 64.896C86.5293 64.896 87.0306 64.7413 87.4253 64.432C87.8306 64.1227 88.0973 63.6907 88.2253 63.136H89.8413ZM85.8733 58.576C85.4466 58.576 85.0626 58.6827 84.7213 58.896C84.3799 59.1093 84.1026 59.4027 83.8893 59.776C83.6866 60.1493 83.5693 60.5867 83.5373 61.088H88.1133C88.0813 60.3093 87.8626 59.696 87.4573 59.248C87.0519 58.8 86.5239 58.576 85.8733 58.576ZM102.966 63.136C102.742 64.0747 102.289 64.816 101.606 65.36C100.924 65.8933 100.081 66.16 99.0783 66.16C98.2676 66.16 97.5529 65.9787 96.9343 65.616C96.3263 65.2427 95.8463 64.7253 95.4943 64.064C95.1529 63.392 94.9823 62.608 94.9823 61.712C94.9823 60.8693 95.1583 60.1227 95.5103 59.472C95.8623 58.8213 96.3423 58.3093 96.9503 57.936C97.5583 57.552 98.2516 57.36 99.0303 57.36C99.6703 57.36 100.246 57.4827 100.758 57.728C101.27 57.9627 101.702 58.2987 102.054 58.736C102.406 59.1627 102.662 59.6693 102.822 60.256C102.982 60.8427 103.03 61.4773 102.966 62.16H96.6623C96.6729 62.7147 96.7796 63.2 96.9823 63.616C97.1849 64.0213 97.4623 64.336 97.8143 64.56C98.1663 64.784 98.5769 64.896 99.0463 64.896C99.6543 64.896 100.156 64.7413 100.55 64.432C100.956 64.1227 101.222 63.6907 101.35 63.136H102.966ZM98.9983 58.576C98.5716 58.576 98.1876 58.6827 97.8463 58.896C97.5049 59.1093 97.2276 59.4027 97.0143 59.776C96.8116 60.1493 96.6943 60.5867 96.6623 61.088H101.238C101.206 60.3093 100.988 59.696 100.582 59.248C100.177 58.8 99.6489 58.576 98.9983 58.576ZM106.297 61.216V66H104.681V57.52H106.185V58.928C106.473 58.4587 106.847 58.08 107.305 57.792C107.775 57.504 108.303 57.36 108.889 57.36C109.764 57.36 110.463 57.632 110.985 58.176C111.519 58.72 111.785 59.4987 111.785 60.512V66H110.169V61.056C110.169 60.3307 110.015 59.7707 109.705 59.376C109.396 58.9813 108.937 58.784 108.329 58.784C107.956 58.784 107.615 58.8853 107.305 59.088C106.996 59.28 106.751 59.5573 106.569 59.92C106.388 60.2827 106.297 60.7147 106.297 61.216ZM121.181 65.712C121.181 66.8 120.851 67.664 120.189 68.304C119.528 68.944 118.584 69.264 117.357 69.264C116.621 69.264 115.976 69.136 115.421 68.88C114.867 68.6347 114.429 68.2773 114.109 67.808C113.8 67.3493 113.629 66.8 113.597 66.16H115.165C115.197 66.7467 115.395 67.1947 115.757 67.504C116.131 67.824 116.659 67.984 117.341 67.984C118.077 67.984 118.632 67.792 119.005 67.408C119.389 67.024 119.581 66.4693 119.581 65.744V64.208C119.336 64.7093 118.984 65.104 118.525 65.392C118.067 65.68 117.549 65.824 116.973 65.824C116.269 65.824 115.645 65.6427 115.101 65.28C114.557 64.9067 114.131 64.4053 113.821 63.776C113.512 63.136 113.357 62.4053 113.357 61.584C113.357 60.7413 113.507 60.0053 113.805 59.376C114.104 58.736 114.52 58.24 115.053 57.888C115.587 57.536 116.211 57.36 116.925 57.36C117.533 57.36 118.072 57.504 118.541 57.792C119.011 58.08 119.395 58.4907 119.693 59.024V57.52H121.181V65.712ZM114.989 61.584C114.989 62.4587 115.192 63.152 115.597 63.664C116.003 64.1653 116.557 64.416 117.261 64.416C117.731 64.416 118.136 64.2987 118.477 64.064C118.829 63.8293 119.101 63.504 119.293 63.088C119.485 62.672 119.581 62.1867 119.581 61.632C119.581 60.7467 119.368 60.048 118.941 59.536C118.515 59.0133 117.955 58.752 117.261 58.752C116.568 58.752 116.013 59.008 115.597 59.52C115.192 60.0213 114.989 60.7093 114.989 61.584ZM125.37 55.552C125.37 55.8507 125.258 56.1067 125.034 56.32C124.821 56.5227 124.543 56.624 124.202 56.624C123.85 56.624 123.562 56.5227 123.338 56.32C123.125 56.1067 123.018 55.8507 123.018 55.552C123.018 55.232 123.125 54.976 123.338 54.784C123.562 54.5813 123.85 54.48 124.202 54.48C124.543 54.48 124.821 54.5813 125.034 54.784C125.258 54.976 125.37 55.232 125.37 55.552ZM125.018 66H123.402V57.52H125.018V66ZM128.86 61.216V66H127.244V57.52H128.748V58.928C129.036 58.4587 129.409 58.08 129.868 57.792C130.337 57.504 130.865 57.36 131.452 57.36C132.327 57.36 133.025 57.632 133.548 58.176C134.081 58.72 134.348 59.4987 134.348 60.512V66H132.732V61.056C132.732 60.3307 132.577 59.7707 132.268 59.376C131.959 58.9813 131.5 58.784 130.892 58.784C130.519 58.784 130.177 58.8853 129.868 59.088C129.559 59.28 129.313 59.5573 129.132 59.92C128.951 60.2827 128.86 60.7147 128.86 61.216ZM143.904 63.136C143.68 64.0747 143.226 64.816 142.544 65.36C141.861 65.8933 141.018 66.16 140.016 66.16C139.205 66.16 138.49 65.9787 137.872 65.616C137.264 65.2427 136.784 64.7253 136.432 64.064C136.09 63.392 135.92 62.608 135.92 61.712C135.92 60.8693 136.096 60.1227 136.448 59.472C136.8 58.8213 137.28 58.3093 137.888 57.936C138.496 57.552 139.189 57.36 139.968 57.36C140.608 57.36 141.184 57.4827 141.696 57.728C142.208 57.9627 142.64 58.2987 142.992 58.736C143.344 59.1627 143.6 59.6693 143.76 60.256C143.92 60.8427 143.968 61.4773 143.904 62.16H137.6C137.61 62.7147 137.717 63.2 137.92 63.616C138.122 64.0213 138.4 64.336 138.752 64.56C139.104 64.784 139.514 64.896 139.984 64.896C140.592 64.896 141.093 64.7413 141.488 64.432C141.893 64.1227 142.16 63.6907 142.288 63.136H143.904ZM139.936 58.576C139.509 58.576 139.125 58.6827 138.784 58.896C138.442 59.1093 138.165 59.4027 137.952 59.776C137.749 60.1493 137.632 60.5867 137.6 61.088H142.176C142.144 60.3093 141.925 59.696 141.52 59.248C141.114 58.8 140.586 58.576 139.936 58.576ZM153.107 63.136C152.883 64.0747 152.43 64.816 151.747 65.36C151.064 65.8933 150.222 66.16 149.219 66.16C148.408 66.16 147.694 65.9787 147.075 65.616C146.467 65.2427 145.987 64.7253 145.635 64.064C145.294 63.392 145.123 62.608 145.123 61.712C145.123 60.8693 145.299 60.1227 145.651 59.472C146.003 58.8213 146.483 58.3093 147.091 57.936C147.699 57.552 148.392 57.36 149.171 57.36C149.811 57.36 150.387 57.4827 150.899 57.728C151.411 57.9627 151.843 58.2987 152.195 58.736C152.547 59.1627 152.803 59.6693 152.963 60.256C153.123 60.8427 153.171 61.4773 153.107 62.16H146.803C146.814 62.7147 146.92 63.2 147.123 63.616C147.326 64.0213 147.603 64.336 147.955 64.56C148.307 64.784 148.718 64.896 149.187 64.896C149.795 64.896 150.296 64.7413 150.691 64.432C151.096 64.1227 151.363 63.6907 151.491 63.136H153.107ZM149.139 58.576C148.712 58.576 148.328 58.6827 147.987 58.896C147.646 59.1093 147.368 59.4027 147.155 59.776C146.952 60.1493 146.835 60.5867 146.803 61.088H151.379C151.347 60.3093 151.128 59.696 150.723 59.248C150.318 58.8 149.79 58.576 149.139 58.576ZM156.438 61.664V66H154.822V57.52H156.326V59.312C156.625 58.7253 157.067 58.256 157.654 57.904C158.241 57.552 158.886 57.3973 159.59 57.44V59.088C158.982 59.056 158.438 59.1253 157.958 59.296C157.489 59.4667 157.115 59.7493 156.838 60.144C156.571 60.528 156.438 61.0347 156.438 61.664ZM167.542 63.472C167.542 64.2613 167.238 64.9067 166.63 65.408C166.022 65.9093 165.147 66.16 164.006 66.16C162.95 66.16 162.08 65.904 161.398 65.392C160.726 64.88 160.352 64.16 160.278 63.232H161.814C161.846 63.7867 162.059 64.2133 162.454 64.512C162.859 64.8 163.366 64.944 163.974 64.944C164.624 64.944 165.11 64.832 165.43 64.608C165.75 64.3733 165.91 64.0693 165.91 63.696C165.91 63.3653 165.792 63.1147 165.558 62.944C165.323 62.7627 164.944 62.624 164.422 62.528L163.062 62.272C162.304 62.1227 161.707 61.856 161.27 61.472C160.832 61.0773 160.614 60.5493 160.614 59.888C160.614 59.3867 160.752 58.9493 161.03 58.576C161.318 58.192 161.707 57.8933 162.198 57.68C162.688 57.456 163.248 57.344 163.878 57.344C164.56 57.344 165.158 57.4613 165.67 57.696C166.182 57.9307 166.587 58.2613 166.886 58.688C167.195 59.104 167.371 59.6053 167.414 60.192H165.878C165.835 59.6693 165.632 59.2693 165.27 58.992C164.918 58.704 164.454 58.56 163.878 58.56C163.355 58.56 162.939 58.6773 162.63 58.912C162.32 59.136 162.166 59.424 162.166 59.776C162.166 60.1067 162.288 60.3627 162.534 60.544C162.779 60.7147 163.147 60.848 163.638 60.944L165.078 61.216C165.91 61.3653 166.528 61.6267 166.934 62C167.339 62.3733 167.542 62.864 167.542 63.472Z" fill="white"/>
<defs>
<filter id="filter0_b_4_278" x="-32" y="-32" width="344" height="160" filterUnits="userSpaceOnUse" color-interpolation-filters="sRGB">
<feFlood flood-opacity="0" result="BackgroundImageFix"/>
<feGaussianBlur in="BackgroundImage" stdDeviation="16"/>
<feComposite in2="SourceAlpha" operator="in" result="effect1_backgroundBlur_4_278"/>
<feBlend mode="normal" in="SourceGraphic" in2="effect1_backgroundBlur_4_278" result="shape"/>
</filter>
<linearGradient id="paint0_linear_4_278" x1="412.632" y1="-49.75" x2="19.1493" y2="172.889" gradientUnits="userSpaceOnUse">
<stop stop-color="white"/>
<stop offset="1" stop-color="white" stop-opacity="0.52"/>
</linearGradient>
<linearGradient id="paint1_linear_4_278" x1="291.1" y1="-8.78299" x2="115.86" y2="208.627" gradientUnits="userSpaceOnUse">
<stop stop-color="white"/>
<stop offset="1" stop-color="white" stop-opacity="0"/>
</linearGradient>
</defs>
</svg>
