<svg width="246" height="217" viewBox="0 0 246 217" fill="none" xmlns="http://www.w3.org/2000/svg">
<path d="M68.7584 0.421295C68.4357 0.421295 68.1144 0.430634 67.7931 0.451965C67.4717 0.47197 67.1505 0.50264 66.8305 0.543976C66.5105 0.585297 66.1919 0.637314 65.8772 0.699982C65.5599 0.76265 65.2452 0.834641 64.9345 0.917297C64.6225 0.999969 64.3144 1.09332 64.0078 1.19598C63.7024 1.29999 63.4011 1.41199 63.1025 1.53465C62.8051 1.65732 62.5105 1.79065 62.2211 1.93199C61.9318 2.07466 61.6478 2.22665 61.3678 2.38666C61.0891 2.54799 60.8132 2.71732 60.5465 2.89598C60.2772 3.07465 60.0144 3.26131 59.7584 3.45731C59.5024 3.65331 59.2532 3.85732 59.0105 4.06932C58.7679 4.28133 58.5318 4.50131 58.3038 4.72931C58.0758 4.95598 57.8545 5.19063 57.6412 5.43329C57.4292 5.67462 57.2238 5.92395 57.0265 6.17996C56.8291 6.43596 56.6412 6.69731 56.4625 6.96532C56.2825 7.23198 56.1118 7.50662 55.9505 7.78397L2.05577 101.067C1.89443 101.347 1.74384 101.631 1.60118 101.919C1.45851 102.208 1.32511 102.501 1.20111 102.799C1.07844 103.097 0.965104 103.4 0.861104 103.704C0.757104 104.009 0.663823 104.317 0.581156 104.629C0.497156 104.94 0.423771 105.255 0.361104 105.571C0.297104 105.885 0.246544 106.204 0.203878 106.524C0.162544 106.844 0.130485 107.164 0.109151 107.485C0.0878179 107.807 0.0770874 108.129 0.0770874 108.452C0.0770874 108.775 0.0904845 109.096 0.109151 109.417C0.130485 109.739 0.162544 110.06 0.203878 110.38C0.246544 110.699 0.297104 111.017 0.361104 111.333C0.423771 111.649 0.497156 111.963 0.581156 112.275C0.663823 112.585 0.757104 112.893 0.861104 113.2C0.965104 113.504 1.07844 113.805 1.20111 114.104C1.32511 114.403 1.45851 114.695 1.60118 114.984C1.74384 115.273 1.89443 115.557 2.05577 115.836L55.9065 209.163C56.0678 209.441 56.2397 209.715 56.4184 209.983C56.5984 210.249 56.7865 210.512 56.9838 210.767C57.1798 211.023 57.3838 211.271 57.5971 211.513C57.8104 211.756 58.0305 211.991 58.2599 212.217C58.4879 212.445 58.7251 212.665 58.9664 212.877C59.2091 213.091 59.4584 213.295 59.7158 213.489C59.9718 213.685 60.2344 213.872 60.5011 214.052C60.7704 214.231 61.0438 214.4 61.3238 214.56C61.6038 214.721 61.8878 214.872 62.1785 215.015C62.4678 215.156 62.7612 215.288 63.0585 215.412C63.3572 215.535 63.6584 215.648 63.9651 215.751C64.2691 215.853 64.5797 215.947 64.8904 216.029C65.2024 216.113 65.5171 216.185 65.8318 216.248C66.1491 216.309 66.4665 216.361 66.7879 216.403C67.1065 216.444 67.4265 216.476 67.7491 216.496C68.0718 216.516 68.3931 216.525 68.7158 216.525H176.458C176.781 216.524 177.102 216.513 177.422 216.493C177.744 216.472 178.064 216.44 178.382 216.397C178.701 216.356 179.018 216.304 179.334 216.24C179.649 216.177 179.961 216.104 180.273 216.02C180.584 215.937 180.89 215.844 181.196 215.741C181.5 215.637 181.8 215.525 182.097 215.401C182.394 215.279 182.687 215.145 182.976 215.004C183.264 214.861 183.548 214.711 183.825 214.549C184.104 214.388 184.377 214.219 184.645 214.04C184.913 213.861 185.174 213.676 185.429 213.48C185.685 213.284 185.933 213.08 186.176 212.868C186.417 212.657 186.652 212.437 186.88 212.211C187.106 211.983 187.328 211.748 187.54 211.507C187.75 211.267 187.956 211.017 188.152 210.764C188.349 210.508 188.536 210.248 188.714 209.98C188.893 209.713 189.064 209.44 189.225 209.163L243.118 115.836C243.28 115.557 243.432 115.273 243.574 114.984C243.717 114.695 243.849 114.403 243.973 114.104C244.097 113.805 244.209 113.504 244.315 113.2C244.417 112.893 244.511 112.585 244.593 112.275C244.679 111.963 244.75 111.649 244.813 111.332C244.877 111.017 244.929 110.699 244.972 110.38C245.013 110.06 245.045 109.739 245.065 109.417C245.087 109.096 245.097 108.775 245.097 108.452C245.097 108.129 245.084 107.807 245.065 107.485C245.045 107.164 245.013 106.844 244.972 106.524C244.929 106.204 244.877 105.885 244.813 105.571C244.75 105.255 244.679 104.94 244.593 104.629C244.511 104.317 244.417 104.009 244.315 103.704C244.209 103.4 244.097 103.097 243.973 102.799C243.849 102.501 243.717 102.208 243.574 101.919C243.432 101.631 243.28 101.347 243.118 101.067L189.269 7.78397C189.106 7.50662 188.937 7.23198 188.757 6.96532C188.577 6.69731 188.389 6.43596 188.193 6.17996C187.996 5.92395 187.79 5.67462 187.577 5.43329C187.365 5.19063 187.144 4.95598 186.916 4.72931C186.686 4.50131 186.452 4.28133 186.208 4.06932C185.965 3.85732 185.716 3.65331 185.46 3.45731C185.204 3.26131 184.942 3.07465 184.673 2.89598C184.404 2.71732 184.131 2.54799 183.851 2.38666C183.572 2.22665 183.286 2.07332 182.998 1.93199C182.708 1.79065 182.414 1.65732 182.116 1.53465C181.818 1.41199 181.516 1.29999 181.209 1.19598C180.905 1.09332 180.597 0.999969 180.285 0.917297C179.973 0.834641 179.66 0.76265 179.343 0.699982C179.027 0.637314 178.708 0.585297 178.389 0.543976C178.068 0.50264 177.748 0.47197 177.427 0.451965C177.105 0.430634 176.782 0.421295 176.458 0.421295H68.7584Z" fill="url(#paint0_linear_8_13)"/>
<path fill-rule="evenodd" clip-rule="evenodd" d="M80.1791 91.8221V145.785L129.572 192.435V139.125C131.244 139.294 132.943 139.379 134.668 139.379C161.722 139.379 183.668 117.439 183.668 90.3861C183.668 63.3275 161.722 41.3848 134.668 41.3848C116.058 41.3848 95.7218 40.5208 77.0391 40.5168L129.572 91.8221H80.1791Z" fill="white"/>
<defs>
<linearGradient id="paint0_linear_8_13" x1="0.0774874" y1="108.473" x2="245.098" y2="108.473" gradientUnits="userSpaceOnUse">
<stop stop-color="#652D90"/>
<stop offset="0.0446927" stop-color="#652D90"/>
<stop offset="0.324229" stop-color="#585FAA"/>
<stop offset="0.790503" stop-color="#585FAA"/>
<stop offset="1" stop-color="#585FAA"/>
</linearGradient>
</defs>
</svg>
