<svg width="176" height="259" viewBox="0 0 176 259" fill="none" xmlns="http://www.w3.org/2000/svg">
<path d="M0.489746 253.966C0.489746 255.005 0.860413 255.895 1.60308 256.637C2.31908 257.353 3.19908 257.713 4.23775 257.713C5.27641 257.713 6.16575 257.353 6.90841 256.637C7.62441 255.895 7.98308 255.005 7.98308 253.966V225.283H0.489746V253.966Z" fill="white"/>
<path d="M0.98 225.773V253.966C0.98 254.878 1.29733 255.638 1.94933 256.29C2.576 256.918 3.32533 257.222 4.23733 257.222C5.152 257.222 5.91467 256.916 6.568 256.284C7.18667 255.644 7.492 254.881 7.492 253.966V225.773H0.98ZM4.23733 258.202C3.068 258.202 2.06533 257.793 1.256 256.984C0.422667 256.15 0 255.134 0 253.966V224.793H8.472V253.966C8.472 255.132 8.06533 256.145 7.26133 256.977C6.41467 257.794 5.40133 258.202 4.23733 258.202" fill="white"/>
<path d="M32.2447 225.283C31.83 227.728 30.694 229.884 28.83 231.747C26.4554 234.12 23.5874 235.307 20.2234 235.307C18.3434 235.307 16.5634 234.899 14.882 234.083C13.9434 233.638 12.9914 233.59 12.0274 233.935C11.0367 234.282 10.3207 234.912 9.87537 235.827C9.43004 236.767 9.36737 237.731 9.68871 238.72C10.0354 239.684 10.6794 240.402 11.618 240.872C14.314 242.183 17.182 242.838 20.2234 242.838C25.6394 242.838 30.278 240.908 34.1354 237.051C37.4634 233.723 39.318 229.791 39.7727 225.283H32.378H32.2447Z" fill="white"/>
<path d="M13.2884 234.197C12.927 234.197 12.563 234.264 12.1924 234.396C11.319 234.703 10.7057 235.24 10.3164 236.041C9.92437 236.869 9.87103 237.697 10.155 238.568C10.4537 239.404 11.0057 240.017 11.8364 240.433C14.4484 241.703 17.271 242.348 20.2244 242.348C25.4804 242.348 30.0444 240.449 33.7884 236.705C36.8604 233.635 38.6857 229.959 39.223 225.773H32.651C32.1644 228.149 30.9977 230.273 29.1764 232.093C26.719 234.551 23.707 235.797 20.2244 235.797C18.2777 235.797 16.4084 235.369 14.6684 234.524C14.2084 234.307 13.751 234.197 13.2884 234.197ZM20.2244 243.328C17.1217 243.328 14.155 242.649 11.403 241.312C10.3457 240.784 9.61503 239.968 9.22703 238.885C8.86303 237.767 8.9337 236.672 9.43237 235.617C9.93637 234.581 10.7537 233.861 11.8657 233.473C12.9497 233.085 14.0377 233.14 15.0924 233.641C16.7017 234.423 18.427 234.817 20.2244 234.817C23.4377 234.817 26.2164 233.668 28.483 231.4C30.2617 229.623 31.3644 227.537 31.7604 225.201L31.831 224.793H40.3137L40.259 225.332C39.791 229.973 37.847 234.032 34.4817 237.397C30.547 241.332 25.7497 243.328 20.2244 243.328Z" fill="white"/>
<path d="M74.9685 225.283C74.5538 227.728 73.4178 229.884 71.5552 231.747C69.1818 234.12 66.3112 235.307 62.9498 235.307C59.5605 235.307 56.6805 234.12 54.3058 231.747C52.4418 229.884 51.3072 227.728 50.8925 225.283H50.7592H43.3658C43.8192 229.791 45.6738 233.723 49.0032 237.051C52.8605 240.908 57.5085 242.838 62.9498 242.838C68.3658 242.838 73.0018 240.908 76.8592 237.051C80.1872 233.723 82.0418 229.791 82.4965 225.283H75.1018H74.9685Z" fill="white"/>
<path d="M43.9154 225.773C44.4514 229.958 46.2767 233.633 49.35 236.705C53.094 240.449 57.67 242.348 62.95 242.348C68.2047 242.348 72.7674 240.449 76.5127 236.705C79.5834 233.634 81.41 229.96 81.9474 225.773H75.3754C74.89 228.146 73.7234 230.272 71.9034 232.093C69.4447 234.55 66.4327 235.797 62.95 235.797C59.442 235.797 56.418 234.55 53.9594 232.093C52.138 230.273 50.9714 228.149 50.486 225.773H43.9154ZM62.95 243.328C57.4007 243.328 52.5914 241.333 48.6567 237.397C45.29 234.032 43.3447 229.972 42.8794 225.332L42.8247 224.793H51.3074L51.3767 225.201C51.7714 227.537 52.874 229.622 54.6527 231.4C56.9207 233.668 59.7127 234.817 62.95 234.817C66.1634 234.817 68.942 233.668 71.21 231.4C72.9874 229.621 74.09 227.536 74.4847 225.201L74.554 224.793H83.038L82.9834 225.332C82.5154 229.973 80.5714 234.032 77.206 237.397C73.27 241.333 68.474 243.328 62.95 243.328Z" fill="white"/>
<path d="M86.2297 239.091C86.2297 240.13 86.6004 241.008 87.3431 241.724C88.0591 242.467 88.9364 242.838 89.9751 242.838C91.0137 242.838 91.9044 242.467 92.6457 241.724C93.3631 241.008 93.7231 240.13 93.7231 239.091V225.283H86.2297V239.091Z" fill="white"/>
<path d="M86.7195 225.773V239.092C86.7195 240 87.0342 240.746 87.6835 241.372C88.3222 242.033 89.0675 242.348 89.9755 242.348C90.8862 242.348 91.6475 242.03 92.2995 241.378C92.9275 240.75 93.2328 240.002 93.2328 239.092V225.773H86.7195ZM89.9755 243.328C88.8035 243.328 87.7995 242.902 86.9902 242.065C86.1648 241.269 85.7395 240.264 85.7395 239.092V224.793H94.2128V239.092C94.2128 240.258 93.8022 241.261 92.9928 242.072C92.1582 242.905 91.1435 243.328 89.9755 243.328Z" fill="white"/>
<path d="M167.613 225.283C167.199 227.728 166.063 229.884 164.2 231.747C161.827 234.12 158.956 235.307 155.595 235.307C152.205 235.307 149.325 234.12 146.951 231.747C145.087 229.884 143.952 227.728 143.537 225.283H143.404H136.011C136.464 229.791 138.319 233.723 141.647 237.051C145.505 240.908 150.153 242.838 155.595 242.838C161.011 242.838 165.647 240.908 169.504 237.051C172.832 233.723 174.687 229.791 175.141 225.283H167.747H167.613Z" fill="white"/>
<path d="M136.56 225.773C137.097 229.96 138.922 233.634 141.994 236.705C145.738 240.449 150.314 242.348 155.596 242.348C160.85 242.348 165.412 240.449 169.157 236.705C172.229 233.633 174.056 229.958 174.592 225.773H168.02C167.534 228.146 166.368 230.272 164.548 232.093C162.089 234.55 159.077 235.797 155.596 235.797C152.086 235.797 149.062 234.55 146.604 232.093C144.784 230.274 143.617 228.149 143.13 225.773H136.56ZM155.596 243.328C150.045 243.328 145.236 241.333 141.301 237.397C137.934 234.032 135.992 229.973 135.524 225.332L135.469 224.793H143.95L144.021 225.201C144.418 227.538 145.52 229.624 147.297 231.4C149.565 233.668 152.357 234.817 155.596 234.817C158.808 234.817 161.586 233.668 163.854 231.4C165.632 229.622 166.734 227.536 167.13 225.201L167.2 224.793H175.682L175.628 225.332C175.161 229.972 173.217 234.032 169.85 237.397C165.914 241.333 161.118 243.328 155.596 243.328" fill="white"/>
<path d="M113.776 225.283C114.231 229.791 116.085 233.723 119.413 237.051C123.271 240.908 127.919 242.838 133.36 242.838C134.373 242.838 135.253 242.467 135.995 241.724C136.737 240.983 137.108 240.092 137.108 239.054C137.108 238.04 136.737 237.162 135.995 236.42C135.253 235.679 134.373 235.307 133.36 235.307C129.973 235.307 127.092 234.12 124.719 231.747C122.855 229.884 121.719 227.728 121.304 225.283H121.169H113.776Z" fill="white"/>
<path d="M114.325 225.773C114.862 229.96 116.688 233.634 119.76 236.705C123.504 240.449 128.08 242.348 133.361 242.348C134.249 242.348 134.997 242.03 135.649 241.378C136.301 240.726 136.618 239.966 136.618 239.054C136.618 238.168 136.301 237.42 135.649 236.766C134.996 236.114 134.248 235.797 133.361 235.797C129.853 235.797 126.829 234.55 124.372 232.093C122.55 230.273 121.384 228.148 120.897 225.773H114.325ZM133.361 243.328C127.81 243.328 123.001 241.333 119.066 237.397C115.7 234.032 113.757 229.973 113.289 225.332L113.234 224.793H121.717L121.786 225.201C122.184 227.537 123.286 229.622 125.065 231.4C127.332 233.668 130.122 234.817 133.361 234.817C134.505 234.817 135.508 235.24 136.341 236.074C137.176 236.908 137.598 237.91 137.598 239.054C137.598 240.222 137.176 241.238 136.341 242.072C135.508 242.905 134.505 243.328 133.361 243.328" fill="white"/>
<path d="M8.23217 220.682C8.67883 218.345 9.78283 216.278 11.5815 214.498C13.9562 212.099 16.8362 210.899 20.2242 210.899C23.5882 210.899 26.4562 212.099 28.8295 214.498C30.6295 216.278 31.7335 218.345 32.1802 220.682H32.4028H39.7682C39.2735 216.273 37.4055 212.426 34.1348 209.155C30.2775 205.323 25.6402 203.406 20.2242 203.406C14.7828 203.406 10.1348 205.323 6.27617 209.155C3.0055 212.426 1.13883 216.273 0.644165 220.682H8.0095H8.23217Z" fill="white"/>
<path d="M32.5782 220.192H39.2116C38.6396 216.125 36.8169 212.531 33.7889 209.503C30.0449 205.783 25.4809 203.896 20.2236 203.896C14.9436 203.896 10.3676 205.783 6.62225 209.504C3.59558 212.531 1.77291 216.124 1.19958 220.192H7.83291C8.34758 217.908 9.49158 215.876 11.2369 214.149C13.6929 211.668 16.7169 210.409 20.2236 210.409C23.7062 210.409 26.7196 211.668 29.1782 214.153C30.9196 215.876 32.0636 217.908 32.5782 220.192ZM40.3156 221.172H31.7756L31.6982 220.773C31.2689 218.525 30.1876 216.531 28.4849 214.847C26.2142 212.551 23.4356 211.389 20.2236 211.389C16.9876 211.389 14.1982 212.551 11.9302 214.843C10.2236 216.531 9.14225 218.525 8.71291 220.773L8.63691 221.172H0.0955811L0.156914 220.628C0.66358 216.109 2.60625 212.133 5.93025 208.809C9.86625 204.899 14.6756 202.916 20.2236 202.916C25.7489 202.916 30.5449 204.899 34.4809 208.808C37.8049 212.133 39.7476 216.109 40.2542 220.628L40.3156 221.172Z" fill="white"/>
<path d="M50.9578 220.682C51.4031 218.345 52.5071 216.278 54.3057 214.498C56.6804 212.099 59.5604 210.899 62.9498 210.899C66.3124 210.899 69.1817 212.099 71.5564 214.498C73.3537 216.278 74.4577 218.345 74.9031 220.682H75.1271H82.4911C81.9964 216.273 80.1297 212.426 76.8591 209.155C73.0018 205.323 68.3657 203.406 62.9498 203.406C57.5084 203.406 52.8604 205.323 49.0031 209.155C45.7324 212.426 43.8644 216.273 43.3698 220.682H50.7351H50.9578Z" fill="white"/>
<path d="M75.3021 220.192H81.9355C81.3635 216.127 79.5421 212.532 76.5128 209.503C72.7688 205.783 68.2048 203.896 62.9501 203.896C57.6701 203.896 53.0928 205.783 49.3488 209.504C46.3208 212.531 44.4981 216.124 43.9261 220.192H50.5595C51.0728 217.908 52.2155 215.876 53.9608 214.149C56.4168 211.668 59.4421 210.409 62.9501 210.409C66.4328 210.409 69.4448 211.668 71.9048 214.153C73.6448 215.876 74.7875 217.908 75.3021 220.192ZM83.0395 221.172H74.4995L74.4221 220.773C73.9928 218.525 72.9128 216.531 71.2115 214.847C68.9395 212.551 66.1621 211.389 62.9501 211.389C59.7141 211.389 56.9221 212.551 54.6541 214.843C52.9475 216.531 51.8675 218.525 51.4395 220.773L51.3635 221.172H42.8221L42.8821 220.628C43.3901 216.109 45.3328 212.133 48.6568 208.809C52.5928 204.899 57.4021 202.916 62.9501 202.916C68.4728 202.916 73.2688 204.899 77.2048 208.808C80.5301 212.135 82.4728 216.111 82.9781 220.628L83.0395 221.172Z" fill="white"/>
<path d="M93.9591 220.682C94.3684 218.345 95.3551 216.278 96.9484 214.498C99.0751 212.099 101.635 210.899 104.628 210.899C105.222 210.899 105.815 210.962 106.41 211.085C107.422 211.283 108.362 211.085 109.228 210.491C110.067 209.898 110.587 209.094 110.786 208.081C110.983 207.067 110.786 206.127 110.192 205.261C109.599 204.397 108.794 203.877 107.78 203.703C106.742 203.506 105.691 203.406 104.628 203.406C100.596 203.406 96.9617 204.681 93.7231 207.227V207.153C93.7231 206.114 93.3631 205.237 92.6457 204.519C91.9044 203.777 91.0137 203.406 89.9751 203.406C88.9364 203.406 88.0591 203.777 87.3431 204.519C86.6004 205.237 86.2297 206.114 86.2297 207.153V220.682H93.7497H93.9591Z" fill="white"/>
<path d="M86.7195 220.192H93.5542C94.0222 217.919 95.0395 215.895 96.5848 214.171C98.7955 211.676 101.502 210.409 104.629 210.409C105.249 210.409 105.881 210.475 106.509 210.605C107.389 210.777 108.19 210.608 108.952 210.087C109.685 209.568 110.129 208.88 110.306 207.987C110.478 207.099 110.309 206.297 109.789 205.539C109.269 204.781 108.585 204.339 107.698 204.187C106.682 203.993 105.652 203.896 104.629 203.896C100.729 203.896 97.1622 205.147 94.0248 207.612L93.2328 208.236V207.227C93.2328 206.243 92.9275 205.495 92.2995 204.865C91.6475 204.213 90.8862 203.896 89.9755 203.896C89.0675 203.896 88.3222 204.212 87.6942 204.86C87.0342 205.499 86.7195 206.245 86.7195 207.153V220.192ZM94.3715 221.172H85.7395V207.153C85.7395 205.981 86.1648 204.977 87.0022 204.167C87.7995 203.341 88.8035 202.916 89.9755 202.916C91.1435 202.916 92.1582 203.339 92.9928 204.172C93.5982 204.78 93.9808 205.495 94.1355 206.304C97.2715 204.056 100.797 202.916 104.629 202.916C105.713 202.916 106.805 203.02 107.872 203.221C109.01 203.417 109.929 204.011 110.597 204.984C111.264 205.957 111.489 207.031 111.268 208.175C111.044 209.311 110.453 210.225 109.512 210.892C108.529 211.564 107.457 211.789 106.316 211.565C105.748 211.448 105.182 211.389 104.629 211.389C101.796 211.389 99.3355 212.544 97.3155 214.823C95.8022 216.512 94.8355 218.512 94.4422 220.767L94.3715 221.172Z" fill="white"/>
<path d="M143.603 220.682C144.048 218.345 145.152 216.278 146.951 214.498C149.325 212.099 152.205 210.899 155.595 210.899C157.376 210.899 159.081 211.27 160.713 212.013C161.653 212.457 162.604 212.507 163.569 212.161C164.559 211.79 165.263 211.134 165.684 210.194C166.129 209.255 166.179 208.303 165.833 207.338C165.461 206.374 164.805 205.669 163.865 205.223C161.244 204.013 158.488 203.406 155.595 203.406C150.153 203.406 145.505 205.323 141.648 209.155C138.377 212.426 136.509 216.273 136.015 220.682H143.38H143.603Z" fill="white"/>
<path d="M136.571 220.192H143.204C143.718 217.907 144.86 215.875 146.606 214.149C149.062 211.668 152.087 210.409 155.595 210.409C157.438 210.409 159.227 210.799 160.916 211.567C161.748 211.96 162.56 212.003 163.403 211.699C164.266 211.376 164.867 210.817 165.238 209.995C165.631 209.161 165.675 208.349 165.371 207.504C165.048 206.665 164.487 206.06 163.656 205.667C161.115 204.493 158.402 203.896 155.595 203.896C150.314 203.896 145.738 205.783 141.992 209.504C138.964 212.532 137.143 216.127 136.571 220.192ZM144.008 221.172H135.467L135.528 220.628C136.034 216.111 137.976 212.135 141.3 208.809C145.236 204.899 150.046 202.916 155.595 202.916C158.544 202.916 161.396 203.544 164.071 204.779C165.13 205.281 165.875 206.083 166.29 207.163C166.683 208.261 166.627 209.348 166.127 210.404C165.655 211.455 164.851 212.203 163.742 212.62C162.647 213.012 161.562 212.956 160.503 212.455C158.95 211.749 157.295 211.389 155.595 211.389C152.358 211.389 149.567 212.551 147.299 214.843C145.592 216.529 144.514 218.524 144.084 220.773L144.008 221.172Z" fill="white"/>
<path d="M175.291 192.241C175.291 191.202 174.92 190.325 174.177 189.608C173.461 188.865 172.584 188.494 171.545 188.494C170.507 188.494 169.616 188.865 168.875 189.608C168.156 190.325 167.797 191.202 167.797 192.241V220.682H175.291V192.241Z" fill="white"/>
<path d="M168.287 220.192H174.801V192.241C174.801 191.333 174.486 190.587 173.837 189.96C173.199 189.3 172.454 188.984 171.545 188.984C170.634 188.984 169.873 189.301 169.222 189.953C168.593 190.581 168.287 191.329 168.287 192.241V220.192ZM175.781 221.172H167.307V192.241C167.307 191.072 167.718 190.069 168.529 189.26C169.362 188.427 170.377 188.004 171.545 188.004C172.718 188.004 173.722 188.429 174.53 189.267C175.355 190.065 175.781 191.071 175.781 192.241V221.172Z" fill="white"/>
<path d="M121.119 210.899H121.12V203.406H121.119V191.165C121.119 190.151 120.76 189.274 120.044 188.531C119.303 187.79 118.412 187.418 117.374 187.418C116.335 187.418 115.455 187.79 114.739 188.531C113.996 189.274 113.626 190.151 113.626 191.165V220.682H121.119V210.899Z" fill="white"/>
<path d="M114.116 220.192H120.628V191.165C120.628 190.275 120.323 189.525 119.692 188.872C119.046 188.225 118.286 187.909 117.374 187.909C116.464 187.909 115.718 188.224 115.091 188.872C114.434 189.531 114.116 190.279 114.116 191.165V220.192ZM121.608 221.172H113.136V191.165C113.136 190.021 113.558 189.019 114.392 188.185C115.195 187.353 116.2 186.929 117.374 186.929C118.542 186.929 119.558 187.352 120.391 188.185C121.202 189.024 121.608 190.024 121.608 191.165V221.172Z" fill="white"/>
<path d="M132.881 209.136C133.421 208.493 133.69 207.704 133.69 206.771C133.69 205.839 133.421 205.039 132.881 204.372C132.341 203.729 131.701 203.407 130.965 203.407H124.572V210.136H130.965C131.701 210.136 132.341 209.803 132.881 209.136Z" fill="white"/>
<path d="M125.061 209.645H130.965C131.553 209.645 132.055 209.377 132.5 208.828L132.507 208.821C132.973 208.264 133.201 207.593 133.201 206.77C133.201 205.946 132.972 205.262 132.5 204.681C132.059 204.156 131.556 203.897 130.965 203.897H125.061V209.645ZM130.965 210.625H124.081V202.917H130.965C131.851 202.917 132.621 203.301 133.256 204.057C133.872 204.817 134.181 205.728 134.181 206.77C134.181 207.816 133.871 208.717 133.259 209.448C132.625 210.229 131.853 210.625 130.965 210.625Z" fill="white"/>
<path fill-rule="evenodd" clip-rule="evenodd" d="M28.9383 59.2573V121.584L85.9876 175.465V113.892C87.9183 114.088 89.881 114.185 91.8743 114.185C123.121 114.185 148.469 88.8453 148.469 57.5987C148.469 26.3453 123.121 1.00134 91.8743 1.00134C70.3783 1.00134 46.8903 0.00399477 25.3116 -5.22927e-06L85.9876 59.2573H28.9383Z" fill="white"/>
</svg>
