<svg width="526" height="223" viewBox="0 0 526 223" fill="none" xmlns="http://www.w3.org/2000/svg">
<path d="M150.404 221.284H81.732C37.696 221.284 2 185.587 2 141.552V81.732C2 37.6973 37.696 2 81.732 2H150.404C194.439 2 230.136 37.6973 230.136 81.732V141.552C230.136 185.587 194.439 221.284 150.404 221.284Z" stroke="white" stroke-width="2.66667" stroke-miterlimit="10"/>
<path fill-rule="evenodd" clip-rule="evenodd" d="M70.9872 90.4304V144.393L120.381 191.044V137.733C122.053 137.902 123.751 137.988 125.477 137.988C152.53 137.988 174.477 116.048 174.477 88.9944C174.477 61.9357 152.53 39.9931 125.477 39.9931C106.866 39.9931 86.5299 39.129 67.8472 39.125L120.381 90.4304H70.9872Z" fill="white"/>
<path d="M264 159.454C264 160.992 264.544 162.31 265.634 163.407C266.685 164.467 267.977 165 269.502 165C271.027 165 272.332 164.467 273.422 163.407C274.473 162.31 275 160.992 275 159.454V117H264V159.454Z" fill="white"/>
<path d="M264.388 117.467V159.66C264.388 161.025 264.838 162.163 265.761 163.139C266.649 164.078 267.71 164.533 269.002 164.533C270.297 164.533 271.378 164.074 272.303 163.129C273.179 162.171 273.612 161.029 273.612 159.66V117.467H264.388ZM269.002 166C267.346 166 265.925 165.387 264.779 164.176C263.599 162.929 263 161.408 263 159.66V116H275V159.66C275 161.404 274.424 162.921 273.285 164.166C272.086 165.389 270.651 166 269.002 166" fill="white"/>
<path d="M311.566 117C310.936 120.622 309.211 123.815 306.38 126.574C302.773 130.089 298.417 131.846 293.307 131.846C290.452 131.846 287.748 131.242 285.194 130.034C283.769 129.374 282.323 129.303 280.859 129.814C279.354 130.328 278.266 131.262 277.59 132.617C276.914 134.009 276.818 135.437 277.306 136.902C277.833 138.33 278.811 139.392 280.237 140.089C284.332 142.03 288.688 143 293.307 143C301.533 143 308.579 140.142 314.438 134.429C319.492 129.5 322.309 123.677 323 117H311.768H311.566Z" fill="white"/>
<path d="M282.439 130.206C281.897 130.206 281.351 130.307 280.794 130.507C279.484 130.97 278.563 131.782 277.979 132.992C277.39 134.243 277.31 135.494 277.737 136.809C278.185 138.072 279.013 138.999 280.26 139.627C284.18 141.545 288.417 142.52 292.849 142.52C300.738 142.52 307.587 139.651 313.207 133.995C317.817 129.356 320.557 123.803 321.363 117.48H311.5C310.769 121.07 309.018 124.279 306.285 127.028C302.597 130.74 298.076 132.624 292.849 132.624C289.927 132.624 287.122 131.977 284.51 130.7C283.82 130.372 283.134 130.206 282.439 130.206ZM292.849 144C288.192 144 283.74 142.975 279.61 140.954C278.023 140.157 276.926 138.924 276.344 137.289C275.798 135.599 275.904 133.945 276.652 132.352C277.408 130.787 278.635 129.699 280.304 129.113C281.931 128.527 283.564 128.609 285.147 129.367C287.562 130.547 290.152 131.143 292.849 131.143C297.672 131.143 301.842 129.407 305.244 125.981C307.914 123.296 309.568 120.145 310.163 116.616L310.269 116H323L322.918 116.814C322.216 123.825 319.298 129.957 314.247 135.041C308.342 140.985 301.142 144 292.849 144Z" fill="white"/>
<path d="M375.65 117C375.024 120.622 373.311 123.815 370.503 126.574C366.925 130.089 362.596 131.846 357.528 131.846C352.418 131.846 348.075 130.089 344.495 126.574C341.685 123.815 339.974 120.622 339.348 117H339.147H328C328.684 123.677 331.48 129.5 336.5 134.429C342.316 140.142 349.324 143 357.528 143C365.694 143 372.684 140.142 378.5 134.429C383.518 129.5 386.314 123.677 387 117H375.851H375.65Z" fill="white"/>
<path d="M328.627 117.48C329.427 123.803 332.151 129.354 336.736 133.995C342.322 139.651 349.15 142.52 357.028 142.52C364.868 142.52 371.676 139.651 377.264 133.995C381.845 129.356 384.571 123.805 385.373 117.48H375.567C374.843 121.066 373.102 124.277 370.387 127.028C366.718 130.74 362.224 132.624 357.028 132.624C351.794 132.624 347.282 130.74 343.613 127.028C340.896 124.279 339.155 121.07 338.431 117.48H328.627ZM357.028 144C348.748 144 341.572 140.987 335.702 135.041C330.678 129.957 327.776 123.823 327.082 116.814L327 116H339.656L339.76 116.616C340.349 120.145 341.994 123.296 344.648 125.981C348.032 129.407 352.198 131.143 357.028 131.143C361.822 131.143 365.968 129.407 369.352 125.981C372.004 123.294 373.649 120.143 374.238 116.616L374.342 116H387L386.918 116.814C386.22 123.825 383.32 129.957 378.298 135.041C372.426 140.987 365.27 144 357.028 144Z" fill="white"/>
<path d="M392 137.451C392 138.989 392.544 140.291 393.634 141.351C394.685 142.451 395.973 143 397.498 143C399.023 143 400.33 142.451 401.419 141.351C402.472 140.291 403 138.989 403 137.451V117H392V137.451Z" fill="white"/>
<path d="M392.504 117.48V137.601C392.504 138.972 392.986 140.1 393.983 141.045C394.962 142.044 396.106 142.52 397.499 142.52C398.896 142.52 400.064 142.04 401.065 141.055C402.028 140.106 402.496 138.976 402.496 137.601V117.48H392.504ZM397.499 144C395.701 144 394.161 143.357 392.919 142.093C391.653 140.89 391 139.371 391 137.601V116H404V137.601C404 139.363 403.37 140.878 402.128 142.103C400.848 143.361 399.291 144 397.499 144Z" fill="white"/>
<path d="M513.65 117C513.024 120.622 511.311 123.815 508.503 126.574C504.925 130.089 500.596 131.846 495.528 131.846C490.418 131.846 486.075 130.089 482.495 126.574C479.685 123.815 477.974 120.622 477.348 117H477.147H466C466.684 123.677 469.48 129.5 474.498 134.429C480.316 140.142 487.324 143 495.528 143C503.694 143 510.684 140.142 516.5 134.429C521.518 129.5 524.314 123.677 525 117H513.851H513.65Z" fill="white"/>
<path d="M467.627 117.48C468.429 123.805 471.153 129.356 475.736 133.995C481.322 139.651 488.15 142.52 496.03 142.52C503.87 142.52 510.676 139.651 516.264 133.995C520.847 129.354 523.573 123.803 524.373 117.48H514.567C513.843 121.066 512.102 124.277 509.387 127.028C505.718 130.74 501.224 132.624 496.03 132.624C490.794 132.624 486.282 130.74 482.613 127.028C479.898 124.281 478.157 121.07 477.431 117.48H467.627ZM496.03 144C487.748 144 480.572 140.987 474.702 135.041C469.678 129.957 466.78 123.825 466.082 116.814L466 116H478.655L478.76 116.616C479.353 120.147 480.996 123.298 483.648 125.981C487.032 129.407 491.198 131.143 496.03 131.143C500.822 131.143 504.968 129.407 508.352 125.981C511.004 123.296 512.649 120.143 513.24 116.616L513.344 116H526L525.918 116.814C525.222 123.823 522.322 129.957 517.298 135.041C511.426 140.987 504.27 144 496.03 144" fill="white"/>
<path d="M434 117C434.663 123.677 437.365 129.5 442.215 134.429C447.836 140.142 454.609 143 462.538 143C464.015 143 465.297 142.451 466.378 141.351C467.46 140.253 468 138.934 468 137.396C468 135.895 467.46 134.593 466.378 133.495C465.297 132.397 464.015 131.846 462.538 131.846C457.603 131.846 453.404 130.089 449.946 126.574C447.23 123.815 445.574 120.622 444.97 117H444.774H434Z" fill="white"/>
<path d="M434.612 117.48C435.406 123.805 438.103 129.356 442.642 133.995C448.174 139.651 454.935 142.52 462.739 142.52C464.051 142.52 465.156 142.04 466.12 141.055C467.083 140.07 467.552 138.922 467.552 137.544C467.552 136.205 467.083 135.075 466.12 134.088C465.154 133.103 464.049 132.624 462.739 132.624C457.556 132.624 453.087 130.74 449.456 127.028C446.765 124.279 445.041 121.068 444.322 117.48H434.612ZM462.739 144C454.537 144 447.431 140.987 441.617 135.041C436.643 129.957 433.772 123.825 433.081 116.814L433 116H445.534L445.636 116.616C446.223 120.145 447.853 123.296 450.481 125.981C453.83 129.407 457.954 131.143 462.739 131.143C464.429 131.143 465.911 131.782 467.142 133.043C468.375 134.301 469 135.816 469 137.544C469 139.309 468.375 140.844 467.142 142.103C465.911 143.361 464.429 144 462.739 144" fill="white"/>
<path d="M275.443 110C276.116 106.482 277.781 103.372 280.494 100.693C284.075 97.0833 288.418 95.2773 293.527 95.2773C298.6 95.2773 302.925 97.0833 306.504 100.693C309.219 103.372 310.884 106.482 311.557 110H311.893H323C322.254 103.364 319.437 97.5749 314.505 92.6526C308.688 86.8855 301.695 84 293.527 84C285.321 84 278.312 86.8855 272.493 92.6526C267.561 97.5749 264.746 103.364 264 110H275.107H275.443Z" fill="white"/>
<path d="M311.457 109.497H321.353C320.5 103.26 317.781 97.7464 313.264 93.1022C307.678 87.3967 300.87 84.5031 293.027 84.5031C285.15 84.5031 278.324 87.3967 272.736 93.1043C268.221 97.7464 265.502 103.258 264.647 109.497H274.543C275.31 105.994 277.017 102.877 279.621 100.229C283.284 96.4233 287.796 94.4928 293.027 94.4928C298.222 94.4928 302.718 96.4233 306.385 100.235C308.983 102.877 310.69 105.994 311.457 109.497ZM323 111H310.26L310.145 110.389C309.504 106.941 307.891 103.881 305.351 101.299C301.964 97.7771 297.818 95.9959 293.027 95.9959C288.199 95.9959 284.038 97.7771 280.655 101.292C278.109 103.881 276.496 106.941 275.855 110.389L275.742 111H263L263.091 110.166C263.847 103.235 266.745 97.137 271.704 92.0389C277.576 86.0409 284.75 83 293.027 83C301.27 83 308.424 86.0409 314.296 92.0368C319.255 97.137 322.153 103.235 322.909 110.166L323 111Z" fill="white"/>
<path d="M339.444 110C340.115 106.482 341.78 103.372 344.493 100.693C348.074 97.0833 352.418 95.2773 357.529 95.2773C362.6 95.2773 366.928 97.0833 370.509 100.693C373.22 103.372 374.885 106.482 375.556 110H375.894H387C386.254 103.364 383.439 97.5749 378.506 92.6526C372.689 86.8855 365.697 84 357.529 84C349.323 84 342.313 86.8855 336.496 92.6526C331.563 97.5749 328.746 103.364 328 110H339.108H339.444Z" fill="white"/>
<path d="M375.457 109.497H385.353C384.5 103.262 381.782 97.7485 377.263 93.1022C371.677 87.3967 364.868 84.5031 357.029 84.5031C349.152 84.5031 342.323 87.3967 336.737 93.1043C332.22 97.7464 329.5 103.258 328.647 109.497H338.543C339.309 105.994 341.014 102.877 343.618 100.229C347.282 96.4233 351.795 94.4928 357.029 94.4928C362.225 94.4928 366.718 96.4233 370.388 100.235C372.984 102.877 374.689 105.994 375.457 109.497ZM387 111H374.259L374.144 110.389C373.503 106.941 371.892 103.881 369.354 101.299C365.964 97.7771 361.821 95.9959 357.029 95.9959C352.201 95.9959 348.036 97.7771 344.652 101.292C342.106 103.881 340.495 106.941 339.856 110.389L339.743 111H327L327.09 110.166C327.847 103.235 330.746 97.137 335.705 92.0389C341.577 86.0409 348.752 83 357.029 83C365.268 83 372.423 86.0409 378.295 92.0368C383.256 97.1391 386.155 103.237 386.908 110.166L387 111Z" fill="white"/>
<path d="M403.611 110C404.226 106.482 405.708 103.372 408.102 100.693C411.297 97.0833 415.142 95.2773 419.639 95.2773C420.53 95.2773 421.422 95.3716 422.315 95.5562C423.835 95.8552 425.247 95.5562 426.549 94.6633C427.809 93.7703 428.59 92.5603 428.889 91.0353C429.185 89.5102 428.889 88.0955 427.998 86.7912C427.106 85.4909 425.896 84.7083 424.374 84.4475C422.814 84.1505 421.235 84 419.639 84C413.582 84 408.122 85.9183 403.257 89.751V89.6387C403.257 88.0755 402.716 86.7551 401.638 85.6755C400.525 84.5578 399.187 84 397.626 84C396.066 84 394.748 84.5578 393.672 85.6755C392.557 86.7551 392 88.0755 392 89.6387V110H403.297H403.611Z" fill="white"/>
<path d="M392.492 109.497H402.9C403.613 106.01 405.162 102.906 407.516 100.262C410.882 96.4356 415.004 94.4928 419.765 94.4928C420.709 94.4928 421.672 94.593 422.628 94.7935C423.968 95.0573 425.188 94.7975 426.348 93.998C427.464 93.2025 428.141 92.1472 428.411 90.7771C428.673 89.4151 428.415 88.1861 427.623 87.0225C426.831 85.8609 425.789 85.182 424.439 84.9489C422.892 84.6524 421.322 84.5031 419.765 84.5031C413.826 84.5031 408.395 86.4213 403.617 90.2025L402.411 91.1595V89.6115C402.411 88.1022 401.946 86.955 400.99 85.9898C399.997 84.9898 398.837 84.5031 397.451 84.5031C396.068 84.5031 394.933 84.9877 393.977 85.9816C392.972 86.9611 392.492 88.1063 392.492 89.499V109.497ZM404.145 111H391V89.499C391 87.7014 391.648 86.1616 392.923 84.9182C394.137 83.6524 395.666 83 397.451 83C399.229 83 400.774 83.6483 402.046 84.9264C402.967 85.8589 403.55 86.955 403.786 88.1963C408.561 84.7485 413.93 83 419.765 83C421.416 83 423.079 83.1595 424.703 83.4683C426.437 83.7689 427.836 84.6789 428.853 86.1718C429.869 87.6646 430.212 89.3108 429.875 91.0654C429.534 92.8078 428.634 94.2106 427.201 95.2331C425.704 96.2638 424.072 96.6094 422.334 96.2658C421.469 96.0859 420.608 95.9959 419.765 95.9959C415.45 95.9959 411.704 97.7669 408.628 101.262C406.324 103.853 404.852 106.92 404.253 110.378L404.145 111Z" fill="white"/>
<path d="M477.617 110C478.299 106.482 479.99 103.372 482.743 100.693C486.379 97.0833 490.788 95.2773 495.978 95.2773C498.705 95.2773 501.316 95.8351 503.814 96.9528C505.254 97.6211 506.709 97.6973 508.187 97.1756C509.702 96.6177 510.779 95.6305 511.425 94.2158C512.106 92.8031 512.182 91.3704 511.653 89.9176C511.084 88.4668 510.079 87.4053 508.64 86.735C504.627 84.913 500.407 84 495.978 84C487.647 84 480.53 86.8855 474.625 92.6526C469.617 97.5749 466.757 103.364 466 110H477.277H477.617Z" fill="white"/>
<path d="M467.634 109.497H477.451C478.211 105.992 479.902 102.875 482.485 100.229C486.12 96.4233 490.597 94.4928 495.789 94.4928C498.516 94.4928 501.164 95.09 503.665 96.2679C504.896 96.8712 506.098 96.9366 507.345 96.4703C508.622 95.9755 509.512 95.1186 510.06 93.8569C510.642 92.5787 510.707 91.3333 510.258 90.0368C509.78 88.7505 508.949 87.8221 507.72 87.2188C503.959 85.4192 499.943 84.5031 495.789 84.5031C487.973 84.5031 481.2 87.3967 475.657 93.1043C471.176 97.7485 468.48 103.262 467.634 109.497ZM478.641 111H466L466.091 110.166C466.839 103.237 469.714 97.1391 474.633 92.0389C480.458 86.0409 487.576 83 495.789 83C500.154 83 504.375 83.9632 508.334 85.8568C509.9 86.6278 511.003 87.8569 511.617 89.5133C512.199 91.1984 512.116 92.865 511.376 94.4847C510.678 96.0961 509.488 97.2434 507.846 97.8834C506.226 98.4847 504.62 98.3988 503.053 97.6299C500.754 96.5481 498.305 95.9959 495.789 95.9959C490.998 95.9959 486.868 97.7771 483.511 101.292C480.985 103.879 479.389 106.939 478.754 110.389L478.641 111Z" fill="white"/>
<path d="M525 67.5872C525 66.0383 524.456 64.73 523.366 63.6602C522.315 62.5528 521.027 62 519.502 62C517.977 62 516.67 62.5528 515.581 63.6602C514.527 64.73 514 66.0383 514 67.5872V110H525V67.5872Z" fill="white"/>
<path d="M515.388 109.523H524.612V67.3877C524.612 66.0189 524.166 64.8933 523.247 63.9486C522.344 62.9537 521.289 62.4773 520.001 62.4773C518.711 62.4773 517.633 62.9557 516.712 63.9386C515.82 64.8853 515.388 66.0129 515.388 67.3877V109.523ZM526 111H514V67.3877C514 65.6249 514.582 64.1134 515.73 62.8934C516.91 61.6372 518.347 61 520.001 61C521.663 61 523.085 61.6412 524.229 62.9034C525.398 64.1074 526 65.6229 526 67.3877V111Z" fill="white"/>
<path d="M443.998 95.2954H444V84.032H443.998V65.6317C443.998 64.1085 443.472 62.7898 442.421 61.6735C441.333 60.5592 440.025 60 438.501 60C436.977 60 435.685 60.5592 434.634 61.6735C433.544 62.7898 433 64.1085 433 65.6317V110H443.998V95.2954Z" fill="white"/>
<path d="M434.388 109.512H443.612V65.4327C443.612 64.0801 443.179 62.9422 442.286 61.9501C441.37 60.9681 440.294 60.4882 439.002 60.4882C437.714 60.4882 436.656 60.966 435.769 61.9501C434.838 62.9503 434.388 64.0862 434.388 65.4327V109.512ZM445 111H433V65.4327C433 63.6954 433.597 62.1728 434.779 60.9073C435.916 59.6439 437.34 59 439.002 59C440.656 59 442.095 59.6419 443.276 60.9073C444.424 62.1809 445 63.6995 445 65.4327V111Z" fill="white"/>
<path d="M461.846 92.514C462.616 91.5589 463 90.386 463 88.999C463 87.614 462.616 86.4252 461.846 85.4345C461.076 84.4795 460.164 84 459.115 84H450V94H459.115C460.164 94 461.076 93.5047 461.846 92.514Z" fill="white"/>
<path d="M450.455 93.4743H459.224C460.097 93.4743 460.842 93.0571 461.503 92.2019L461.513 92.1915C462.206 91.3238 462.545 90.2797 462.545 88.999C462.545 87.7161 462.204 86.6513 461.503 85.7462C460.848 84.9284 460.101 84.5257 459.224 84.5257H450.455V93.4743ZM459.224 95H449V83H459.224C460.539 83 461.683 83.5978 462.626 84.7748C463.541 85.958 464 87.3757 464 88.999C464 90.6264 463.539 92.0296 462.63 93.1671C461.689 94.3835 460.543 95 459.224 95Z" fill="white"/>
</svg>
