<svg width="200" height="257" viewBox="0 0 200 257" fill="none" xmlns="http://www.w3.org/2000/svg">
<path d="M1 251.725C1 252.91 1.39573 253.927 2.18861 254.772C2.95302 255.589 3.89253 256 5.00142 256C6.11032 256 7.05979 255.589 7.85267 254.772C8.61708 253.927 9 252.91 9 251.725V219H1V251.725Z" fill="white"/>
<path d="M1.04108 219.144V252.055C1.04108 253.12 1.37819 254.007 2.07082 254.768C2.73654 255.501 3.53258 255.856 4.50142 255.856C5.47309 255.856 6.28329 255.498 6.97734 254.76C7.63456 254.013 7.95892 253.123 7.95892 252.055V219.144H1.04108ZM4.50142 257C3.25921 257 2.19405 256.522 1.33428 255.577C0.449009 254.605 0 253.419 0 252.055V218H9V252.055C9 253.415 8.56799 254.598 7.71388 255.57C6.81445 256.524 5.73796 257 4.50142 257" fill="white"/>
<path d="M37.3002 219C36.821 221.786 35.5082 224.242 33.354 226.364C30.6097 229.068 27.2953 230.42 23.4077 230.42C21.235 230.42 19.1779 229.955 17.2349 229.026C16.1501 228.518 15.0499 228.464 13.9359 228.857C12.791 229.252 11.9636 229.971 11.4489 231.013C10.9342 232.084 10.8618 233.182 11.2332 234.309C11.6338 235.407 12.378 236.225 13.4628 236.761C16.5785 238.254 19.8929 239 23.4077 239C29.6667 239 35.0274 236.802 39.4852 232.407C43.3312 228.616 45.4746 224.136 46 219H37.4543H37.3002Z" fill="white"/>
<path d="M14.9322 229.162C14.5168 229.162 14.0984 229.241 13.6723 229.398C12.6683 229.762 11.9632 230.4 11.5157 231.351C11.065 232.334 11.0037 233.317 11.3302 234.35C11.6735 235.342 12.3081 236.07 13.263 236.564C16.2657 238.071 19.5106 238.837 22.9057 238.837C28.9479 238.837 34.1946 236.583 38.4986 232.139C42.0301 228.494 44.1285 224.131 44.7462 219.163H37.1912C36.6317 221.983 35.2905 224.505 33.1967 226.665C30.3718 229.582 26.9093 231.061 22.9057 231.061C20.6678 231.061 18.5189 230.553 16.5186 229.55C15.9898 229.292 15.4641 229.162 14.9322 229.162ZM22.9057 240C19.3389 240 15.9285 239.194 12.7649 237.607C11.5494 236.98 10.7094 236.012 10.2634 234.727C9.84493 233.399 9.92617 232.1 10.4994 230.848C11.0788 229.618 12.0184 228.763 13.2967 228.303C14.5429 227.842 15.7936 227.907 17.0061 228.502C18.8561 229.43 20.8395 229.898 22.9057 229.898C26.5997 229.898 29.794 228.534 32.3997 225.842C34.4444 223.732 35.712 221.257 36.1673 218.484L36.2485 218H46L45.9372 218.639C45.3992 224.148 43.1644 228.966 39.2957 232.961C34.7724 237.631 29.2575 240 22.9057 240Z" fill="white"/>
<path d="M85.3429 219C84.866 221.786 83.5596 224.242 81.4175 226.364C78.6882 229.068 75.387 230.42 71.5215 230.42C67.6238 230.42 64.3118 229.068 61.5809 226.364C59.4373 224.242 58.1325 221.786 57.6556 219H57.5023H49C49.5213 224.136 51.6542 228.616 55.4829 232.407C59.9188 236.802 65.264 239 71.5215 239C77.7498 239 83.0812 236.802 87.5171 232.407C91.3443 228.616 93.4771 224.136 94 219H85.4962H85.3429Z" fill="white"/>
<path d="M50.2205 219.163C50.8203 224.131 52.8629 228.493 56.3021 232.139C60.4917 236.583 65.6124 238.837 71.5209 238.837C77.401 238.837 82.5068 236.583 86.6979 232.139C90.1341 228.494 92.1782 224.133 92.7795 219.163H85.4252C84.8821 221.98 83.5766 224.503 81.54 226.665C78.7886 229.582 75.4181 231.061 71.5209 231.061C67.5953 231.061 64.2114 229.582 61.46 226.665C59.4219 224.505 58.1164 221.983 57.5733 219.163H50.2205ZM71.5209 240C65.311 240 59.9292 237.632 55.5262 232.961C51.7588 228.966 49.5819 224.147 49.0612 218.639L49 218H58.4924L58.57 218.484C59.0116 221.257 60.2455 223.732 62.2359 225.842C64.7739 228.534 67.8982 229.898 71.5209 229.898C75.1167 229.898 78.2261 228.534 80.7641 225.842C82.753 223.731 83.9869 221.255 84.4285 218.484L84.5061 218H94L93.9388 218.639C93.4151 224.148 91.2397 228.966 87.4738 232.961C83.0693 237.632 77.7024 240 71.5209 240Z" fill="white"/>
<path d="M98 234.731C98 235.915 98.3957 236.916 99.1886 237.732C99.953 238.578 100.89 239 101.999 239C103.107 239 104.058 238.578 104.85 237.732C105.616 236.916 106 235.915 106 234.731V219H98V234.731Z" fill="white"/>
<path d="M98.1566 219.163V234.972C98.1566 236.05 98.5279 236.936 99.2943 237.678C100.048 238.463 100.928 238.837 101.999 238.837C103.074 238.837 103.972 238.46 104.742 237.686C105.483 236.941 105.843 236.053 105.843 234.972V219.163H98.1566ZM101.999 240C100.616 240 99.4312 239.495 98.476 238.501C97.502 237.556 97 236.363 97 234.972V218H107V234.972C107 236.357 106.515 237.547 105.56 238.509C104.575 239.498 103.378 240 101.999 240Z" fill="white"/>
<path d="M190.343 219C189.866 221.786 188.56 224.242 186.418 226.364C183.688 229.068 180.387 230.42 176.521 230.42C172.624 230.42 169.312 229.068 166.581 226.364C164.437 224.242 163.132 221.786 162.656 219H162.502H154C154.521 224.136 156.654 228.616 160.481 232.407C164.919 236.802 170.264 239 176.521 239C182.75 239 188.081 236.802 192.517 232.407C196.344 228.616 198.477 224.136 199 219H190.496H190.343Z" fill="white"/>
<path d="M155.248 219.163C155.862 224.133 157.95 228.494 161.464 232.139C165.747 236.583 170.982 238.837 177.023 238.837C183.034 238.837 188.251 236.583 192.536 232.139C196.05 228.493 198.139 224.131 198.752 219.163H191.235C190.68 221.98 189.345 224.503 187.263 226.665C184.451 229.582 181.005 231.061 177.023 231.061C173.009 231.061 169.549 229.582 166.737 226.665C164.655 224.506 163.32 221.983 162.764 219.163H155.248ZM177.023 240C170.673 240 165.172 237.632 160.671 232.961C156.82 228.966 154.598 224.148 154.063 218.639L154 218H163.702L163.783 218.484C164.237 221.259 165.497 223.734 167.53 225.842C170.124 228.534 173.318 229.898 177.023 229.898C180.697 229.898 183.876 228.534 186.47 225.842C188.503 223.732 189.764 221.255 190.217 218.484L190.297 218H200L199.937 218.639C199.404 224.147 197.18 228.966 193.329 232.961C188.826 237.632 183.34 240 177.023 240" fill="white"/>
<path d="M130 219C130.507 224.136 132.573 228.616 136.282 232.407C140.58 236.802 145.76 239 151.823 239C152.953 239 153.933 238.578 154.759 237.732C155.587 236.887 156 235.872 156 234.689C156 233.534 155.587 232.533 154.759 231.689C153.933 230.844 152.953 230.42 151.823 230.42C148.049 230.42 144.839 229.068 142.194 226.364C140.117 224.242 138.851 221.786 138.389 219H138.239H130Z" fill="white"/>
<path d="M130.253 219.163C130.871 224.133 132.969 228.494 136.499 232.139C140.802 236.583 146.061 238.837 152.13 238.837C153.151 238.837 154.01 238.46 154.76 237.686C155.509 236.912 155.874 236.01 155.874 234.928C155.874 233.875 155.509 232.987 154.76 232.212C154.009 231.438 153.149 231.061 152.13 231.061C148.099 231.061 144.623 229.582 141.799 226.665C139.706 224.505 138.366 221.982 137.806 219.163H130.253ZM152.13 240C145.751 240 140.224 237.632 135.702 232.961C131.833 228.966 129.601 224.148 129.063 218.639L129 218H138.749L138.828 218.484C139.285 221.257 140.552 223.732 142.596 225.842C145.201 228.534 148.408 229.898 152.13 229.898C153.445 229.898 154.597 230.4 155.555 231.391C156.514 232.38 157 233.57 157 234.928C157 236.314 156.514 237.52 155.555 238.509C154.597 239.498 153.445 240 152.13 240" fill="white"/>
<path d="M9.72764 214C10.2414 211.159 11.5112 208.647 13.58 206.483C16.3113 203.567 19.6239 202.109 23.5207 202.109C27.3899 202.109 30.6887 203.567 33.4185 206.483C35.4888 208.647 36.7586 211.159 37.2724 214H37.5285H46C45.431 208.64 43.2825 203.964 39.5206 199.989C35.0839 195.331 29.7501 193 23.5207 193C17.2621 193 11.9161 195.331 7.47787 199.989C3.71598 203.964 1.56896 208.64 1 214H9.47153H9.72764Z" fill="white"/>
<path d="M37.1507 212.873H44.7373C44.0831 208.195 41.9985 204.06 38.5354 200.577C34.2533 196.298 29.0335 194.127 23.0206 194.127C16.9818 194.127 11.7482 196.298 7.46461 200.578C4.00298 204.06 1.91838 208.193 1.26265 212.873H8.84926C9.43789 210.245 10.7463 207.908 12.7424 205.922C15.5514 203.067 19.01 201.62 23.0206 201.62C27.0037 201.62 30.4501 203.067 33.2621 205.926C35.2537 207.908 36.5621 210.245 37.1507 212.873ZM46 214H36.2327L36.1443 213.541C35.6532 210.956 34.4165 208.661 32.4692 206.724C29.8722 204.083 26.6942 202.747 23.0206 202.747C19.3195 202.747 16.1294 204.083 13.5354 206.719C11.5835 208.661 10.3468 210.956 9.85573 213.541L9.76881 214H0L0.0701468 213.374C0.649626 208.176 2.87147 203.603 6.67316 199.779C11.1748 195.281 16.6753 193 23.0206 193C29.34 193 34.8252 195.281 39.3268 199.778C43.1285 203.603 45.3504 208.176 45.9299 213.374L46 214Z" fill="white"/>
<path d="M57.7282 214C58.2405 211.159 59.5104 208.647 61.5793 206.483C64.3108 203.567 67.6236 202.109 71.5222 202.109C75.3902 202.109 78.6907 203.567 81.4222 206.483C83.4896 208.647 84.7595 211.159 85.2718 214H85.5294H94C93.431 208.64 91.2838 203.964 87.5217 199.989C83.0847 195.331 77.7521 193 71.5222 193C65.2633 193 59.9168 195.331 55.4798 199.989C51.7177 203.964 49.569 208.64 49 214H57.4721H57.7282Z" fill="white"/>
<path d="M85.3425 212.873H92.7647C92.1247 208.196 90.0868 204.061 86.6972 200.577C82.5079 196.298 77.4012 194.127 71.5216 194.127C65.6137 194.127 60.4921 196.298 56.3028 200.578C52.9147 204.06 50.8753 208.193 50.2353 212.873H57.6575C58.2318 210.245 59.5104 207.908 61.4633 205.922C64.2114 203.067 67.5965 201.62 71.5216 201.62C75.4185 201.62 78.7886 203.067 81.5412 205.926C83.4881 207.908 84.7667 210.245 85.3425 212.873ZM94 214H84.4444L84.3579 213.541C83.8775 210.956 82.6691 208.661 80.7654 206.724C78.2232 204.083 75.1156 202.747 71.5216 202.747C67.9008 202.747 64.7768 204.083 62.2391 206.719C60.3294 208.661 59.121 210.956 58.6421 213.541L58.5571 214H49L49.0671 213.374C49.6355 208.176 51.8092 203.603 55.5285 199.779C59.9326 195.281 65.3139 193 71.5216 193C77.7011 193 83.0674 195.281 87.4715 199.778C91.1923 203.604 93.3659 208.178 93.9314 213.374L94 214Z" fill="white"/>
<path d="M106.787 214C107.252 211.159 108.374 208.647 110.185 206.483C112.603 203.567 115.513 202.109 118.916 202.109C119.591 202.109 120.265 202.185 120.941 202.334C122.092 202.575 123.16 202.334 124.145 201.613C125.099 200.891 125.69 199.914 125.916 198.682C126.14 197.451 125.916 196.308 125.241 195.254C124.567 194.204 123.651 193.572 122.499 193.361C121.319 193.122 120.124 193 118.916 193C114.332 193 110.2 194.549 106.519 197.645V197.554C106.519 196.292 106.109 195.225 105.294 194.353C104.451 193.451 103.439 193 102.258 193C101.077 193 100.08 193.451 99.2657 194.353C98.4214 195.225 98 196.292 98 197.554V214H106.549H106.787Z" fill="white"/>
<path d="M98.148 212.873H106.154C106.702 210.258 107.894 207.929 109.704 205.946C112.294 203.077 115.464 201.62 119.127 201.62C119.853 201.62 120.594 201.695 121.329 201.845C122.36 202.043 123.299 201.848 124.191 201.248C125.05 200.652 125.57 199.86 125.777 198.833C125.979 197.811 125.781 196.89 125.171 196.017C124.562 195.146 123.761 194.637 122.722 194.462C121.532 194.239 120.325 194.127 119.127 194.127C114.559 194.127 110.381 195.566 106.705 198.402L105.778 199.12V197.959C105.778 196.827 105.42 195.966 104.684 195.242C103.921 194.492 103.029 194.127 101.962 194.127C100.898 194.127 100.025 194.491 99.2897 195.236C98.5166 195.971 98.148 196.83 98.148 197.874V212.873ZM107.112 214H97V197.874C97 196.526 97.4982 195.371 98.4791 194.439C99.4131 193.489 100.589 193 101.962 193C103.33 193 104.519 193.486 105.497 194.445C106.206 195.144 106.654 195.966 106.835 196.897C110.509 194.311 114.638 193 119.127 193C120.397 193 121.676 193.12 122.925 193.351C124.259 193.577 125.335 194.259 126.118 195.379C126.899 196.498 127.163 197.733 126.904 199.049C126.641 200.356 125.949 201.408 124.847 202.175C123.695 202.948 122.44 203.207 121.103 202.949C120.437 202.814 119.775 202.747 119.127 202.747C115.808 202.747 112.926 204.075 110.56 206.696C108.787 208.64 107.655 210.94 107.194 213.534L107.112 214Z" fill="white"/>
<path d="M162.839 214C163.358 211.159 164.644 208.647 166.739 206.483C169.506 203.567 172.861 202.109 176.809 202.109C178.884 202.109 180.871 202.559 182.772 203.462C183.867 204.002 184.974 204.063 186.099 203.642C187.251 203.191 188.071 202.394 188.562 201.251C189.081 200.11 189.138 198.953 188.736 197.78C188.303 196.608 187.539 195.75 186.444 195.209C183.39 193.737 180.179 193 176.809 193C170.47 193 165.056 195.331 160.562 199.989C156.752 203.964 154.576 208.64 154 214H162.58H162.839Z" fill="white"/>
<path d="M155.243 212.873H162.713C163.291 210.244 164.578 207.906 166.543 205.922C169.309 203.067 172.715 201.62 176.666 201.62C178.741 201.62 180.756 202.067 182.658 202.951C183.595 203.403 184.509 203.452 185.458 203.103C186.43 202.732 187.107 202.089 187.524 201.143C187.967 200.184 188.017 199.25 187.674 198.278C187.311 197.313 186.679 196.617 185.743 196.164C182.882 194.814 179.826 194.127 176.666 194.127C170.718 194.127 165.566 196.298 161.348 200.578C157.938 204.061 155.887 208.196 155.243 212.873ZM163.618 214H154L154.069 213.374C154.638 208.178 156.826 203.604 160.569 199.779C165.001 195.281 170.417 193 176.666 193C179.987 193 183.198 193.722 186.21 195.143C187.402 195.721 188.242 196.643 188.709 197.885C189.152 199.149 189.089 200.399 188.526 201.613C187.994 202.822 187.089 203.683 185.839 204.163C184.607 204.613 183.385 204.549 182.192 203.972C180.443 203.161 178.58 202.747 176.666 202.747C173.02 202.747 169.878 204.083 167.324 206.719C165.402 208.66 164.187 210.954 163.704 213.541L163.618 214Z" fill="white"/>
<path d="M199 180.423C199 179.197 198.604 178.161 197.811 177.314C197.047 176.438 196.11 176 195.001 176C193.893 176 192.942 176.438 192.15 177.314C191.383 178.161 191 179.197 191 180.423V214H199V180.423Z" fill="white"/>
<path d="M192.041 212.877H198.959V180.855C198.959 179.814 198.625 178.959 197.935 178.241C197.258 177.485 196.467 177.123 195.501 177.123C194.533 177.123 193.725 177.486 193.034 178.233C192.365 178.953 192.041 179.81 192.041 180.855V212.877ZM200 214H191V180.855C191 179.515 191.436 178.366 192.297 177.439C193.182 176.484 194.26 176 195.501 176C196.747 176 197.813 176.487 198.672 177.447C199.548 178.362 200 179.513 200 180.855V214Z" fill="white"/>
<path d="M137.998 202.53H138V193.745H137.998V179.393C137.998 178.205 137.568 177.176 136.708 176.305C135.818 175.436 134.748 175 133.501 175C132.254 175 131.197 175.436 130.337 176.305C129.445 177.176 129 178.205 129 179.393V214H137.998V202.53Z" fill="white"/>
<path d="M130.041 212.855H136.959V178.948C136.959 177.908 136.635 177.032 135.965 176.269C135.278 175.514 134.47 175.145 133.501 175.145C132.535 175.145 131.742 175.512 131.076 176.269C130.378 177.039 130.041 177.912 130.041 178.948V212.855ZM138 214H129V178.948C129 177.612 129.448 176.441 130.334 175.467C131.187 174.495 132.255 174 133.501 174C134.742 174 135.822 174.494 136.707 175.467C137.568 176.447 138 177.615 138 178.948V214Z" fill="white"/>
<path d="M151.112 199.811C151.705 199.047 152 198.109 152 196.999C152 195.891 151.705 194.94 151.112 194.148C150.52 193.384 149.818 193 149.011 193H142V201H149.011C149.818 201 150.52 200.604 151.112 199.811Z" fill="white"/>
<path d="M142.164 200.856H149.179C149.878 200.856 150.473 200.543 151.002 199.901L151.01 199.894C151.565 199.243 151.836 198.46 151.836 197.499C151.836 196.537 151.563 195.738 151.002 195.06C150.478 194.446 149.881 194.144 149.179 194.144H142.164V200.856ZM149.179 202H141V193H149.179C150.231 193 151.147 193.448 151.901 194.331C152.632 195.218 153 196.282 153 197.499C153 198.72 152.631 199.772 151.904 200.625C151.151 201.538 150.234 202 149.179 202Z" fill="white"/>
<path fill-rule="evenodd" clip-rule="evenodd" d="M46.6267 59.2573V121.584L103.676 175.465V113.892C105.607 114.088 107.569 114.185 109.563 114.185C140.809 114.185 166.157 88.8453 166.157 57.5987C166.157 26.3453 140.809 1.00134 109.563 1.00134C88.0667 1.00134 64.5787 0.00399477 43 -5.22927e-06L103.676 59.2573H46.6267Z" fill="white"/>
</svg>
