<svg width="200" height="83" viewBox="0 0 200 83" fill="none" xmlns="http://www.w3.org/2000/svg">
<path d="M1 77.725C1 78.91 1.39573 79.927 2.18861 80.772C2.95302 81.589 3.89253 82 5.00142 82C6.11032 82 7.05979 81.589 7.85267 80.772C8.61708 79.927 9 78.91 9 77.725V45H1V77.725Z" fill="white"/>
<path d="M1.04108 45.144V78.055C1.04108 79.12 1.37819 80.007 2.07082 80.768C2.73654 81.501 3.53258 81.856 4.50142 81.856C5.47309 81.856 6.28329 81.498 6.97734 80.76C7.63456 80.013 7.95892 79.123 7.95892 78.055V45.144H1.04108ZM4.50142 83C3.25921 83 2.19405 82.522 1.33428 81.577C0.449009 80.605 0 79.419 0 78.055V44H9V78.055C9 79.415 8.56799 80.598 7.71388 81.57C6.81445 82.524 5.73796 83 4.50142 83Z" fill="white"/>
<path d="M37.3002 45C36.821 47.786 35.5082 50.242 33.354 52.364C30.6097 55.068 27.2953 56.42 23.4077 56.42C21.235 56.42 19.1779 55.955 17.2349 55.026C16.1501 54.518 15.0499 54.464 13.9359 54.857C12.791 55.252 11.9636 55.971 11.4489 57.013C10.9342 58.084 10.8618 59.182 11.2332 60.309C11.6338 61.407 12.378 62.225 13.4628 62.761C16.5785 64.254 19.8929 65 23.4077 65C29.6667 65 35.0274 62.802 39.4852 58.407C43.3312 54.616 45.4746 50.136 46 45H37.4543H37.3002Z" fill="white"/>
<path d="M14.9322 55.162C14.5168 55.162 14.0984 55.241 13.6723 55.398C12.6683 55.762 11.9632 56.4 11.5157 57.351C11.065 58.334 11.0037 59.317 11.3302 60.35C11.6735 61.342 12.3081 62.07 13.263 62.564C16.2657 64.071 19.5106 64.837 22.9057 64.837C28.9479 64.837 34.1946 62.583 38.4986 58.139C42.0301 54.494 44.1285 50.131 44.7462 45.163H37.1912C36.6317 47.983 35.2905 50.505 33.1967 52.665C30.3718 55.582 26.9093 57.061 22.9057 57.061C20.6678 57.061 18.5189 56.553 16.5186 55.55C15.9898 55.292 15.4641 55.162 14.9322 55.162ZM22.9057 66C19.3389 66 15.9285 65.194 12.7649 63.607C11.5494 62.98 10.7094 62.012 10.2634 60.727C9.84493 59.399 9.92617 58.1 10.4994 56.848C11.0788 55.618 12.0184 54.763 13.2967 54.303C14.5429 53.842 15.7936 53.907 17.0061 54.502C18.8561 55.43 20.8395 55.898 22.9057 55.898C26.5997 55.898 29.794 54.534 32.3997 51.842C34.4444 49.732 35.712 47.257 36.1673 44.484L36.2485 44H46L45.9372 44.639C45.3992 50.148 43.1644 54.966 39.2957 58.961C34.7724 63.631 29.2575 66 22.9057 66Z" fill="white"/>
<path d="M85.3429 45C84.866 47.786 83.5596 50.242 81.4175 52.364C78.6882 55.068 75.387 56.42 71.5215 56.42C67.6238 56.42 64.3118 55.068 61.5809 52.364C59.4373 50.242 58.1325 47.786 57.6556 45H57.5023H49C49.5213 50.136 51.6542 54.616 55.4829 58.407C59.9188 62.802 65.264 65 71.5215 65C77.7498 65 83.0812 62.802 87.5171 58.407C91.3443 54.616 93.4771 50.136 94 45H85.4962H85.3429Z" fill="white"/>
<path d="M50.2205 45.163C50.8203 50.131 52.8629 54.493 56.3021 58.139C60.4917 62.583 65.6124 64.837 71.5209 64.837C77.401 64.837 82.5068 62.583 86.6979 58.139C90.1341 54.494 92.1782 50.133 92.7795 45.163H85.4252C84.8821 47.98 83.5766 50.503 81.54 52.665C78.7886 55.582 75.4181 57.061 71.5209 57.061C67.5953 57.061 64.2114 55.582 61.46 52.665C59.4219 50.505 58.1164 47.983 57.5733 45.163H50.2205ZM71.5209 66C65.311 66 59.9292 63.632 55.5262 58.961C51.7588 54.966 49.5819 50.147 49.0612 44.639L49 44H58.4924L58.57 44.484C59.0116 47.257 60.2455 49.732 62.2359 51.842C64.7739 54.534 67.8982 55.898 71.5209 55.898C75.1167 55.898 78.2261 54.534 80.7641 51.842C82.753 49.731 83.9869 47.255 84.4285 44.484L84.5061 44H94L93.9388 44.639C93.4151 50.148 91.2397 54.966 87.4738 58.961C83.0693 63.632 77.7024 66 71.5209 66Z" fill="white"/>
<path d="M98 60.731C98 61.915 98.3957 62.916 99.1886 63.732C99.953 64.578 100.89 65 101.999 65C103.107 65 104.058 64.578 104.85 63.732C105.616 62.916 106 61.915 106 60.731V45H98V60.731Z" fill="white"/>
<path d="M98.1566 45.163V60.972C98.1566 62.05 98.5279 62.936 99.2943 63.678C100.048 64.463 100.928 64.837 101.999 64.837C103.074 64.837 103.972 64.46 104.742 63.686C105.483 62.941 105.843 62.053 105.843 60.972V45.163H98.1566ZM101.999 66C100.616 66 99.4312 65.495 98.476 64.501C97.502 63.556 97 62.363 97 60.972V44H107V60.972C107 62.357 106.515 63.547 105.56 64.509C104.575 65.498 103.378 66 101.999 66Z" fill="white"/>
<path d="M190.343 45C189.866 47.786 188.56 50.242 186.418 52.364C183.688 55.068 180.387 56.42 176.521 56.42C172.624 56.42 169.312 55.068 166.581 52.364C164.437 50.242 163.132 47.786 162.656 45H162.502H154C154.521 50.136 156.654 54.616 160.481 58.407C164.919 62.802 170.264 65 176.521 65C182.75 65 188.081 62.802 192.517 58.407C196.344 54.616 198.477 50.136 199 45H190.496H190.343Z" fill="white"/>
<path d="M155.248 45.163C155.862 50.133 157.95 54.494 161.464 58.139C165.747 62.583 170.982 64.837 177.023 64.837C183.034 64.837 188.251 62.583 192.536 58.139C196.05 54.493 198.139 50.131 198.752 45.163H191.235C190.68 47.98 189.345 50.503 187.263 52.665C184.451 55.582 181.005 57.061 177.023 57.061C173.009 57.061 169.549 55.582 166.737 52.665C164.655 50.506 163.32 47.983 162.764 45.163H155.248ZM177.023 66C170.673 66 165.172 63.632 160.671 58.961C156.82 54.966 154.598 50.148 154.063 44.639L154 44H163.702L163.783 44.484C164.237 47.259 165.497 49.734 167.53 51.842C170.124 54.534 173.318 55.898 177.023 55.898C180.697 55.898 183.876 54.534 186.47 51.842C188.503 49.732 189.764 47.255 190.217 44.484L190.297 44H200L199.937 44.639C199.404 50.147 197.18 54.966 193.329 58.961C188.826 63.632 183.34 66 177.023 66Z" fill="white"/>
<path d="M130 45C130.507 50.136 132.573 54.616 136.282 58.407C140.58 62.802 145.76 65 151.823 65C152.953 65 153.933 64.578 154.759 63.732C155.587 62.887 156 61.872 156 60.689C156 59.534 155.587 58.533 154.759 57.689C153.933 56.844 152.953 56.42 151.823 56.42C148.049 56.42 144.839 55.068 142.194 52.364C140.117 50.242 138.851 47.786 138.389 45H138.239H130Z" fill="white"/>
<path d="M130.253 45.163C130.871 50.133 132.969 54.494 136.499 58.139C140.802 62.583 146.061 64.837 152.13 64.837C153.151 64.837 154.01 64.46 154.76 63.686C155.509 62.912 155.874 62.01 155.874 60.928C155.874 59.875 155.509 58.987 154.76 58.212C154.009 57.438 153.149 57.061 152.13 57.061C148.099 57.061 144.623 55.582 141.799 52.665C139.706 50.505 138.366 47.982 137.806 45.163H130.253ZM152.13 66C145.751 66 140.224 63.632 135.702 58.961C131.833 54.966 129.601 50.148 129.063 44.639L129 44H138.749L138.828 44.484C139.285 47.257 140.552 49.732 142.596 51.842C145.201 54.534 148.408 55.898 152.13 55.898C153.445 55.898 154.597 56.4 155.555 57.391C156.514 58.38 157 59.57 157 60.928C157 62.314 156.514 63.52 155.555 64.509C154.597 65.498 153.445 66 152.13 66Z" fill="white"/>
<path d="M9.72764 40C10.2414 37.159 11.5112 34.647 13.58 32.483C16.3113 29.567 19.6239 28.109 23.5207 28.109C27.3899 28.109 30.6887 29.567 33.4185 32.483C35.4888 34.647 36.7586 37.159 37.2724 40H37.5285H46C45.431 34.64 43.2825 29.964 39.5206 25.989C35.0839 21.331 29.7501 19 23.5207 19C17.2621 19 11.9161 21.331 7.47787 25.989C3.71598 29.964 1.56896 34.64 1 40H9.47153H9.72764Z" fill="white"/>
<path d="M37.1507 38.873H44.7373C44.0831 34.195 41.9985 30.06 38.5354 26.577C34.2533 22.298 29.0335 20.127 23.0206 20.127C16.9818 20.127 11.7482 22.298 7.46461 26.578C4.00298 30.06 1.91838 34.193 1.26265 38.873H8.84926C9.43789 36.245 10.7463 33.908 12.7424 31.922C15.5514 29.067 19.01 27.62 23.0206 27.62C27.0037 27.62 30.4501 29.067 33.2621 31.926C35.2537 33.908 36.5621 36.245 37.1507 38.873ZM46 40H36.2327L36.1443 39.541C35.6532 36.956 34.4165 34.661 32.4692 32.724C29.8722 30.083 26.6942 28.747 23.0206 28.747C19.3195 28.747 16.1294 30.083 13.5354 32.719C11.5835 34.661 10.3468 36.956 9.85573 39.541L9.76881 40H0L0.0701468 39.374C0.649626 34.176 2.87147 29.603 6.67316 25.779C11.1748 21.281 16.6753 19 23.0206 19C29.34 19 34.8252 21.281 39.3268 25.778C43.1285 29.603 45.3504 34.176 45.9299 39.374L46 40Z" fill="white"/>
<path d="M57.7282 40C58.2405 37.159 59.5104 34.647 61.5793 32.483C64.3108 29.567 67.6236 28.109 71.5222 28.109C75.3902 28.109 78.6907 29.567 81.4222 32.483C83.4896 34.647 84.7595 37.159 85.2718 40H85.5294H94C93.431 34.64 91.2838 29.964 87.5217 25.989C83.0847 21.331 77.7521 19 71.5222 19C65.2633 19 59.9168 21.331 55.4798 25.989C51.7177 29.964 49.569 34.64 49 40H57.4721H57.7282Z" fill="white"/>
<path d="M85.3425 38.873H92.7647C92.1247 34.196 90.0868 30.061 86.6972 26.577C82.5079 22.298 77.4012 20.127 71.5216 20.127C65.6137 20.127 60.4921 22.298 56.3028 26.578C52.9147 30.06 50.8753 34.193 50.2353 38.873H57.6575C58.2318 36.245 59.5104 33.908 61.4633 31.922C64.2114 29.067 67.5965 27.62 71.5216 27.62C75.4185 27.62 78.7886 29.067 81.5412 31.926C83.4881 33.908 84.7667 36.245 85.3425 38.873ZM94 40H84.4444L84.3579 39.541C83.8775 36.956 82.6691 34.661 80.7654 32.724C78.2232 30.083 75.1156 28.747 71.5216 28.747C67.9008 28.747 64.7768 30.083 62.2391 32.719C60.3294 34.661 59.121 36.956 58.6421 39.541L58.5571 40H49L49.0671 39.374C49.6355 34.176 51.8092 29.603 55.5285 25.779C59.9326 21.281 65.3139 19 71.5216 19C77.7011 19 83.0674 21.281 87.4715 25.778C91.1923 29.604 93.3659 34.178 93.9314 39.374L94 40Z" fill="white"/>
<path d="M106.787 40C107.252 37.159 108.374 34.647 110.185 32.483C112.603 29.567 115.513 28.109 118.916 28.109C119.591 28.109 120.265 28.185 120.941 28.334C122.092 28.575 123.16 28.334 124.145 27.613C125.099 26.891 125.69 25.914 125.916 24.682C126.14 23.451 125.916 22.308 125.241 21.254C124.567 20.204 123.651 19.572 122.499 19.361C121.319 19.122 120.124 19 118.916 19C114.332 19 110.2 20.549 106.519 23.645V23.554C106.519 22.292 106.109 21.225 105.294 20.353C104.451 19.451 103.439 19 102.258 19C101.077 19 100.08 19.451 99.2657 20.353C98.4214 21.225 98 22.292 98 23.554V40H106.549H106.787Z" fill="white"/>
<path d="M98.148 38.873H106.154C106.702 36.258 107.894 33.929 109.704 31.946C112.294 29.077 115.464 27.62 119.127 27.62C119.853 27.62 120.594 27.695 121.329 27.845C122.36 28.043 123.299 27.848 124.191 27.248C125.05 26.652 125.57 25.86 125.777 24.833C125.979 23.811 125.781 22.89 125.171 22.017C124.562 21.146 123.761 20.637 122.722 20.462C121.532 20.239 120.325 20.127 119.127 20.127C114.559 20.127 110.381 21.566 106.705 24.402L105.778 25.12V23.959C105.778 22.827 105.42 21.966 104.684 21.242C103.921 20.492 103.029 20.127 101.962 20.127C100.898 20.127 100.025 20.491 99.2897 21.236C98.5166 21.971 98.148 22.83 98.148 23.874V38.873ZM107.112 40H97V23.874C97 22.526 97.4982 21.371 98.4791 20.439C99.4131 19.489 100.589 19 101.962 19C103.33 19 104.519 19.486 105.497 20.445C106.206 21.144 106.654 21.966 106.835 22.897C110.509 20.311 114.638 19 119.127 19C120.397 19 121.676 19.12 122.925 19.351C124.259 19.577 125.335 20.259 126.118 21.379C126.899 22.498 127.163 23.733 126.904 25.049C126.641 26.356 125.949 27.408 124.847 28.175C123.695 28.948 122.44 29.207 121.103 28.949C120.437 28.814 119.775 28.747 119.127 28.747C115.808 28.747 112.926 30.075 110.56 32.696C108.787 34.64 107.655 36.94 107.194 39.534L107.112 40Z" fill="white"/>
<path d="M162.839 40C163.358 37.159 164.644 34.647 166.739 32.483C169.506 29.567 172.861 28.109 176.809 28.109C178.884 28.109 180.871 28.559 182.772 29.462C183.867 30.002 184.974 30.063 186.099 29.642C187.251 29.191 188.071 28.394 188.562 27.251C189.081 26.11 189.138 24.953 188.736 23.78C188.303 22.608 187.539 21.75 186.444 21.209C183.39 19.737 180.179 19 176.809 19C170.47 19 165.056 21.331 160.562 25.989C156.752 29.964 154.576 34.64 154 40H162.58H162.839Z" fill="white"/>
<path d="M155.243 38.873H162.713C163.291 36.244 164.578 33.906 166.543 31.922C169.309 29.067 172.715 27.62 176.666 27.62C178.741 27.62 180.756 28.067 182.658 28.951C183.595 29.403 184.509 29.452 185.458 29.103C186.43 28.732 187.107 28.089 187.524 27.143C187.967 26.184 188.017 25.25 187.674 24.278C187.311 23.313 186.679 22.617 185.743 22.164C182.882 20.814 179.826 20.127 176.666 20.127C170.718 20.127 165.566 22.298 161.348 26.578C157.938 30.061 155.887 34.196 155.243 38.873ZM163.618 40H154L154.069 39.374C154.638 34.178 156.826 29.604 160.569 25.779C165.001 21.281 170.417 19 176.666 19C179.987 19 183.198 19.722 186.21 21.143C187.402 21.721 188.242 22.643 188.709 23.885C189.152 25.149 189.089 26.399 188.526 27.613C187.994 28.822 187.089 29.683 185.839 30.163C184.607 30.613 183.385 30.549 182.192 29.972C180.443 29.161 178.58 28.747 176.666 28.747C173.02 28.747 169.878 30.083 167.324 32.719C165.402 34.66 164.187 36.954 163.704 39.541L163.618 40Z" fill="white"/>
<path d="M199 6.423C199 5.197 198.604 4.161 197.811 3.314C197.047 2.438 196.11 2 195.001 2C193.893 2 192.942 2.438 192.15 3.314C191.383 4.161 191 5.197 191 6.423V40H199V6.423Z" fill="white"/>
<path d="M192.041 38.877H198.959V6.855C198.959 5.814 198.625 4.959 197.935 4.241C197.258 3.485 196.467 3.123 195.501 3.123C194.533 3.123 193.725 3.486 193.034 4.233C192.365 4.953 192.041 5.81 192.041 6.855V38.877ZM200 40H191V6.855C191 5.515 191.436 4.366 192.297 3.439C193.182 2.484 194.26 2 195.501 2C196.747 2 197.813 2.48701 198.672 3.44701C199.548 4.36201 200 5.513 200 6.855V40Z" fill="white"/>
<path d="M137.998 28.53H138V19.745H137.998V5.39301C137.998 4.20501 137.568 3.17599 136.708 2.30499C135.818 1.43599 134.748 1 133.501 1C132.254 1 131.197 1.43599 130.337 2.30499C129.445 3.17599 129 4.20501 129 5.39301V40H137.998V28.53Z" fill="white"/>
<path d="M130.041 38.855H136.959V4.948C136.959 3.908 136.635 3.032 135.965 2.269C135.278 1.514 134.47 1.145 133.501 1.145C132.535 1.145 131.742 1.512 131.076 2.269C130.378 3.039 130.041 3.912 130.041 4.948V38.855ZM138 40H129V4.948C129 3.612 129.448 2.441 130.334 1.467C131.187 0.494995 132.255 0 133.501 0C134.742 0 135.822 0.493995 136.707 1.467C137.568 2.447 138 3.615 138 4.948V40Z" fill="white"/>
<path d="M151.112 25.811C151.705 25.047 152 24.109 152 22.999C152 21.891 151.705 20.94 151.112 20.148C150.52 19.384 149.818 19 149.011 19H142V27H149.011C149.818 27 150.52 26.604 151.112 25.811Z" fill="white"/>
<path d="M142.164 26.856H149.179C149.878 26.856 150.473 26.543 151.002 25.901L151.01 25.894C151.565 25.243 151.836 24.46 151.836 23.499C151.836 22.537 151.563 21.738 151.002 21.06C150.478 20.446 149.881 20.144 149.179 20.144H142.164V26.856ZM149.179 28H141V19H149.179C150.231 19 151.147 19.448 151.901 20.331C152.632 21.218 153 22.282 153 23.499C153 24.72 152.631 25.772 151.904 26.625C151.151 27.538 150.234 28 149.179 28Z" fill="white"/>
</svg>
